<svg width="60" height="60" viewBox="0 0 60 60" fill="none" xmlns="http://www.w3.org/2000/svg">
<g filter="url(#filter0_i_260_5171)">
<rect width="60" height="60" rx="30" fill="url(#paint0_linear_260_5171)" fill-opacity="0.5"/>
<rect x="0.25" y="0.25" width="59.5" height="59.5" rx="29.75" stroke="url(#paint1_linear_260_5171)" stroke-width="0.5"/>
<path d="M24.1666 30.9455H26.3599L25.3333 27.8072L24.1666 30.9455ZM35.6699 30.0005C35.3879 29.9982 35.1116 30.0797 34.876 30.2347C34.6404 30.3897 34.4562 30.6112 34.3466 30.8711C34.2371 31.1309 34.2073 31.4175 34.2609 31.6943C34.3145 31.9712 34.4491 32.2259 34.6477 32.4261C34.8463 32.6263 35.0998 32.7631 35.3763 32.8189C35.6527 32.8748 35.9395 32.8473 36.2002 32.7399C36.461 32.6326 36.684 32.4501 36.8409 32.2158C36.9978 31.9815 37.0816 31.7059 37.0816 31.4239C37.0816 31.0484 36.9332 30.6881 36.6688 30.4215C36.4044 30.1549 36.0454 30.0036 35.6699 30.0005ZM42.2849 18.6605H17.7149C17.3387 18.6543 16.965 18.7231 16.6157 18.8628C16.2663 19.0025 15.9483 19.2103 15.68 19.4742C15.4118 19.7381 15.1988 20.0527 15.0534 20.3997C14.908 20.7468 14.8332 21.1193 14.8333 21.4955V38.5055C14.8333 39.2574 15.1319 39.9785 15.6636 40.5102C16.1953 41.0419 16.9164 41.3405 17.6683 41.3405H42.2849C42.6611 41.3467 43.0348 41.278 43.3842 41.1383C43.7335 40.9986 44.0516 40.7907 44.3198 40.5269C44.588 40.263 44.801 39.9484 44.9464 39.6013C45.0918 39.2543 45.1666 38.8818 45.1666 38.5055V21.4955C45.1666 21.1193 45.0918 20.7468 44.9464 20.3997C44.801 20.0527 44.588 19.7381 44.3198 19.4742C44.0516 19.2103 43.7335 19.0025 43.3842 18.8628C43.0348 18.7231 42.6611 18.6543 42.2849 18.6605ZM29.6849 35.6705H28.6816C28.4853 35.6704 28.2938 35.6098 28.1331 35.4971C27.9724 35.3844 27.8503 35.225 27.7833 35.0405L27.3516 33.7805H23.1983L22.7666 35.0405C22.6996 35.225 22.5774 35.3844 22.4167 35.4971C22.256 35.6098 22.0645 35.6704 21.8683 35.6705H20.8649C20.7141 35.6699 20.5656 35.6331 20.4319 35.5633C20.2982 35.4935 20.1832 35.3927 20.0964 35.2694C20.0096 35.146 19.9536 35.0037 19.933 34.8543C19.9125 34.7049 19.928 34.5527 19.9783 34.4105L23.1516 25.3339C23.2484 25.055 23.4295 24.813 23.6699 24.6416C23.9103 24.4702 24.198 24.3778 24.4933 24.3772H26.0566C26.3518 24.3778 26.6396 24.4702 26.8799 24.6416C27.1203 24.813 27.3015 25.055 27.3983 25.3339L30.5716 34.4572C30.6129 34.5966 30.6215 34.7437 30.5967 34.887C30.5719 35.0303 30.5143 35.1659 30.4285 35.2833C30.3427 35.4007 30.231 35.4967 30.102 35.5639C29.973 35.6311 29.8303 35.6676 29.6849 35.6705ZM39.9166 34.7255C39.9166 34.9762 39.817 35.2165 39.6398 35.3938C39.4626 35.571 39.2222 35.6705 38.9716 35.6705H38.0383C37.9019 35.6711 37.7671 35.641 37.6439 35.5824C37.5207 35.5238 37.4123 35.4383 37.3266 35.3322C36.8033 35.5571 36.2395 35.6722 35.6699 35.6705C35.0927 35.7008 34.5154 35.6132 33.9732 35.4132C33.4309 35.2131 32.9351 34.9048 32.5158 34.5069C32.0966 34.1091 31.7627 33.63 31.5346 33.099C31.3064 32.5679 31.1888 31.996 31.1888 31.418C31.1888 30.8401 31.3064 30.2681 31.5346 29.7371C31.7627 29.2061 32.0966 28.727 32.5158 28.3292C32.9351 27.9313 33.4309 27.623 33.9732 27.4229C34.5154 27.2229 35.0927 27.1353 35.6699 27.1655C36.1515 27.172 36.6286 27.2587 37.0816 27.4222V25.3339C37.0847 25.0822 37.1868 24.8418 37.3659 24.6649C37.545 24.488 37.7865 24.3889 38.0383 24.3889H38.9716C39.2222 24.3889 39.4626 24.4884 39.6398 24.6657C39.817 24.8429 39.9166 25.0832 39.9166 25.3339V34.7255Z" fill="#0DB368"/>
</g>
<defs>
<filter id="filter0_i_260_5171" x="0" y="0" width="60" height="70" filterUnits="userSpaceOnUse" color-interpolation-filters="sRGB">
<feFlood flood-opacity="0" result="BackgroundImageFix"/>
<feBlend mode="normal" in="SourceGraphic" in2="BackgroundImageFix" result="shape"/>
<feColorMatrix in="SourceAlpha" type="matrix" values="0 0 0 0 0 0 0 0 0 0 0 0 0 0 0 0 0 0 127 0" result="hardAlpha"/>
<feOffset dy="10"/>
<feGaussianBlur stdDeviation="5"/>
<feComposite in2="hardAlpha" operator="arithmetic" k2="-1" k3="1"/>
<feColorMatrix type="matrix" values="0 0 0 0 1 0 0 0 0 1 0 0 0 0 1 0 0 0 0.4 0"/>
<feBlend mode="normal" in2="shape" result="effect1_innerShadow_260_5171"/>
</filter>
<linearGradient id="paint0_linear_260_5171" x1="30" y1="0" x2="30" y2="60" gradientUnits="userSpaceOnUse">
<stop stop-color="#E7EAEE"/>
<stop offset="1" stop-color="#9EA4B4" stop-opacity="0.2"/>
</linearGradient>
<linearGradient id="paint1_linear_260_5171" x1="44.2105" y1="1.85566" x2="-6.6396" y2="11.2522" gradientUnits="userSpaceOnUse">
<stop offset="0.0248008" stop-color="#E7EAEE"/>
<stop offset="0.924756" stop-color="#9EA4B4" stop-opacity="0.2"/>
</linearGradient>
</defs>
</svg>
