<svg width="24" height="14" viewBox="0 0 24 14" fill="none" xmlns="http://www.w3.org/2000/svg">
<path d="M0 7.00038C0 7.2656 0.105357 7.51995 0.292893 7.70749C0.48043 7.89503 0.734784 8.00038 1 8.00038H20.586L16.294 12.2924C16.1118 12.481 16.011 12.7336 16.0133 12.9958C16.0156 13.258 16.1208 13.5088 16.3062 13.6942C16.4916 13.8796 16.7424 13.9848 17.0046 13.9871C17.2668 13.9893 17.5194 13.8885 17.708 13.7064L23.708 7.70638C23.8005 7.61439 23.874 7.50501 23.9241 7.38453C23.9742 7.26406 24 7.13486 24 7.00438V7.00038C24 6.87038 23.974 6.74038 23.922 6.61838C23.8722 6.49715 23.7987 6.38702 23.706 6.29438L17.706 0.294384C17.5174 0.112226 17.2648 0.0114313 17.0026 0.0137097C16.7404 0.0159881 16.4896 0.121157 16.3042 0.306565C16.1188 0.491973 16.0136 0.742786 16.0113 1.00498C16.009 1.26718 16.1098 1.51978 16.292 1.70838L20.586 6.00038H1C0.734784 6.00038 0.48043 6.10574 0.292893 6.29328C0.105357 6.48081 0 6.73517 0 7.00038Z" fill="#132D46"/>
</svg>
