<svg width="49" height="48" viewBox="0 0 49 48" fill="none" xmlns="http://www.w3.org/2000/svg">
<path d="M5.30078 35.1992V20.7992C5.30078 19.1018 5.97506 17.474 7.1753 16.2737C8.37553 15.0735 10.0034 14.3992 11.7008 14.3992C13.3982 14.3992 15.026 15.0735 16.2263 16.2737C17.4265 17.474 18.1008 19.1018 18.1008 20.7992V35.1992M5.30078 27.1992H18.1008M38.9008 23.9992H30.9008M38.9008 23.9992C40.1738 23.9992 41.3947 23.4935 42.2949 22.5933C43.1951 21.6932 43.7008 20.4723 43.7008 19.1992C43.7008 17.9262 43.1951 16.7053 42.2949 15.8051C41.3947 14.9049 40.1738 14.3992 38.9008 14.3992H30.9008V23.9992M38.9008 23.9992C40.1738 23.9992 41.3947 24.5049 42.2949 25.4051C43.1951 26.3053 43.7008 27.5262 43.7008 28.7992C43.7008 30.0723 43.1951 31.2932 42.2949 32.1933C41.3947 33.0935 40.1738 33.5992 38.9008 33.5992H30.9008V23.9992M24.5008 3.19922V44.7992" stroke="#00E980" stroke-width="3"/>
</svg>
