<svg width="49" height="48" viewBox="0 0 49 48" fill="none" xmlns="http://www.w3.org/2000/svg">
<path d="M15.5001 9.49888C15.3031 9.49888 15.108 9.53768 14.926 9.61306C14.744 9.68845 14.5787 9.79893 14.4394 9.93822C14.3001 10.0775 14.1896 10.2429 14.1142 10.4249C14.0389 10.6068 14.0001 10.8019 14.0001 10.9989C14.0001 11.1959 14.0389 11.3909 14.1142 11.5729C14.1896 11.7549 14.3001 11.9203 14.4394 12.0595C14.5787 12.1988 14.744 12.3093 14.926 12.3847C15.108 12.4601 15.3031 12.4989 15.5001 12.4989C15.8979 12.4989 16.2794 12.3408 16.5607 12.0595C16.842 11.7782 17.0001 11.3967 17.0001 10.9989C17.0001 10.6011 16.842 10.2195 16.5607 9.93822C16.2794 9.65692 15.8979 9.49888 15.5001 9.49888ZM11.0001 10.9989C11.0003 10.1739 11.2273 9.36495 11.6563 8.66031C12.0852 7.95567 12.6996 7.3825 13.4323 7.00344C14.165 6.62438 14.9878 6.45402 15.8108 6.51098C16.6337 6.56794 17.4252 6.85002 18.0987 7.3264C18.7722 7.80278 19.3018 8.45512 19.6295 9.21214C19.9573 9.96915 20.0707 10.8017 19.9573 11.6188C19.8439 12.4359 19.5081 13.2061 18.9866 13.8453C18.465 14.4844 17.7778 14.9679 17.0001 15.2429V23.0549C17.1734 22.9269 17.3534 22.8082 17.5401 22.6989C19.4381 21.5549 21.8701 21.2209 23.9361 20.9389L24.2941 20.8889C26.6161 20.5649 28.4981 20.2449 29.8481 19.3349C30.8581 18.6509 31.7221 17.5149 31.9441 15.2229C30.9482 14.8563 30.114 14.1495 29.5888 13.2275C29.0635 12.3054 28.881 11.2274 29.0734 10.1839C29.2659 9.14032 29.8209 8.19834 30.6405 7.52433C31.4601 6.85031 32.4916 6.48762 33.5527 6.50032C34.6137 6.51302 35.6362 6.90029 36.4394 7.59373C37.2427 8.28717 37.775 9.24216 37.9424 10.29C38.1099 11.3379 37.9016 12.4112 37.3544 13.3204C36.8072 14.2296 35.9564 14.9162 34.9521 15.2589C34.7001 18.4129 33.4761 20.5029 31.5281 21.8189C29.5021 23.1889 26.8841 23.5589 24.7081 23.8589L24.6581 23.8669C22.3181 24.1909 20.4441 24.4509 19.0861 25.2669C18.4561 25.6469 17.9621 26.1389 17.6121 26.8309C17.2521 27.5389 17.0001 28.5429 17.0001 29.9989V32.7549C18.0014 33.1087 18.8455 33.8052 19.383 34.7213C19.9205 35.6373 20.1168 36.7138 19.9373 37.7606C19.7578 38.8074 19.214 39.757 18.402 40.4416C17.59 41.1262 16.5621 41.5016 15.5001 41.5016C14.438 41.5016 13.4101 41.1262 12.5981 40.4416C11.7862 39.757 11.2423 38.8074 11.0628 37.7606C10.8833 36.7138 11.0797 35.6373 11.6172 34.7213C12.1546 33.8052 12.9987 33.1087 14.0001 32.7549V15.2429C13.1225 14.9326 12.3627 14.3578 11.8254 13.5978C11.2881 12.8377 10.9998 11.9297 11.0001 10.9989ZM33.5001 9.49888C33.3031 9.49888 33.108 9.53768 32.926 9.61306C32.744 9.68845 32.5787 9.79893 32.4394 9.93822C32.3001 10.0775 32.1896 10.2429 32.1142 10.4249C32.0389 10.6068 32.0001 10.8019 32.0001 10.9989C32.0001 11.1959 32.0389 11.3909 32.1142 11.5729C32.1896 11.7549 32.3001 11.9203 32.4394 12.0595C32.5787 12.1988 32.744 12.3093 32.926 12.3847C33.108 12.4601 33.3031 12.4989 33.5001 12.4989C33.8979 12.4989 34.2794 12.3408 34.5607 12.0595C34.842 11.7782 35.0001 11.3967 35.0001 10.9989C35.0001 10.6011 34.842 10.2195 34.5607 9.93822C34.2794 9.65692 33.8979 9.49888 33.5001 9.49888ZM15.5001 35.4989C15.1022 35.4989 14.7207 35.6569 14.4394 35.9382C14.1581 36.2195 14.0001 36.6011 14.0001 36.9989C14.0001 37.3967 14.1581 37.7782 14.4394 38.0595C14.7207 38.3408 15.1022 38.4989 15.5001 38.4989C15.8979 38.4989 16.2794 38.3408 16.5607 38.0595C16.842 37.7782 17.0001 37.3967 17.0001 36.9989C17.0001 36.6011 16.842 36.2195 16.5607 35.9382C16.2794 35.6569 15.8979 35.4989 15.5001 35.4989Z" fill="#00E980"/>
</svg>
