<svg width="43" height="43" viewBox="0 0 43 43" fill="none" xmlns="http://www.w3.org/2000/svg">
<path d="M1.5 21C1.5 13.458 1.5 9.686 3.844 7.344C6.188 5.002 9.958 5 17.5 5H25.5C33.042 5 36.814 5 39.156 7.344C41.498 9.688 41.5 13.458 41.5 21V25C41.5 32.542 41.5 36.314 39.156 38.656C36.812 40.998 33.042 41 25.5 41H17.5C9.958 41 6.186 41 3.844 38.656C1.502 36.312 1.5 32.542 1.5 25V21Z" stroke="#00E980" stroke-width="3"/>
<path d="M11.5 5V2M31.5 5V2M2.5 15H40.5" stroke="#00E980" stroke-width="3" stroke-linecap="round"/>
<path d="M33.5 31C33.5 31.5304 33.2893 32.0391 32.9142 32.4142C32.5391 32.7893 32.0304 33 31.5 33C30.9696 33 30.4609 32.7893 30.0858 32.4142C29.7107 32.0391 29.5 31.5304 29.5 31C29.5 30.4696 29.7107 29.9609 30.0858 29.5858C30.4609 29.2107 30.9696 29 31.5 29C32.0304 29 32.5391 29.2107 32.9142 29.5858C33.2893 29.9609 33.5 30.4696 33.5 31ZM33.5 23C33.5 23.5304 33.2893 24.0391 32.9142 24.4142C32.5391 24.7893 32.0304 25 31.5 25C30.9696 25 30.4609 24.7893 30.0858 24.4142C29.7107 24.0391 29.5 23.5304 29.5 23C29.5 22.4696 29.7107 21.9609 30.0858 21.5858C30.4609 21.2107 30.9696 21 31.5 21C32.0304 21 32.5391 21.2107 32.9142 21.5858C33.2893 21.9609 33.5 22.4696 33.5 23ZM23.5 31C23.5 31.5304 23.2893 32.0391 22.9142 32.4142C22.5391 32.7893 22.0304 33 21.5 33C20.9696 33 20.4609 32.7893 20.0858 32.4142C19.7107 32.0391 19.5 31.5304 19.5 31C19.5 30.4696 19.7107 29.9609 20.0858 29.5858C20.4609 29.2107 20.9696 29 21.5 29C22.0304 29 22.5391 29.2107 22.9142 29.5858C23.2893 29.9609 23.5 30.4696 23.5 31ZM23.5 23C23.5 23.5304 23.2893 24.0391 22.9142 24.4142C22.5391 24.7893 22.0304 25 21.5 25C20.9696 25 20.4609 24.7893 20.0858 24.4142C19.7107 24.0391 19.5 23.5304 19.5 23C19.5 22.4696 19.7107 21.9609 20.0858 21.5858C20.4609 21.2107 20.9696 21 21.5 21C22.0304 21 22.5391 21.2107 22.9142 21.5858C23.2893 21.9609 23.5 22.4696 23.5 23ZM13.5 31C13.5 31.5304 13.2893 32.0391 12.9142 32.4142C12.5391 32.7893 12.0304 33 11.5 33C10.9696 33 10.4609 32.7893 10.0858 32.4142C9.71071 32.0391 9.5 31.5304 9.5 31C9.5 30.4696 9.71071 29.9609 10.0858 29.5858C10.4609 29.2107 10.9696 29 11.5 29C12.0304 29 12.5391 29.2107 12.9142 29.5858C13.2893 29.9609 13.5 30.4696 13.5 31ZM13.5 23C13.5 23.5304 13.2893 24.0391 12.9142 24.4142C12.5391 24.7893 12.0304 25 11.5 25C10.9696 25 10.4609 24.7893 10.0858 24.4142C9.71071 24.0391 9.5 23.5304 9.5 23C9.5 22.4696 9.71071 21.9609 10.0858 21.5858C10.4609 21.2107 10.9696 21 11.5 21C12.0304 21 12.5391 21.2107 12.9142 21.5858C13.2893 21.9609 13.5 22.4696 13.5 23Z" fill="#00E980"/>
</svg>
