<svg width="25" height="25" viewBox="0 0 25 25" fill="none" xmlns="http://www.w3.org/2000/svg">
<path d="M10.986 17.2294C10.8547 17.2297 10.7247 17.204 10.6034 17.1539C10.482 17.1038 10.3718 17.0302 10.279 16.9374L6.03699 12.6944C5.94141 12.6022 5.86516 12.4919 5.81266 12.37C5.76017 12.248 5.73249 12.1168 5.73125 11.984C5.73 11.8512 5.75521 11.7196 5.8054 11.5966C5.8556 11.4737 5.92977 11.362 6.02359 11.268C6.11742 11.1741 6.22902 11.0997 6.35188 11.0494C6.47474 10.999 6.6064 10.9736 6.73918 10.9747C6.87196 10.9757 7.00319 11.0032 7.12523 11.0555C7.24727 11.1079 7.35767 11.184 7.44999 11.2794L10.985 14.8144L17.35 8.45141C17.5375 8.26377 17.7919 8.1583 18.0571 8.1582C18.3224 8.15811 18.5768 8.2634 18.7645 8.45091C18.9521 8.63841 19.0576 8.89278 19.0577 9.15805C19.0578 9.42332 18.9525 9.67777 18.765 9.86541L11.693 16.9374C11.6002 17.0302 11.4899 17.1038 11.3686 17.1539C11.2473 17.204 11.1173 17.2297 10.986 17.2294Z" fill="#25A249"/>
</svg>
