<svg width="24" height="24" viewBox="0 0 24 24" fill="none" xmlns="http://www.w3.org/2000/svg">
<path d="M13.314 12.0705L8.36396 7.12049C8.18181 6.93189 8.08101 6.67929 8.08329 6.41709C8.08557 6.1549 8.19074 5.90408 8.37615 5.71867C8.56155 5.53327 8.81237 5.4281 9.07456 5.42582C9.33676 5.42354 9.58936 5.52434 9.77796 5.70649L15.435 11.3635C15.6224 11.551 15.7278 11.8053 15.7278 12.0705C15.7278 12.3357 15.6224 12.59 15.435 12.7775L9.77796 18.4345C9.58936 18.6167 9.33676 18.7174 9.07456 18.7152C8.81237 18.7129 8.56155 18.6077 8.37615 18.4223C8.19074 18.2369 8.08557 17.9861 8.08329 17.7239C8.08101 17.4617 8.18181 17.2091 8.36396 17.0205L13.314 12.0705Z" fill="#00E980"/>
</svg>
