<svg width="24" height="24" viewBox="0 0 24 24" fill="none" xmlns="http://www.w3.org/2000/svg">
<path d="M2.85065 23.0498C2.32586 23.5746 1.47501 23.5746 0.950215 23.0498C0.425426 22.525 0.425426 21.6741 0.950216 21.1494L10.0996 12L0.950215 2.85065C0.425425 2.32586 0.425426 1.47501 0.950216 0.950217C1.47501 0.425427 2.32586 0.425426 2.85065 0.950216L12 10.0996L21.1493 0.950217C21.6741 0.425427 22.525 0.425426 23.0498 0.950216C23.5746 1.47501 23.5746 2.32586 23.0498 2.85065L13.9004 12L23.0498 21.1493C23.5746 21.6741 23.5746 22.525 23.0498 23.0498C22.525 23.5746 21.6741 23.5746 21.1493 23.0498L12 13.9004L2.85065 23.0498Z" fill="#FCFEFD"/>
</svg>
