<svg width="28" height="28" viewBox="0 0 28 28" fill="none" xmlns="http://www.w3.org/2000/svg">
<path d="M21.3406 9.09019C21.449 8.98172 21.5778 8.89567 21.7195 8.83697C21.8613 8.77826 22.0132 8.74805 22.1666 8.74805C22.32 8.74805 22.4719 8.77826 22.6136 8.83697C22.7553 8.89567 22.8841 8.98172 22.9926 9.09019C23.101 9.19866 23.1871 9.32743 23.2458 9.46916C23.3045 9.61088 23.3347 9.76278 23.3347 9.91619C23.3347 10.0696 23.3045 10.2215 23.2458 10.3632C23.1871 10.5049 23.101 10.6337 22.9926 10.7422L14.8259 18.9089C14.7175 19.0175 14.5888 19.1037 14.4471 19.1625C14.3053 19.2213 14.1534 19.2516 13.9999 19.2516C13.8465 19.2516 13.6945 19.2213 13.5528 19.1625C13.411 19.1037 13.2823 19.0175 13.1739 18.9089L5.00724 10.7422C4.89877 10.6337 4.81273 10.5049 4.75402 10.3632C4.69532 10.2215 4.6651 10.0696 4.6651 9.91619C4.6651 9.76278 4.69532 9.61088 4.75402 9.46916C4.81273 9.32743 4.89877 9.19866 5.00724 9.09019C5.11572 8.98172 5.24449 8.89567 5.38622 8.83697C5.52794 8.77826 5.67984 8.74805 5.83324 8.74805C5.98665 8.74805 6.13855 8.77826 6.28027 8.83697C6.422 8.89567 6.55077 8.98172 6.65924 9.09019L13.9999 16.4332L21.3406 9.09019Z" fill="#9EA4B4"/>
</svg>
