<svg width="62" height="62" viewBox="0 0 62 62" fill="none" xmlns="http://www.w3.org/2000/svg">
<g filter="url(#filter0_i_248_4500)">
<rect width="62" height="62" rx="31" fill="url(#paint0_linear_248_4500)" fill-opacity="0.5"/>
<rect x="0.25" y="0.25" width="61.5" height="61.5" rx="30.75" stroke="url(#paint1_linear_248_4500)" stroke-width="0.5"/>
<path d="M22.5773 35.3438H24.7683V32.4623C24.7683 31.9094 25.218 31.4599 25.7706 31.4599C26.0375 31.4599 26.289 31.5644 26.4788 31.7542C26.6671 31.9424 26.7709 32.1938 26.7709 32.4623V34.9124C26.9166 34.8295 27.0849 34.7819 27.2639 34.7819C27.5309 34.7819 27.7825 34.8864 27.9721 35.0761C27.9858 35.09 27.9992 35.1041 28.0121 35.1185C28.1954 34.9121 28.4624 34.7819 28.7592 34.7819C29.0277 34.7819 29.2799 34.8864 29.4695 35.0761C29.5485 35.1552 29.6105 35.2462 29.6583 35.3439H31.1549V28.083H22.5773V35.3438ZM42.97 24.0575V20.7301C42.97 19.2616 41.7754 18.0645 40.3044 18.0645H21.6957C20.2271 18.0645 19.03 19.2616 19.03 20.7301V24.0575H42.97ZM34.7054 21.0608H39.7093C39.8494 21.0608 39.963 21.1742 39.963 21.3144C39.963 21.4546 39.8494 21.5681 39.7093 21.5681H34.7054C34.5653 21.5681 34.4517 21.4546 34.4517 21.3144C34.4518 21.1743 34.5653 21.0608 34.7054 21.0608ZM29.4084 20.2358C30.0041 20.2358 30.4888 20.7205 30.4888 21.3162C30.4888 21.9099 30.0041 22.3931 29.4084 22.3931C28.8146 22.3931 28.3315 21.9099 28.3315 21.3162C28.3315 20.7205 28.8146 20.2358 29.4084 20.2358ZM26.2612 20.2358C26.8568 20.2358 27.3416 20.7205 27.3416 21.3162C27.3416 21.9099 26.8569 22.3931 26.2612 22.3931C25.6673 22.3931 25.1843 21.9099 25.1843 21.3162C25.1843 20.7205 25.6674 20.2358 26.2612 20.2358ZM23.114 20.2358C23.7096 20.2358 24.1944 20.7205 24.1944 21.3162C24.1944 21.9099 23.7097 22.3931 23.114 22.3931C22.5202 22.3931 22.0371 21.9099 22.0371 21.3162C22.0371 20.7205 22.5202 20.2358 23.114 20.2358Z" fill="#9EA4B4"/>
<path d="M30.2547 35.9233C29.9829 35.9233 29.7617 36.1455 29.7617 36.4185C29.7617 36.5586 29.6481 36.6721 29.5081 36.6721C29.368 36.6721 29.2544 36.5587 29.2544 36.4185V35.7839C29.2544 35.6511 29.2034 35.527 29.1108 35.4344C29.017 35.3405 28.8922 35.2887 28.7593 35.2887C28.4875 35.2887 28.2663 35.5109 28.2663 35.7839C28.2663 35.924 28.1527 36.0375 28.0127 36.0375C27.8726 36.0375 27.759 35.9241 27.759 35.7839C27.759 35.6526 27.7072 35.5285 27.6133 35.4344C27.5195 35.3405 27.3955 35.2887 27.264 35.2887C26.9922 35.2887 26.771 35.5109 26.771 35.7839C26.771 35.924 26.6574 36.0375 26.5174 36.0375C26.3773 36.0375 26.2637 35.9241 26.2637 35.7839V32.4619C26.2637 32.3292 26.2128 32.2051 26.1204 32.1124C26.0262 32.0185 25.9022 31.9668 25.7707 31.9668C25.4977 31.9668 25.2756 32.189 25.2756 32.4619V37.7129C25.2756 37.8154 25.2138 37.908 25.1191 37.9472C25.024 37.9866 24.9151 37.9648 24.8427 37.8922L24.039 37.0885C23.9216 36.9714 23.766 36.9067 23.6007 36.9067C23.4381 36.9067 23.2829 36.9716 23.1634 37.0898C22.9229 37.33 22.9229 37.7233 23.1645 37.9651L25.2014 40.004C25.249 40.0516 25.2756 40.1162 25.2756 40.1833C25.2756 40.8972 25.8564 41.478 26.5704 41.478H29.455C30.169 41.478 30.7498 40.8972 30.7498 40.1833V36.4185C30.7498 36.287 30.698 36.1629 30.6042 36.069C30.5103 35.9751 30.3863 35.9233 30.2547 35.9233Z" fill="#9EA4B4"/>
<path d="M19.03 24.5659V41.2675C19.03 42.7385 20.2271 43.9357 21.6957 43.9357H40.3045C41.7755 43.9357 42.9701 42.7386 42.9701 41.2675V24.5659H19.03ZM31.6622 35.5985C31.6622 35.7387 31.5487 35.8522 31.4086 35.8522H31.0784C31.1937 36.0183 31.257 36.2141 31.257 36.4199V40.1847C31.257 41.1781 30.4486 41.9866 29.455 41.9866H26.5703C25.613 41.9866 24.8276 41.2363 24.7715 40.2929L22.8057 38.325C22.3662 37.8854 22.3664 37.1703 22.8058 36.7312C23.0219 36.5177 23.3037 36.4007 23.6006 36.4007C23.9014 36.4007 24.1845 36.5181 24.3975 36.7312L24.7683 37.1019V35.8521H22.3236C22.1836 35.8521 22.07 35.7387 22.07 35.5985V27.8304C22.07 27.6902 22.1836 27.5767 22.3236 27.5767H31.4086C31.5487 27.5767 31.6622 27.6902 31.6622 27.8304V35.5985ZM39.6764 34.7633H34.3559C34.2159 34.7633 34.1023 34.6499 34.1023 34.5097C34.1023 34.3695 34.2159 34.2561 34.3559 34.2561H39.6764C39.8165 34.2561 39.9301 34.3695 39.9301 34.5097C39.9301 34.6499 39.8165 34.7633 39.6764 34.7633ZM39.6764 31.9682H34.3559C34.2159 31.9682 34.1023 31.8548 34.1023 31.7146C34.1023 31.5744 34.2159 31.4609 34.3559 31.4609H39.6764C39.8165 31.4609 39.9301 31.5743 39.9301 31.7146C39.9301 31.8548 39.8165 31.9682 39.6764 31.9682ZM39.6764 29.1731H34.3559C34.2159 29.1731 34.1023 29.0596 34.1023 28.9194C34.1023 28.7793 34.2159 28.6658 34.3559 28.6658H39.6764C39.8165 28.6658 39.9301 28.7792 39.9301 28.9194C39.9301 29.0596 39.8165 29.1731 39.6764 29.1731ZM29.4084 21.8869C29.7244 21.8869 29.9815 21.6313 29.9815 21.3173C29.9815 21.0012 29.7244 20.7441 29.4084 20.7441C29.0943 20.7441 28.8387 21.0012 28.8387 21.3173C28.8387 21.6313 29.0943 21.8869 29.4084 21.8869ZM23.114 21.8869C23.43 21.8869 23.6871 21.6313 23.6871 21.3173C23.6871 21.0012 23.43 20.7441 23.114 20.7441C22.7999 20.7441 22.5443 21.0012 22.5443 21.3173C22.5444 21.6313 22.8 21.8869 23.114 21.8869ZM26.2612 21.8869C26.5772 21.8869 26.8343 21.6313 26.8343 21.3173C26.8343 21.0012 26.5772 20.7441 26.2612 20.7441C25.9471 20.7441 25.6915 21.0012 25.6915 21.3173C25.6915 21.6313 25.9471 21.8869 26.2612 21.8869Z" fill="#9EA4B4"/>
</g>
<defs>
<filter id="filter0_i_248_4500" x="0" y="0" width="62" height="72" filterUnits="userSpaceOnUse" color-interpolation-filters="sRGB">
<feFlood flood-opacity="0" result="BackgroundImageFix"/>
<feBlend mode="normal" in="SourceGraphic" in2="BackgroundImageFix" result="shape"/>
<feColorMatrix in="SourceAlpha" type="matrix" values="0 0 0 0 0 0 0 0 0 0 0 0 0 0 0 0 0 0 127 0" result="hardAlpha"/>
<feOffset dy="10"/>
<feGaussianBlur stdDeviation="5"/>
<feComposite in2="hardAlpha" operator="arithmetic" k2="-1" k3="1"/>
<feColorMatrix type="matrix" values="0 0 0 0 0.905882 0 0 0 0 0.917647 0 0 0 0 0.933333 0 0 0 0.06 0"/>
<feBlend mode="normal" in2="shape" result="effect1_innerShadow_248_4500"/>
</filter>
<linearGradient id="paint0_linear_248_4500" x1="31" y1="0" x2="31" y2="62" gradientUnits="userSpaceOnUse">
<stop stop-color="#354B60"/>
<stop offset="1" stop-color="#202B37"/>
</linearGradient>
<linearGradient id="paint1_linear_248_4500" x1="45.6842" y1="1.91752" x2="-6.86092" y2="11.6272" gradientUnits="userSpaceOnUse">
<stop offset="0.0248008" stop-color="#526374"/>
<stop offset="0.924756" stop-color="#9ABADA" stop-opacity="0.4"/>
</linearGradient>
</defs>
</svg>
