<svg width="52" height="52" viewBox="0 0 52 52" fill="none" xmlns="http://www.w3.org/2000/svg">
<g filter="url(#filter0_i_248_4502)">
<rect width="52" height="52" rx="26" fill="url(#paint0_linear_248_4502)" fill-opacity="0.5"/>
<rect x="0.25" y="0.25" width="51.5" height="51.5" rx="25.75" stroke="url(#paint1_linear_248_4502)" stroke-width="0.5"/>
<path fill-rule="evenodd" clip-rule="evenodd" d="M14.3333 19C14.3333 18.0717 14.702 17.1815 15.3584 16.5251C16.0148 15.8687 16.905 15.5 17.8333 15.5H34.1666C35.0948 15.5 35.9851 15.8687 36.6415 16.5251C37.2978 17.1815 37.6666 18.0717 37.6666 19V33C37.6666 33.9283 37.2978 34.8185 36.6415 35.4749C35.9851 36.1313 35.0948 36.5 34.1666 36.5H17.8333C16.905 36.5 16.0148 36.1313 15.3584 35.4749C14.702 34.8185 14.3333 33.9283 14.3333 33V19ZM20.1666 20.1667C19.8572 20.1667 19.5604 20.2896 19.3416 20.5084C19.1228 20.7272 18.9999 21.0239 18.9999 21.3333C18.9999 21.6428 19.1228 21.9395 19.3416 22.1583C19.5604 22.3771 19.8572 22.5 20.1666 22.5H25.9999C26.3093 22.5 26.6061 22.3771 26.8249 22.1583C27.0437 21.9395 27.1666 21.6428 27.1666 21.3333C27.1666 21.0239 27.0437 20.7272 26.8249 20.5084C26.6061 20.2896 26.3093 20.1667 25.9999 20.1667H20.1666ZM29.4999 20.1667C29.1905 20.1667 28.8938 20.2896 28.675 20.5084C28.4562 20.7272 28.3333 21.0239 28.3333 21.3333C28.3333 21.6428 28.4562 21.9395 28.675 22.1583C28.8938 22.3771 29.1905 22.5 29.4999 22.5H31.8333C32.1427 22.5 32.4394 22.3771 32.6582 22.1583C32.877 21.9395 32.9999 21.6428 32.9999 21.3333C32.9999 21.0239 32.877 20.7272 32.6582 20.5084C32.4394 20.2896 32.1427 20.1667 31.8333 20.1667H29.4999ZM20.1666 24.8333C19.8572 24.8333 19.5604 24.9562 19.3416 25.175C19.1228 25.3938 18.9999 25.6906 18.9999 26C18.9999 26.3094 19.1228 26.6062 19.3416 26.825C19.5604 27.0437 19.8572 27.1667 20.1666 27.1667H21.3333C21.6427 27.1667 21.9394 27.0437 22.1582 26.825C22.377 26.6062 22.4999 26.3094 22.4999 26C22.4999 25.6906 22.377 25.3938 22.1582 25.175C21.9394 24.9562 21.6427 24.8333 21.3333 24.8333H20.1666ZM24.8333 24.8333C24.5238 24.8333 24.2271 24.9562 24.0083 25.175C23.7895 25.3938 23.6666 25.6906 23.6666 26C23.6666 26.3094 23.7895 26.6062 24.0083 26.825C24.2271 27.0437 24.5238 27.1667 24.8333 27.1667H31.8333C32.1427 27.1667 32.4394 27.0437 32.6582 26.825C32.877 26.6062 32.9999 26.3094 32.9999 26C32.9999 25.6906 32.877 25.3938 32.6582 25.175C32.4394 24.9562 32.1427 24.8333 31.8333 24.8333H24.8333ZM20.1666 29.5C19.8572 29.5 19.5604 29.6229 19.3416 29.8417C19.1228 30.0605 18.9999 30.3572 18.9999 30.6667C18.9999 30.9761 19.1228 31.2728 19.3416 31.4916C19.5604 31.7104 19.8572 31.8333 20.1666 31.8333H25.9999C26.3093 31.8333 26.6061 31.7104 26.8249 31.4916C27.0437 31.2728 27.1666 30.9761 27.1666 30.6667C27.1666 30.3572 27.0437 30.0605 26.8249 29.8417C26.6061 29.6229 26.3093 29.5 25.9999 29.5H20.1666ZM29.4999 29.5C29.1905 29.5 28.8938 29.6229 28.675 29.8417C28.4562 30.0605 28.3333 30.3572 28.3333 30.6667C28.3333 30.9761 28.4562 31.2728 28.675 31.4916C28.8938 31.7104 29.1905 31.8333 29.4999 31.8333H31.8333C32.1427 31.8333 32.4394 31.7104 32.6582 31.4916C32.877 31.2728 32.9999 30.9761 32.9999 30.6667C32.9999 30.3572 32.877 30.0605 32.6582 29.8417C32.4394 29.6229 32.1427 29.5 31.8333 29.5H29.4999Z" fill="#9EA4B4"/>
</g>
<defs>
<filter id="filter0_i_248_4502" x="0" y="0" width="52" height="62" filterUnits="userSpaceOnUse" color-interpolation-filters="sRGB">
<feFlood flood-opacity="0" result="BackgroundImageFix"/>
<feBlend mode="normal" in="SourceGraphic" in2="BackgroundImageFix" result="shape"/>
<feColorMatrix in="SourceAlpha" type="matrix" values="0 0 0 0 0 0 0 0 0 0 0 0 0 0 0 0 0 0 127 0" result="hardAlpha"/>
<feOffset dy="10"/>
<feGaussianBlur stdDeviation="5"/>
<feComposite in2="hardAlpha" operator="arithmetic" k2="-1" k3="1"/>
<feColorMatrix type="matrix" values="0 0 0 0 0.905882 0 0 0 0 0.917647 0 0 0 0 0.933333 0 0 0 0.06 0"/>
<feBlend mode="normal" in2="shape" result="effect1_innerShadow_248_4502"/>
</filter>
<linearGradient id="paint0_linear_248_4502" x1="26" y1="0" x2="26" y2="52" gradientUnits="userSpaceOnUse">
<stop stop-color="#354B60"/>
<stop offset="1" stop-color="#202B37"/>
</linearGradient>
<linearGradient id="paint1_linear_248_4502" x1="38.3158" y1="1.60824" x2="-5.75432" y2="9.75187" gradientUnits="userSpaceOnUse">
<stop offset="0.0248008" stop-color="#526374"/>
<stop offset="0.924756" stop-color="#9ABADA" stop-opacity="0.4"/>
</linearGradient>
</defs>
</svg>
