<svg width="72" height="72" viewBox="0 0 72 72" fill="none" xmlns="http://www.w3.org/2000/svg">
<g filter="url(#filter0_i_262_5614)">
<rect width="72" height="72" rx="36" fill="url(#paint0_linear_262_5614)" fill-opacity="0.5"/>
<rect x="0.25" y="0.25" width="71.5" height="71.5" rx="35.75" stroke="url(#paint1_linear_262_5614)" stroke-width="0.5"/>
<g clip-path="url(#clip0_262_5614)">
<path d="M49.5 18H22.5C20.0182 18 18 20.0182 18 22.5V49.5C18 51.9818 20.0182 54 22.5 54H49.5C51.9818 54 54 51.9818 54 49.5V22.5C54 20.0182 51.9818 18 49.5 18Z" fill="#1976D2"/>
<path fill-rule="evenodd" clip-rule="evenodd" d="M48.375 36H42.75V31.5C42.75 30.258 43.758 30.375 45 30.375H47.25V24.75H42.75C40.9598 24.75 39.2429 25.4612 37.977 26.727C36.7112 27.9929 36 29.7098 36 31.5V36H31.5V41.625H36V54H42.75V41.625H46.125L48.375 36Z" fill="#FAFAFA"/>
</g>
</g>
<defs>
<filter id="filter0_i_262_5614" x="0" y="0" width="72" height="82" filterUnits="userSpaceOnUse" color-interpolation-filters="sRGB">
<feFlood flood-opacity="0" result="BackgroundImageFix"/>
<feBlend mode="normal" in="SourceGraphic" in2="BackgroundImageFix" result="shape"/>
<feColorMatrix in="SourceAlpha" type="matrix" values="0 0 0 0 0 0 0 0 0 0 0 0 0 0 0 0 0 0 127 0" result="hardAlpha"/>
<feOffset dy="10"/>
<feGaussianBlur stdDeviation="5"/>
<feComposite in2="hardAlpha" operator="arithmetic" k2="-1" k3="1"/>
<feColorMatrix type="matrix" values="0 0 0 0 0.905882 0 0 0 0 0.917647 0 0 0 0 0.933333 0 0 0 0.06 0"/>
<feBlend mode="normal" in2="shape" result="effect1_innerShadow_262_5614"/>
</filter>
<linearGradient id="paint0_linear_262_5614" x1="36" y1="0" x2="36" y2="72" gradientUnits="userSpaceOnUse">
<stop stop-color="#354B60"/>
<stop offset="1" stop-color="#202B37"/>
</linearGradient>
<linearGradient id="paint1_linear_262_5614" x1="53.0526" y1="2.2268" x2="-7.96752" y2="13.5026" gradientUnits="userSpaceOnUse">
<stop offset="0.0248008" stop-color="#526374"/>
<stop offset="0.924756" stop-color="#9ABADA" stop-opacity="0.4"/>
</linearGradient>
<clipPath id="clip0_262_5614">
<rect width="36" height="36" fill="white" transform="translate(18 18)"/>
</clipPath>
</defs>
</svg>
