<svg width="37" height="25" viewBox="0 0 37 25" fill="none" xmlns="http://www.w3.org/2000/svg">
<path d="M20.3768 23.8525H18.4702V14.3195C19.6954 10.8329 20.3838 8.87854 21.5684 5.3823C25.511 4.57506 26.4828 5.59949 26.6329 9.31467L23.1771 20.0393C22.3836 22.3704 21.9814 23.7972 20.3768 23.8525Z" fill="#67EE9A"/>
<path d="M16.5497 23.8521H18.4702V14.3292L15.3494 5.40156C11.378 4.59517 10.3992 5.61851 10.248 9.32974L13.7289 20.043C14.5283 22.3716 14.9334 23.7968 16.5497 23.8521Z" fill="#67EE9A"/>
<path d="M15.4911 5.69457C16.362 8.18578 18.4702 14.2743 18.4702 14.2743V20.5303H16.504L11.6779 6.52871C12.3559 5.13515 13.2415 4.90296 15.4911 5.69457Z" fill="url(#paint0_linear_524_2348)"/>
<path d="M21.4493 5.69457C20.6331 8.20968 18.4949 14.2854 18.4702 14.2743V20.5303H20.4364L25.2625 6.52871C24.5845 5.13515 23.699 4.90296 21.4493 5.69457Z" fill="url(#paint1_linear_524_2348)"/>
<path d="M4.40902 24.5934H0L6.61353 2.72709C8.07895 -0.943874 13.1905 -0.874015 14.657 2.72709L16.087 7.43401C14.3948 4.97584 11.6693 5.57299 10.6651 9.22146L7.9839 18.397C6.9679 22.2416 6.41786 24.47 4.40902 24.5934Z" fill="#37E479"/>
<path d="M32.5314 24.6071L36.9404 24.6071L30.3269 2.73521C28.8615 -0.946685 23.7499 -0.876618 22.2834 2.73521L20.8535 7.46985C22.5456 5.00436 25.2712 5.58959 26.2754 9.24892L28.9565 18.4518L28.9915 18.5843C29.9854 22.3576 30.5457 24.4848 32.5314 24.6071Z" fill="#37E479"/>
<path d="M9.8309 7.43378L10.5459 9.69787L7.86472 18.8734C6.7587 23.2877 5.96707 24.6291 4.17067 24.5932H1.42993L6.55393 7.43378C7.2242 5.46606 9.14576 5.16669 9.8309 7.43378Z" fill="#6DF2A0"/>
<path d="M27.05 7.4289L26.335 9.69299L29.0161 18.8685C30.1222 23.2828 30.9138 24.6242 32.7102 24.5883H35.4509L30.3269 7.4289C29.6567 5.46118 27.7351 5.16181 27.05 7.4289Z" fill="#6DF2A0"/>
<defs>
<linearGradient id="paint0_linear_524_2348" x1="15.0741" y1="5.24316" x2="15.0741" y2="20.5303" gradientUnits="userSpaceOnUse">
<stop stop-color="#22BC5D"/>
<stop offset="1" stop-color="#67EE9A" stop-opacity="0.5"/>
</linearGradient>
<linearGradient id="paint1_linear_524_2348" x1="21.8664" y1="5.24316" x2="21.8664" y2="20.5303" gradientUnits="userSpaceOnUse">
<stop stop-color="#22BC5D"/>
<stop offset="1" stop-color="#67EE9A" stop-opacity="0.5"/>
</linearGradient>
</defs>
</svg>
