<svg width="60" height="60" viewBox="0 0 60 60" fill="none" xmlns="http://www.w3.org/2000/svg">
<g filter="url(#filter0_i_260_5184)">
<rect width="60" height="60" rx="30" fill="url(#paint0_linear_260_5184)" fill-opacity="0.5"/>
<rect x="0.25" y="0.25" width="59.5" height="59.5" rx="29.75" stroke="url(#paint1_linear_260_5184)" stroke-width="0.5"/>
<path d="M44.0625 24.9369C43.5154 24.9371 42.9802 25.0968 42.5225 25.3966C42.0648 25.6963 41.7045 26.123 41.4857 26.6244L39.5366 24.6782C39.501 24.2817 39.3812 23.8974 39.1853 23.5509C38.9894 23.2045 38.7218 22.9038 38.4004 22.6689L40.8067 21.7689C40.9481 22.2666 41.2243 22.7155 41.6048 23.0661C41.9853 23.4166 42.4554 23.6551 42.963 23.7552C43.4706 23.8553 43.9959 23.8131 44.4811 23.6332C44.9662 23.4534 45.3921 23.1429 45.7118 22.7361C46.0315 22.3294 46.2325 21.8421 46.2925 21.3282C46.3526 20.8143 46.2694 20.2939 46.0522 19.8243C45.8349 19.3548 45.4921 18.9544 45.0615 18.6675C44.631 18.3807 44.1295 18.2184 43.6125 18.1987L39.5169 17.1744C39.44 16.6962 39.2407 16.2459 38.9383 15.8675C38.6359 15.4891 38.2407 15.1954 37.7912 15.0149C37.3416 14.8344 36.8531 14.7733 36.3729 14.8375C35.8928 14.9017 35.4375 15.089 35.0512 15.3813C34.6649 15.6736 34.3608 16.0608 34.1684 16.5054C33.9761 16.95 33.9021 17.4368 33.9535 17.9185C34.005 18.4001 34.1802 18.8603 34.4622 19.2542C34.7441 19.6481 35.1232 19.9623 35.5625 20.1664L32.6032 22.7539C32.4292 22.3247 32.1519 21.9451 31.7958 21.6488C31.4398 21.3526 31.0162 21.1488 30.5625 21.0557V18.6932C31.2454 18.5538 31.8522 18.1658 32.2653 17.6044C32.6784 17.043 32.8683 16.3483 32.7982 15.6548C32.7282 14.9614 32.4031 14.3186 31.8861 13.8512C31.3691 13.3838 30.697 13.125 30 13.125C29.303 13.125 28.6308 13.3838 28.1138 13.8512C27.5968 14.3186 27.2718 14.9614 27.2017 15.6548C27.1317 16.3483 27.3216 17.043 27.7347 17.6044C28.1478 18.1658 28.7546 18.5538 29.4375 18.6932V21.0557C28.9837 21.1489 28.56 21.3527 28.204 21.6491C27.848 21.9454 27.5707 22.3251 27.3967 22.7544L24.4374 20.1669C24.8767 19.9629 25.2558 19.6486 25.5377 19.2548C25.8196 18.8609 25.9948 18.4008 26.0463 17.9191C26.0978 17.4375 26.0238 16.9508 25.8315 16.5062C25.6392 16.0616 25.3351 15.6744 24.9489 15.3821C24.5627 15.0898 24.1074 14.9024 23.6273 14.8381C23.1472 14.7739 22.6586 14.8349 22.2091 15.0153C21.7596 15.1957 21.3644 15.4894 21.0619 15.8677C20.7595 16.2461 20.56 16.6962 20.483 17.1744L16.3875 18.1987C15.8731 18.218 15.3738 18.3783 14.9444 18.6621C14.515 18.946 14.1718 19.3424 13.9525 19.8081C13.7332 20.2739 13.6462 20.7909 13.7009 21.3028C13.7556 21.8146 13.9501 22.3016 14.2629 22.7104C14.5758 23.1192 14.995 23.4341 15.4747 23.6207C15.9545 23.8073 16.4763 23.8584 16.9832 23.7684C17.49 23.6784 17.9624 23.4508 18.3486 23.1105C18.7348 22.7702 19.02 22.3302 19.173 21.8387L21.752 23.1279C21.3952 23.3548 21.0945 23.6596 20.8723 24.0194C20.6502 24.3791 20.5125 24.7846 20.4695 25.2052L18.557 26.7358C18.3122 26.0884 17.8383 25.5533 17.2252 25.232C16.6121 24.9108 15.9024 24.8256 15.2307 24.9928C14.559 25.1599 13.972 25.5677 13.5809 26.1389C13.1899 26.71 13.022 27.4048 13.1092 28.0915C13.1963 28.7781 13.5323 29.409 14.0536 29.8644C14.5749 30.3198 15.2452 30.568 15.9373 30.5621C16.6295 30.5562 17.2954 30.2966 17.8089 29.8324C18.3223 29.3682 18.6476 28.7317 18.723 28.0436L20.6355 26.5131C20.7787 26.8814 20.998 27.2154 21.2791 27.4932C21.5602 27.771 21.8967 27.9863 22.2667 28.1252L21.2599 29.4673C20.5814 29.5378 19.9521 29.8536 19.4901 30.3554C19.0282 30.8572 18.7654 31.5105 18.7512 32.1924C18.7369 32.8743 18.9722 33.5379 19.4129 34.0586C19.8535 34.5792 20.4691 34.921 21.144 35.0197L22.719 39.7397L22.7336 39.7352C22.8335 40.7235 23.134 41.6811 23.6168 42.5493C24.0997 43.4175 24.7546 44.1779 25.5416 44.7842C25.6337 44.1588 25.9344 43.5829 26.3948 43.1499C26.8553 42.7168 27.4486 42.4521 28.0785 42.3986C27.8717 42.0574 27.7594 41.6673 27.7531 41.2683C27.7467 40.8694 27.8466 40.4759 28.0424 40.1283C28.2383 39.7807 28.523 39.4914 28.8675 39.2901C29.212 39.0887 29.6038 38.9826 30.0028 38.9826C30.4018 38.9826 30.7936 39.0887 31.1381 39.2901C31.4826 39.4914 31.7673 39.7807 31.9631 40.1283C32.159 40.4759 32.2588 40.8694 32.2525 41.2683C32.2462 41.6673 32.1339 42.0574 31.9271 42.3986C32.5569 42.4521 33.1502 42.7168 33.6107 43.1499C34.0712 43.5829 34.3719 44.1588 34.464 44.7842C35.251 44.1779 35.9059 43.4175 36.3887 42.5493C36.8716 41.6811 37.1721 40.7235 37.272 39.7352L37.2866 39.7397L38.8616 35.0197C39.5334 34.9214 40.1466 34.5822 40.5869 34.0654C41.0272 33.5485 41.2645 32.8891 41.2546 32.2102C41.2448 31.5313 40.9885 30.8791 40.5334 30.3752C40.0783 29.8713 39.4556 29.55 38.7812 29.4712L37.65 27.5897C38.0202 27.4654 38.3605 27.2654 38.6492 27.0024C38.9379 26.7393 39.1687 26.419 39.3268 26.0619L41.2759 28.011C41.3279 28.5522 41.536 29.0667 41.875 29.4919C42.214 29.917 42.6692 30.2345 43.1853 30.4057C43.7014 30.5769 44.2562 30.5945 44.782 30.4562C45.3079 30.318 45.7823 30.0299 46.1475 29.6271C46.5127 29.2242 46.753 28.7239 46.8391 28.187C46.9252 27.6501 46.8534 27.0998 46.6326 26.6029C46.4117 26.106 46.0512 25.6841 45.5949 25.3883C45.1386 25.0925 44.6062 24.9357 44.0625 24.9369ZM36.4125 27.7151L37.5375 29.5967C36.9671 29.7863 36.473 30.1546 36.1285 30.6471C35.7839 31.1396 35.6072 31.73 35.6246 32.3308C35.6419 32.9317 35.8524 33.5109 36.2248 33.9826C36.5973 34.4544 37.1118 34.7936 37.6922 34.95L37.0172 36.9699C36.5782 35.4469 35.656 34.1079 34.3895 33.1549C33.1231 32.2019 31.581 31.6865 29.996 31.6865C28.411 31.6865 26.869 32.2019 25.6025 33.1549C24.3361 34.1079 23.4138 35.4469 22.9749 36.9699L22.2999 34.95C22.8728 34.7953 23.3817 34.4625 23.7531 33.9996C24.1245 33.5367 24.3391 32.9678 24.366 32.375C24.3928 31.7821 24.2305 31.1961 23.9025 30.7016C23.5745 30.207 23.0978 29.8296 22.5412 29.6237L23.5481 28.2816C24.2482 28.2095 24.8954 27.8763 25.3608 27.3484C25.8262 26.8204 26.0756 26.1365 26.0593 25.4329C26.0429 24.7293 25.7621 24.0577 25.2727 23.5519C24.7834 23.0462 24.1214 22.7433 23.4187 22.7038L19.2776 20.6332C19.1882 19.9485 18.8478 19.3214 18.3225 18.8732L20.5348 18.3202C20.6791 18.8828 20.9949 19.3865 21.4384 19.7614C21.8819 20.1364 22.4311 20.364 23.0098 20.4127L27.2156 24.0932C27.281 24.7863 27.6027 25.4302 28.1176 25.8988C28.6325 26.3674 29.3037 26.6271 30 26.6271C30.6962 26.6271 31.3674 26.3674 31.8824 25.8988C32.3973 25.4302 32.7189 24.7863 32.7844 24.0932L36.989 20.4139C37.5678 20.3652 38.117 20.1375 38.5605 19.7626C39.004 19.3876 39.3198 18.8839 39.464 18.3214L41.6764 18.8743C41.1617 19.314 40.8245 19.9257 40.7274 20.5956L36.6088 22.1396C35.9058 22.1707 35.2402 22.4654 34.7447 22.9651C34.2492 23.4647 33.9601 24.1327 33.935 24.836C33.9099 25.5393 34.1506 26.2262 34.6092 26.7599C35.0678 27.2937 35.7106 27.6351 36.4097 27.7162L36.4125 27.7151Z" fill="#0DB368"/>
<path d="M26.0625 45.75V46.875H33.9375V45.75C33.9375 45.1533 33.7004 44.581 33.2785 44.159C32.8565 43.7371 32.2842 43.5 31.6875 43.5H28.3125C27.7158 43.5 27.1435 43.7371 26.7215 44.159C26.2996 44.581 26.0625 45.1533 26.0625 45.75Z" fill="#0DB368"/>
<path d="M30 42.375C30.6213 42.375 31.125 41.8713 31.125 41.25C31.125 40.6287 30.6213 40.125 30 40.125C29.3787 40.125 28.875 40.6287 28.875 41.25C28.875 41.8713 29.3787 42.375 30 42.375Z" fill="#0DB368"/>
</g>
<defs>
<filter id="filter0_i_260_5184" x="0" y="0" width="60" height="70" filterUnits="userSpaceOnUse" color-interpolation-filters="sRGB">
<feFlood flood-opacity="0" result="BackgroundImageFix"/>
<feBlend mode="normal" in="SourceGraphic" in2="BackgroundImageFix" result="shape"/>
<feColorMatrix in="SourceAlpha" type="matrix" values="0 0 0 0 0 0 0 0 0 0 0 0 0 0 0 0 0 0 127 0" result="hardAlpha"/>
<feOffset dy="10"/>
<feGaussianBlur stdDeviation="5"/>
<feComposite in2="hardAlpha" operator="arithmetic" k2="-1" k3="1"/>
<feColorMatrix type="matrix" values="0 0 0 0 1 0 0 0 0 1 0 0 0 0 1 0 0 0 0.4 0"/>
<feBlend mode="normal" in2="shape" result="effect1_innerShadow_260_5184"/>
</filter>
<linearGradient id="paint0_linear_260_5184" x1="30" y1="0" x2="30" y2="60" gradientUnits="userSpaceOnUse">
<stop stop-color="#E7EAEE"/>
<stop offset="1" stop-color="#9EA4B4" stop-opacity="0.2"/>
</linearGradient>
<linearGradient id="paint1_linear_260_5184" x1="44.2105" y1="1.85566" x2="-6.6396" y2="11.2522" gradientUnits="userSpaceOnUse">
<stop offset="0.0248008" stop-color="#E7EAEE"/>
<stop offset="0.924756" stop-color="#9EA4B4" stop-opacity="0.2"/>
</linearGradient>
</defs>
</svg>
