<svg width="108" height="109" viewBox="0 0 108 109" fill="none" xmlns="http://www.w3.org/2000/svg">
<g filter="url(#filter0_i_257_4687)">
<rect y="0.144531" width="108" height="108" rx="54" fill="url(#paint0_linear_257_4687)" fill-opacity="0.5"/>
<rect x="0.25" y="0.394531" width="107.5" height="107.5" rx="53.75" stroke="url(#paint1_linear_257_4687)" stroke-width="0.5"/>
<path d="M58.875 30.582H44.25C43.3525 30.582 42.625 31.3096 42.625 32.207V35.457C42.625 36.3545 43.3525 37.082 44.25 37.082H58.875C59.7725 37.082 60.5 36.3545 60.5 35.457V32.207C60.5 31.3096 59.7725 30.582 58.875 30.582Z" fill="#0DB368"/>
<path d="M67 44.3945C65.6129 44.3945 64.2394 44.6677 62.9579 45.1985C61.6763 45.7293 60.5119 46.5073 59.5311 47.4881C58.5503 48.469 57.7722 49.6334 57.2414 50.9149C56.7106 52.1964 56.4375 53.5699 56.4375 54.957C57.0051 68.9743 77.014 68.9539 77.5625 54.9569C77.5595 52.1565 76.4457 49.4717 74.4655 47.4915C72.4853 45.5113 69.8004 44.3975 67 44.3945ZM71.8019 54.0714L66.9269 58.9464C66.7771 59.098 66.5987 59.2184 66.402 59.3005C66.2054 59.3826 65.9944 59.4249 65.7813 59.4249C65.5682 59.4249 65.3572 59.3826 65.1605 59.3005C64.9639 59.2184 64.7855 59.098 64.6357 58.9464L62.1982 56.5089C61.9009 56.2037 61.7357 55.7937 61.7385 55.3677C61.7413 54.9416 61.9117 54.5338 62.213 54.2325C62.5143 53.9313 62.9221 53.7608 63.3481 53.758C63.7742 53.7552 64.1842 53.9204 64.4894 54.2177L65.7812 55.5014L69.5106 51.7802C69.8156 51.4818 70.2259 51.3157 70.6526 51.3181C71.0792 51.3204 71.4877 51.4909 71.7894 51.7926C72.0911 52.0943 72.2616 52.5028 72.264 52.9294C72.2663 53.3561 72.1003 53.7664 71.8019 54.0714Z" fill="#0DB368"/>
<path d="M32.0625 77.707H71.0625C71.4931 77.7058 71.9057 77.5342 72.2101 77.2297C72.5146 76.9252 72.6862 76.5126 72.6875 76.082V64.7931C65.3346 69.2318 55.5067 63.5786 55.6251 54.9569C55.4636 46.3695 65.3675 40.667 72.6875 45.1173V35.457C72.6862 35.0264 72.5146 34.6138 72.2102 34.3094C71.9057 34.0049 71.4931 33.8333 71.0625 33.832H61.3125V35.457C61.3118 36.1033 61.0548 36.7229 60.5978 37.1798C60.1408 37.6368 59.5212 37.8938 58.875 37.8945H44.25C43.6038 37.8938 42.9842 37.6368 42.5272 37.1798C42.0702 36.7229 41.8132 36.1033 41.8125 35.457V33.832H32.0625C31.6319 33.8333 31.2193 34.0049 30.9148 34.3094C30.6104 34.6138 30.4388 35.0264 30.4375 35.457V76.082C30.4388 76.5126 30.6104 76.9252 30.9149 77.2297C31.2193 77.5342 31.6319 77.7058 32.0625 77.707ZM35.3125 46.832C35.3138 46.4014 35.4854 45.9888 35.7898 45.6844C36.0943 45.3799 36.5069 45.2083 36.9375 45.207H49.9375C50.3681 45.2083 50.7807 45.3799 51.0852 45.6844C51.3896 45.9888 51.5612 46.4014 51.5625 46.832V47.6445C51.5612 48.0751 51.3896 48.4877 51.0851 48.7922C50.7807 49.0967 50.3681 49.2683 49.9375 49.2695H36.9375C36.5069 49.2683 36.0943 49.0967 35.7899 48.7922C35.4854 48.4877 35.3138 48.0751 35.3125 47.6445V46.832ZM35.3125 54.957C35.3138 54.5264 35.4854 54.1138 35.7898 53.8094C36.0943 53.5049 36.5069 53.3333 36.9375 53.332H49.9375C50.3681 53.3333 50.7807 53.5049 51.0852 53.8094C51.3896 54.1138 51.5612 54.5264 51.5625 54.957V55.7695C51.5612 56.2001 51.3896 56.6127 51.0851 56.9172C50.7807 57.2217 50.3681 57.3933 49.9375 57.3945H36.9375C36.5069 57.3933 36.0943 57.2217 35.7899 56.9172C35.4854 56.6127 35.3138 56.2001 35.3125 55.7695V54.957ZM35.3125 63.082C35.3138 62.6514 35.4854 62.2388 35.7898 61.9344C36.0943 61.6299 36.5069 61.4583 36.9375 61.457H49.9375C50.3681 61.4583 50.7807 61.6299 51.0852 61.9344C51.3896 62.2388 51.5612 62.6514 51.5625 63.082V63.8945C51.5612 64.3251 51.3896 64.7377 51.0851 65.0422C50.7807 65.3467 50.3681 65.5183 49.9375 65.5195H36.9375C36.5069 65.5183 36.0943 65.3467 35.7899 65.0422C35.4854 64.7377 35.3138 64.3251 35.3125 63.8945V63.082Z" fill="#0DB368"/>
</g>
<defs>
<filter id="filter0_i_257_4687" x="0" y="0.144531" width="108" height="118" filterUnits="userSpaceOnUse" color-interpolation-filters="sRGB">
<feFlood flood-opacity="0" result="BackgroundImageFix"/>
<feBlend mode="normal" in="SourceGraphic" in2="BackgroundImageFix" result="shape"/>
<feColorMatrix in="SourceAlpha" type="matrix" values="0 0 0 0 0 0 0 0 0 0 0 0 0 0 0 0 0 0 127 0" result="hardAlpha"/>
<feOffset dy="10"/>
<feGaussianBlur stdDeviation="5"/>
<feComposite in2="hardAlpha" operator="arithmetic" k2="-1" k3="1"/>
<feColorMatrix type="matrix" values="0 0 0 0 1 0 0 0 0 1 0 0 0 0 1 0 0 0 0.4 0"/>
<feBlend mode="normal" in2="shape" result="effect1_innerShadow_257_4687"/>
</filter>
<linearGradient id="paint0_linear_257_4687" x1="54" y1="0.144531" x2="54" y2="108.145" gradientUnits="userSpaceOnUse">
<stop stop-color="#E7EAEE"/>
<stop offset="1" stop-color="#9EA4B4" stop-opacity="0.2"/>
</linearGradient>
<linearGradient id="paint1_linear_257_4687" x1="79.5789" y1="3.48472" x2="-11.9513" y2="20.3984" gradientUnits="userSpaceOnUse">
<stop offset="0.0248008" stop-color="#E7EAEE"/>
<stop offset="0.924756" stop-color="#9EA4B4" stop-opacity="0.2"/>
</linearGradient>
</defs>
</svg>
