<svg width="60" height="60" viewBox="0 0 60 60" fill="none" xmlns="http://www.w3.org/2000/svg">
<g filter="url(#filter0_i_260_5198)">
<rect width="60" height="60" rx="30" fill="url(#paint0_linear_260_5198)" fill-opacity="0.5"/>
<rect x="0.25" y="0.25" width="59.5" height="59.5" rx="29.75" stroke="url(#paint1_linear_260_5198)" stroke-width="0.5"/>
<path d="M32.1575 23.7446C32.0755 23.7305 31.9914 23.7335 31.9105 23.7534C31.8296 23.7733 31.7538 23.8097 31.6876 23.8603V21.9849H33.946C34.0196 21.9844 34.0923 21.9694 34.1601 21.9408C34.2278 21.9121 34.2892 21.8703 34.3407 21.8177C34.3922 21.7652 34.4328 21.703 34.4601 21.6347C34.4875 21.5664 34.5011 21.4934 34.5001 21.4199V17.1181C34.8037 17.0212 35.0808 16.8556 35.3099 16.6341C35.5792 16.3637 35.7623 16.0197 35.8362 15.6453C35.9101 15.2709 35.8714 14.8831 35.725 14.5307C35.5786 14.1783 35.3311 13.8772 35.0137 13.6654C34.6963 13.4535 34.3233 13.3405 33.9417 13.3405C33.5602 13.3405 33.1871 13.4535 32.8698 13.6654C32.5524 13.8772 32.3049 14.1783 32.1585 14.5307C32.0121 14.8831 31.9734 15.2709 32.0473 15.6453C32.1211 16.0197 32.3043 16.3637 32.5735 16.6341C32.7996 16.8553 33.074 17.021 33.3751 17.1181V20.8599H31.1507C30.9991 20.8584 30.8529 20.916 30.7431 21.0206C30.6333 21.1251 30.5685 21.2684 30.5626 21.4199V27.7607C30.5626 27.9099 30.6218 28.053 30.7273 28.1585C30.8328 28.2639 30.9759 28.3232 31.1251 28.3232C31.2743 28.3232 31.4173 28.2639 31.5228 28.1585C31.6283 28.053 31.6876 27.9099 31.6876 27.7607V24.7351C31.7647 24.7938 31.8547 24.8333 31.9501 24.8503C32.9017 25.0281 33.8244 25.3356 34.6923 25.7644L32.8207 27.6531C32.5572 27.9207 32.374 28.2567 32.2917 28.6231C32.2094 28.9895 32.2313 29.3716 32.355 29.7262L33.6774 33.4829C33.7444 33.674 33.7432 33.8824 33.674 34.0727C33.6047 34.263 33.4718 34.4235 33.2977 34.5269L31.9179 35.3425C31.5968 35.5307 31.335 35.8053 31.1623 36.1349C30.9895 36.4645 30.9127 36.836 30.9405 37.2071C30.9412 37.2165 30.9421 37.2261 30.9433 37.2355L31.2415 39.6622C31.303 40.1697 31.5573 40.6341 31.9517 40.9594L35.7657 44.1155C34.5889 44.8821 33.2711 45.4066 31.8893 45.6581C30.5076 45.9096 29.0895 45.8832 27.718 45.5804L29.5682 43.9215C29.7941 43.7201 29.9711 43.4697 30.0857 43.1896C30.2002 42.9094 30.2493 42.6067 30.2291 42.3047L29.8746 36.7538C29.8732 36.7326 29.8707 36.7115 29.8669 36.6905C29.8216 36.4334 29.726 36.1877 29.5857 35.9675C29.4454 35.7472 29.263 35.5568 29.0491 35.4071L28.1192 34.7527C27.8883 34.5904 27.6258 34.4787 27.3488 34.425C27.0718 34.3713 26.7866 34.3767 26.5119 34.441L25.4279 34.6949C25.2823 34.729 25.1304 34.7252 24.9867 34.6838C24.8429 34.6425 24.7122 34.565 24.6069 34.4588C24.5016 34.3526 24.4253 34.2211 24.3852 34.077C24.3452 33.9329 24.3427 33.781 24.378 33.6357L24.5655 32.8651C24.6592 32.4731 24.633 32.0621 24.4904 31.6851C24.3477 31.3082 24.0952 30.9828 23.7654 30.7511C22.542 29.8998 21.7967 29.4537 21.3132 29.2194C22.3921 27.6393 23.8909 26.3919 25.6407 25.6179V27.7607C25.6407 27.9099 25.7 28.053 25.8055 28.1585C25.9109 28.2639 26.054 28.3232 26.2032 28.3232C26.3524 28.3232 26.4955 28.2639 26.601 28.1585C26.7064 28.053 26.7657 27.9099 26.7657 27.7607V21.4199C26.7598 21.2684 26.695 21.1251 26.5852 21.0206C26.4754 20.916 26.3292 20.8584 26.1776 20.8599H23.9532V17.1181C24.2543 17.0211 24.5287 16.8554 24.7548 16.6341C25.0258 16.3635 25.2105 16.0185 25.2854 15.6429C25.3604 15.2673 25.3222 14.8779 25.1758 14.5239C25.0293 14.17 24.7812 13.8675 24.4628 13.6546C24.1443 13.4417 23.7699 13.3281 23.3869 13.3281C23.0038 13.3281 22.6294 13.4417 22.311 13.6546C21.9926 13.8675 21.7444 14.17 21.598 14.5239C21.4515 14.8779 21.4134 15.2673 21.4883 15.6429C21.5632 16.0185 21.7479 16.3635 22.019 16.6341C22.2479 16.8555 22.5248 17.0211 22.8282 17.1181V21.4199C22.8272 21.4934 22.8408 21.5664 22.8681 21.6347C22.8955 21.703 22.9361 21.7652 22.9876 21.8177C23.0391 21.8703 23.1005 21.9121 23.1682 21.9408C23.236 21.9694 23.3087 21.9844 23.3823 21.9849H25.6407V24.4079C25.5941 24.4111 25.5486 24.4231 25.5064 24.4431C23.3713 25.3295 21.547 26.8294 20.2645 28.7528C18.9819 30.6763 18.2987 32.937 18.3013 35.2489C18.3013 40.3817 21.6196 44.7536 26.226 46.3284C26.3197 46.3961 26.4321 46.433 26.5477 46.4339C28.2759 46.9674 30.1042 47.0927 31.889 46.8C33.6738 46.5072 35.3663 45.8045 36.8335 44.7469C36.9234 44.7327 37.0085 44.6965 37.0812 44.6416C37.1538 44.5867 37.2118 44.5147 37.2501 44.4321C39.0125 43.0397 40.3372 41.1696 41.0658 39.045C41.7945 36.9204 41.8965 34.631 41.3596 32.45C40.8228 30.269 39.6697 28.2885 38.038 26.7449C36.4063 25.2014 34.365 24.1599 32.1575 23.7447V23.7446Z" fill="#0DB368"/>
<path d="M28.6642 28.3234C28.8134 28.3234 28.9565 28.2642 29.062 28.1587C29.1675 28.0532 29.2267 27.9101 29.2267 27.7609V16.8084C29.6709 16.6735 30.0519 16.3836 30.3002 15.9913C30.5485 15.599 30.6476 15.1306 30.5794 14.6714C30.5113 14.2122 30.2804 13.7928 29.9288 13.4895C29.5773 13.1863 29.1285 13.0195 28.6642 13.0195C28.2 13.0195 27.7512 13.1863 27.3996 13.4895C27.0481 13.7928 26.8172 14.2122 26.749 14.6714C26.6808 15.1306 26.7799 15.599 27.0282 15.9913C27.2765 16.3836 27.6575 16.6735 28.1017 16.8084V27.7609C28.1017 27.9101 28.161 28.0532 28.2665 28.1587C28.372 28.2642 28.515 28.3234 28.6642 28.3234Z" fill="#0DB368"/>
</g>
<defs>
<filter id="filter0_i_260_5198" x="0" y="0" width="60" height="70" filterUnits="userSpaceOnUse" color-interpolation-filters="sRGB">
<feFlood flood-opacity="0" result="BackgroundImageFix"/>
<feBlend mode="normal" in="SourceGraphic" in2="BackgroundImageFix" result="shape"/>
<feColorMatrix in="SourceAlpha" type="matrix" values="0 0 0 0 0 0 0 0 0 0 0 0 0 0 0 0 0 0 127 0" result="hardAlpha"/>
<feOffset dy="10"/>
<feGaussianBlur stdDeviation="5"/>
<feComposite in2="hardAlpha" operator="arithmetic" k2="-1" k3="1"/>
<feColorMatrix type="matrix" values="0 0 0 0 1 0 0 0 0 1 0 0 0 0 1 0 0 0 0.4 0"/>
<feBlend mode="normal" in2="shape" result="effect1_innerShadow_260_5198"/>
</filter>
<linearGradient id="paint0_linear_260_5198" x1="30" y1="0" x2="30" y2="60" gradientUnits="userSpaceOnUse">
<stop stop-color="#E7EAEE"/>
<stop offset="1" stop-color="#9EA4B4" stop-opacity="0.2"/>
</linearGradient>
<linearGradient id="paint1_linear_260_5198" x1="44.2105" y1="1.85566" x2="-6.6396" y2="11.2522" gradientUnits="userSpaceOnUse">
<stop offset="0.0248008" stop-color="#E7EAEE"/>
<stop offset="0.924756" stop-color="#9EA4B4" stop-opacity="0.2"/>
</linearGradient>
</defs>
</svg>
