<svg width="136" height="40" viewBox="0 0 136 40" fill="none" xmlns="http://www.w3.org/2000/svg">
<g clip-path="url(#clip0_454_2109)">
<path d="M130.664 0H5.66406C2.90264 0 0.664062 2.23858 0.664062 5V35C0.664062 37.7614 2.90264 40 5.66406 40H130.664C133.425 40 135.664 37.7614 135.664 35V5C135.664 2.23858 133.425 0 130.664 0Z" fill="black"/>
<path d="M130.664 0.8C131.778 0.8 132.846 1.2425 133.634 2.03015C134.422 2.8178 134.864 3.88609 134.864 5V35C134.864 36.1139 134.422 37.1822 133.634 37.9698C132.846 38.7575 131.778 39.2 130.664 39.2H5.66406C4.55015 39.2 3.48187 38.7575 2.69421 37.9698C1.90656 37.1822 1.46406 36.1139 1.46406 35V5C1.46406 3.88609 1.90656 2.8178 2.69421 2.03015C3.48187 1.2425 4.55015 0.8 5.66406 0.8H130.664ZM130.664 0H5.66406C4.33798 0 3.06621 0.526784 2.12853 1.46447C1.19085 2.40215 0.664063 3.67392 0.664062 5V35C0.664063 36.3261 1.19085 37.5979 2.12853 38.5355C3.06621 39.4732 4.33798 40 5.66406 40H130.664C131.99 40 133.262 39.4732 134.2 38.5355C135.137 37.5979 135.664 36.3261 135.664 35V5C135.664 3.67392 135.137 2.40215 134.2 1.46447C133.262 0.526784 131.99 0 130.664 0Z" fill="#A6A6A6"/>
<path d="M45.1175 10.4868H47.1512V13.396C46.8347 13.497 46.5128 13.5734 46.1855 13.6252C45.8582 13.677 45.479 13.7029 45.048 13.7029C44.1423 13.7029 43.4372 13.4342 42.9325 12.8968C42.4279 12.3567 42.1755 11.6011 42.1755 10.63C42.1755 10.008 42.2997 9.46383 42.5479 8.99736C42.7989 8.52817 43.1589 8.17082 43.6281 7.92531C44.0973 7.67708 44.647 7.55296 45.2771 7.55296C45.9154 7.55296 46.5101 7.67026 47.0611 7.90485L46.7911 8.51862C46.251 8.28948 45.7313 8.17491 45.2321 8.17491C44.5038 8.17491 43.935 8.39178 43.5258 8.82551C43.1167 9.25924 42.9121 9.86073 42.9121 10.63C42.9121 11.4374 43.1085 12.0498 43.5013 12.4672C43.8968 12.8846 44.4765 13.0933 45.2403 13.0933C45.6549 13.0933 46.06 13.0455 46.4556 12.95V11.1087H45.1175V10.4868ZM51.9263 13.6211H48.5915V7.63889H51.9263V8.25675H49.2871V10.184H51.7667V10.7978H49.2871V12.9991H51.9263V13.6211ZM55.0974 13.6211H54.4018V8.25675H52.5073V7.63889H56.9919V8.25675H55.0974V13.6211ZM60.0731 13.6211V7.63889H60.7687V13.6211H60.0731ZM64.2549 13.6211H63.5593V8.25675H61.6648V7.63889H66.1494V8.25675H64.2549V13.6211ZM74.423 10.6218C74.423 11.5793 74.1802 12.3322 73.6946 12.8805C73.2118 13.4288 72.5394 13.7029 71.6774 13.7029C70.7963 13.7029 70.1157 13.4342 69.6356 12.8968C69.1582 12.3567 68.9195 11.5957 68.9195 10.6136C68.9195 9.63978 69.1596 8.88552 69.6397 8.35086C70.1198 7.81347 70.8017 7.54478 71.6856 7.54478C72.5449 7.54478 73.2159 7.81756 73.6987 8.36313C74.1816 8.90871 74.423 9.6616 74.423 10.6218ZM69.656 10.6218C69.656 11.432 69.8279 12.0471 70.1716 12.4672C70.5181 12.8846 71.02 13.0933 71.6774 13.0933C72.3403 13.0933 72.8408 12.8846 73.1791 12.4672C73.5173 12.0498 73.6865 11.4347 73.6865 10.6218C73.6865 9.81709 73.5173 9.20741 73.1791 8.79277C72.8436 8.37541 72.3457 8.16673 71.6856 8.16673C71.0227 8.16673 70.5181 8.37677 70.1716 8.79687C69.8279 9.21423 69.656 9.82254 69.656 10.6218ZM80.4338 13.6211H79.64L76.3707 8.60046H76.338C76.3816 9.18968 76.4034 9.72979 76.4034 10.2208V13.6211H75.761V7.63889H76.5466L79.8078 12.6391H79.8405C79.8351 12.5654 79.8228 12.3294 79.8037 11.9312C79.7846 11.5302 79.7778 11.2438 79.7832 11.0719V7.63889H80.4338V13.6211Z" fill="white"/>
<path d="M45.1175 10.4868V10.3868H45.0175V10.4868H45.1175ZM47.1512 10.4868H47.2512V10.3868H47.1512V10.4868ZM47.1512 13.396L47.1816 13.4913L47.2512 13.4691V13.396H47.1512ZM42.9325 12.8968L42.8595 12.9651L42.8596 12.9653L42.9325 12.8968ZM42.5479 8.99736L42.4597 8.9502L42.4596 8.95038L42.5479 8.99736ZM43.6281 7.92531L43.6745 8.01392L43.6749 8.0137L43.6281 7.92531ZM47.0611 7.90485L47.1527 7.94513L47.1934 7.85249L47.1003 7.81284L47.0611 7.90485ZM46.7911 8.51862L46.752 8.61068L46.8429 8.64922L46.8826 8.5589L46.7911 8.51862ZM43.5013 12.4672L43.4285 12.5357L43.4287 12.536L43.5013 12.4672ZM46.4556 12.95L46.479 13.0472L46.5556 13.0288V12.95H46.4556ZM46.4556 11.1087H46.5556V11.0087H46.4556V11.1087ZM45.1175 11.1087H45.0175V11.2087H45.1175V11.1087ZM45.1175 10.5868H47.1512V10.3868H45.1175V10.5868ZM47.0512 10.4868V13.396H47.2512V10.4868H47.0512ZM47.1208 13.3008C46.8092 13.4002 46.4922 13.4754 46.1699 13.5264L46.2011 13.724C46.5335 13.6713 46.8603 13.5938 47.1816 13.4913L47.1208 13.3008ZM46.1699 13.5264C45.849 13.5772 45.4752 13.6029 45.048 13.6029V13.8029C45.4828 13.8029 45.8674 13.7768 46.2011 13.724L46.1699 13.5264ZM45.048 13.6029C44.1632 13.6029 43.487 13.3412 43.0054 12.8284L42.8596 12.9653C43.3874 13.5273 44.1215 13.8029 45.048 13.8029V13.6029ZM43.0056 12.8286C42.5231 12.3122 42.2755 11.5839 42.2755 10.63H42.0755C42.0755 11.6183 42.3326 12.4013 42.8595 12.9651L43.0056 12.8286ZM42.2755 10.63C42.2755 10.0215 42.3969 9.49398 42.6362 9.04434L42.4596 8.95038C42.2024 9.43367 42.0755 9.99455 42.0755 10.63H42.2755ZM42.6361 9.04453C42.8776 8.59294 43.2232 8.25007 43.6745 8.01392L43.5818 7.83671C43.0947 8.09157 42.7201 8.4634 42.4597 8.9502L42.6361 9.04453ZM43.6749 8.0137C44.1272 7.7744 44.6602 7.65296 45.2771 7.65296V7.45296C44.6337 7.45296 44.0674 7.57976 43.5814 7.83692L43.6749 8.0137ZM45.2771 7.65296C45.9029 7.65296 46.4841 7.76788 47.022 7.99686L47.1003 7.81284C46.5361 7.57263 45.928 7.45296 45.2771 7.45296V7.65296ZM46.9696 7.86458L46.6996 8.47835L46.8826 8.5589L47.1527 7.94513L46.9696 7.86458ZM46.8301 8.42656C46.2798 8.19309 45.7469 8.07491 45.2321 8.07491V8.27491C45.7157 8.27491 46.2221 8.38588 46.752 8.61068L46.8301 8.42656ZM45.2321 8.07491C44.4828 8.07491 43.8852 8.29882 43.4531 8.75689L43.5986 8.89413C43.9848 8.48474 44.5248 8.27491 45.2321 8.27491V8.07491ZM43.4531 8.75689C43.0218 9.21409 42.8121 9.84289 42.8121 10.63H43.0121C43.0121 9.87858 43.2115 9.30439 43.5986 8.89413L43.4531 8.75689ZM42.8121 10.63C42.8121 11.4525 43.0121 12.0934 43.4285 12.5357L43.5741 12.3987C43.2048 12.0063 43.0121 11.4224 43.0121 10.63H42.8121ZM43.4287 12.536C43.8487 12.9792 44.4584 13.1933 45.2403 13.1933V12.9933C44.4945 12.9933 43.9449 12.7899 43.5739 12.3984L43.4287 12.536ZM45.2403 13.1933C45.6627 13.1933 46.0757 13.1446 46.479 13.0472L46.4321 12.8528C46.0444 12.9464 45.6472 12.9933 45.2403 12.9933V13.1933ZM46.5556 12.95V11.1087H46.3556V12.95H46.5556ZM46.4556 11.0087H45.1175V11.2087H46.4556V11.0087ZM45.2175 11.1087V10.4868H45.0175V11.1087H45.2175ZM51.9263 13.6211V13.7211H52.0263V13.6211H51.9263ZM48.5915 13.6211H48.4915V13.7211H48.5915V13.6211ZM48.5915 7.63889V7.53889H48.4915V7.63889H48.5915ZM51.9263 7.63889H52.0263V7.53889H51.9263V7.63889ZM51.9263 8.25675V8.35675H52.0263V8.25675H51.9263ZM49.2871 8.25675V8.15675H49.1871V8.25675H49.2871ZM49.2871 10.184H49.1871V10.284H49.2871V10.184ZM51.7667 10.184H51.8667V10.084H51.7667V10.184ZM51.7667 10.7978V10.8978H51.8667V10.7978H51.7667ZM49.2871 10.7978V10.6978H49.1871V10.7978H49.2871ZM49.2871 12.9991H49.1871V13.0991H49.2871V12.9991ZM51.9263 12.9991H52.0263V12.8991H51.9263V12.9991ZM51.9263 13.5211H48.5915V13.7211H51.9263V13.5211ZM48.6915 13.6211V7.63889H48.4915V13.6211H48.6915ZM48.5915 7.73889H51.9263V7.53889H48.5915V7.73889ZM51.8263 7.63889V8.25675H52.0263V7.63889H51.8263ZM51.9263 8.15675H49.2871V8.35675H51.9263V8.15675ZM49.1871 8.25675V10.184H49.3871V8.25675H49.1871ZM49.2871 10.284H51.7667V10.084H49.2871V10.284ZM51.6667 10.184V10.7978H51.8667V10.184H51.6667ZM51.7667 10.6978H49.2871V10.8978H51.7667V10.6978ZM49.1871 10.7978V12.9991H49.3871V10.7978H49.1871ZM49.2871 13.0991H51.9263V12.8991H49.2871V13.0991ZM51.8263 12.9991V13.6211H52.0263V12.9991H51.8263ZM55.0974 13.6211V13.7211H55.1974V13.6211H55.0974ZM54.4018 13.6211H54.3018V13.7211H54.4018V13.6211ZM54.4018 8.25675H54.5018V8.15675H54.4018V8.25675ZM52.5073 8.25675H52.4073V8.35675H52.5073V8.25675ZM52.5073 7.63889V7.53889H52.4073V7.63889H52.5073ZM56.9919 7.63889H57.0919V7.53889H56.9919V7.63889ZM56.9919 8.25675V8.35675H57.0919V8.25675H56.9919ZM55.0974 8.25675V8.15675H54.9974V8.25675H55.0974ZM55.0974 13.5211H54.4018V13.7211H55.0974V13.5211ZM54.5018 13.6211V8.25675H54.3018V13.6211H54.5018ZM54.4018 8.15675H52.5073V8.35675H54.4018V8.15675ZM52.6073 8.25675V7.63889H52.4073V8.25675H52.6073ZM52.5073 7.73889H56.9919V7.53889H52.5073V7.73889ZM56.8919 7.63889V8.25675H57.0919V7.63889H56.8919ZM56.9919 8.15675H55.0974V8.35675H56.9919V8.15675ZM54.9974 8.25675V13.6211H55.1974V8.25675H54.9974ZM60.0731 13.6211H59.9731V13.7211H60.0731V13.6211ZM60.0731 7.63889V7.53889H59.9731V7.63889H60.0731ZM60.7687 7.63889H60.8687V7.53889H60.7687V7.63889ZM60.7687 13.6211V13.7211H60.8687V13.6211H60.7687ZM60.1731 13.6211V7.63889H59.9731V13.6211H60.1731ZM60.0731 7.73889H60.7687V7.53889H60.0731V7.73889ZM60.6687 7.63889V13.6211H60.8687V7.63889H60.6687ZM60.7687 13.5211H60.0731V13.7211H60.7687V13.5211ZM64.2549 13.6211V13.7211H64.3549V13.6211H64.2549ZM63.5593 13.6211H63.4593V13.7211H63.5593V13.6211ZM63.5593 8.25675H63.6593V8.15675H63.5593V8.25675ZM61.6648 8.25675H61.5648V8.35675H61.6648V8.25675ZM61.6648 7.63889V7.53889H61.5648V7.63889H61.6648ZM66.1494 7.63889H66.2494V7.53889H66.1494V7.63889ZM66.1494 8.25675V8.35675H66.2494V8.25675H66.1494ZM64.2549 8.25675V8.15675H64.1549V8.25675H64.2549ZM64.2549 13.5211H63.5593V13.7211H64.2549V13.5211ZM63.6593 13.6211V8.25675H63.4593V13.6211H63.6593ZM63.5593 8.15675H61.6648V8.35675H63.5593V8.15675ZM61.7648 8.25675V7.63889H61.5648V8.25675H61.7648ZM61.6648 7.73889H66.1494V7.53889H61.6648V7.73889ZM66.0494 7.63889V8.25675H66.2494V7.63889H66.0494ZM66.1494 8.15675H64.2549V8.35675H66.1494V8.15675ZM64.1549 8.25675V13.6211H64.3549V8.25675H64.1549ZM73.6946 12.8805L73.6198 12.8142L73.6196 12.8144L73.6946 12.8805ZM69.6356 12.8968L69.5607 12.9631L69.561 12.9635L69.6356 12.8968ZM69.6397 8.35086L69.7141 8.41767L69.7143 8.41748L69.6397 8.35086ZM70.1716 12.4672L70.0942 12.5305L70.0947 12.5311L70.1716 12.4672ZM73.1791 8.79277L73.1011 8.85543L73.1016 8.85599L73.1791 8.79277ZM70.1716 8.79686L70.0945 8.73324L70.0944 8.73329L70.1716 8.79686ZM74.323 10.6218C74.323 11.5625 74.0847 12.2892 73.6198 12.8142L73.7695 12.9468C74.2757 12.3752 74.523 11.596 74.523 10.6218H74.323ZM73.6196 12.8144C73.1592 13.3372 72.5163 13.6029 71.6774 13.6029V13.8029C72.5624 13.8029 73.2644 13.5203 73.7697 12.9466L73.6196 12.8144ZM71.6774 13.6029C70.8179 13.6029 70.1672 13.3417 69.7102 12.8302L69.561 12.9635C70.0642 13.5267 70.7747 13.8029 71.6774 13.8029V13.6029ZM69.7105 12.8306C69.2543 12.3145 69.0195 11.5802 69.0195 10.6136H68.8195C68.8195 11.6112 69.0621 12.399 69.5607 12.9631L69.7105 12.8306ZM69.0195 10.6136C69.0195 9.65558 69.2555 8.92831 69.7141 8.41767L69.5653 8.28405C69.0636 8.84273 68.8195 9.62397 68.8195 10.6136H69.0195ZM69.7143 8.41748C70.1712 7.90603 70.8232 7.64478 71.6856 7.64478V7.44478C70.7803 7.44478 70.0684 7.72091 69.5651 8.28424L69.7143 8.41748ZM71.6856 7.64478C72.5219 7.64478 73.1634 7.90917 73.6239 8.42941L73.7736 8.29686C73.2684 7.72595 72.5679 7.44478 71.6856 7.44478V7.64478ZM73.6239 8.42941C74.0859 8.95153 74.323 9.6781 74.323 10.6218H74.523C74.523 9.64509 74.2772 8.86588 73.7736 8.29686L73.6239 8.42941ZM69.556 10.6218C69.556 11.4441 69.7302 12.0856 70.0942 12.5305L70.249 12.4039C69.9256 12.0086 69.756 11.4198 69.756 10.6218H69.556ZM70.0947 12.5311C70.4641 12.9762 70.9972 13.1933 71.6774 13.1933V12.9933C71.0428 12.9933 70.572 12.793 70.2486 12.4033L70.0947 12.5311ZM71.6774 13.1933C72.3627 13.1933 72.8951 12.9764 73.2568 12.5302L73.1014 12.4042C72.7865 12.7928 72.3179 12.9933 71.6774 12.9933V13.1933ZM73.2568 12.5302C73.6152 12.0879 73.7865 11.4464 73.7865 10.6218H73.5865C73.5865 11.423 73.4194 12.0118 73.1014 12.4042L73.2568 12.5302ZM73.7865 10.6218C73.7865 9.80519 73.6151 9.1691 73.2566 8.72956L73.1016 8.85599C73.4195 9.24572 73.5865 9.82899 73.5865 10.6218H73.7865ZM73.257 8.73012C72.8981 8.28369 72.3683 8.06673 71.6856 8.06673V8.26673C72.3232 8.26673 72.789 8.46713 73.1011 8.85543L73.257 8.73012ZM71.6856 8.06673C71 8.06673 70.464 8.28512 70.0945 8.73324L70.2488 8.86049C70.5721 8.46843 71.0454 8.26673 71.6856 8.26673V8.06673ZM70.0944 8.73329C69.7303 9.17539 69.556 9.81008 69.556 10.6218H69.756C69.756 9.83501 69.9255 9.25307 70.2488 8.86044L70.0944 8.73329ZM80.4338 13.6211V13.7211H80.5338V13.6211H80.4338ZM79.64 13.6211L79.5562 13.6757L79.5858 13.7211H79.64V13.6211ZM76.3707 8.60046L76.4545 8.54589L76.4249 8.50046H76.3707V8.60046ZM76.338 8.60046V8.50046H76.2303L76.2382 8.60785L76.338 8.60046ZM76.4034 13.6211V13.7211H76.5034V13.6211H76.4034ZM75.761 13.6211H75.661V13.7211H75.761V13.6211ZM75.761 7.63889V7.53889H75.661V7.63889H75.761ZM76.5466 7.63889L76.6304 7.58426L76.6008 7.53889H76.5466V7.63889ZM79.8078 12.6391L79.724 12.6937L79.7536 12.7391H79.8078V12.6391ZM79.8405 12.6391V12.7391H79.9482L79.9403 12.6317L79.8405 12.6391ZM79.8037 11.9312L79.7038 11.9359L79.7038 11.936L79.8037 11.9312ZM79.7832 11.0719L79.8832 11.0751V11.0719H79.7832ZM79.7832 7.63889V7.53889H79.6832V7.63889H79.7832ZM80.4338 7.63889H80.5338V7.53889H80.4338V7.63889ZM80.4338 13.5211H79.64V13.7211H80.4338V13.5211ZM79.7238 13.5665L76.4545 8.54589L76.2869 8.65503L79.5562 13.6757L79.7238 13.5665ZM76.3707 8.50046H76.338V8.70046H76.3707V8.50046ZM76.2382 8.60785C76.2817 9.19508 76.3034 9.73269 76.3034 10.2208H76.5034C76.5034 9.7269 76.4815 9.18427 76.4377 8.59307L76.2382 8.60785ZM76.3034 10.2208V13.6211H76.5034V10.2208H76.3034ZM76.4034 13.5211H75.761V13.7211H76.4034V13.5211ZM75.861 13.6211V7.63889H75.661V13.6211H75.861ZM75.761 7.73889H76.5466V7.53889H75.761V7.73889ZM76.4629 7.69352L79.724 12.6937L79.8916 12.5844L76.6304 7.58426L76.4629 7.69352ZM79.8078 12.7391H79.8405V12.5391H79.8078V12.7391ZM79.9403 12.6317C79.9349 12.5597 79.9227 12.3254 79.9036 11.9264L79.7038 11.936C79.7229 12.3335 79.7352 12.5712 79.7408 12.6465L79.9403 12.6317ZM79.9036 11.9264C79.8845 11.5255 79.8779 11.2426 79.8832 11.0751L79.6833 11.0687C79.6777 11.2449 79.6847 11.5348 79.7038 11.9359L79.9036 11.9264ZM79.8832 11.0719V7.63889H79.6832V11.0719H79.8832ZM79.7832 7.73889H80.4338V7.53889H79.7832V7.73889ZM80.3338 7.63889V13.6211H80.5338V7.63889H80.3338Z" fill="white"/>
<path d="M68.8042 21.7499C67.9616 21.7519 67.1386 22.0037 66.4391 22.4734C65.7397 22.9432 65.1952 23.6098 64.8746 24.3889C64.554 25.1681 64.4717 26.0248 64.638 26.8508C64.8043 27.6768 65.2118 28.4349 65.809 29.0293C66.4061 29.6236 67.1662 30.0276 67.9929 30.19C68.8196 30.3524 69.676 30.2661 70.4536 29.9418C71.2313 29.6175 71.8953 29.07 72.3618 28.3683C72.8282 27.6667 73.0761 26.8425 73.0742 25.9999C73.0823 25.4379 72.9773 24.8799 72.7653 24.3593C72.5534 23.8386 72.2388 23.366 71.8404 22.9694C71.442 22.5729 70.9679 22.2606 70.4463 22.051C69.9246 21.8415 69.3662 21.7391 68.8042 21.7499ZM68.8042 28.5799C68.2877 28.616 67.7724 28.496 67.3251 28.2353C66.8779 27.9747 66.5193 27.5855 66.2962 27.1184C66.073 26.6512 65.9956 26.1278 66.0738 25.6161C66.1521 25.1043 66.3825 24.628 66.7351 24.249C67.0877 23.8699 67.5462 23.6057 68.0509 23.4907C68.5557 23.3757 69.0833 23.4152 69.5653 23.604C70.0474 23.7929 70.4614 24.1223 70.7537 24.5496C71.0459 24.9769 71.2029 25.4822 71.2042 25.9999C71.2203 26.3279 71.1705 26.6559 71.0579 26.9643C70.9452 27.2728 70.772 27.5556 70.5483 27.7961C70.3246 28.0366 70.0551 28.2298 69.7555 28.3644C69.456 28.499 69.1325 28.5723 68.8042 28.5799ZM59.4842 21.7499C58.6416 21.7519 57.8186 22.0037 57.1191 22.4734C56.4197 22.9432 55.8752 23.6098 55.5546 24.3889C55.234 25.1681 55.1517 26.0248 55.318 26.8508C55.4843 27.6768 55.8918 28.4349 56.489 29.0293C57.0861 29.6236 57.8462 30.0276 58.6729 30.19C59.4996 30.3524 60.356 30.2661 61.1336 29.9418C61.9113 29.6175 62.5753 29.07 63.0418 28.3683C63.5082 27.6667 63.7561 26.8425 63.7542 25.9999C63.7623 25.4379 63.6573 24.8799 63.4453 24.3593C63.2334 23.8386 62.9188 23.366 62.5204 22.9694C62.122 22.5729 61.6479 22.2606 61.1263 22.051C60.6046 21.8415 60.0462 21.7391 59.4842 21.7499ZM59.4842 28.5799C58.9677 28.616 58.4524 28.496 58.0051 28.2353C57.5579 27.9747 57.1993 27.5855 56.9762 27.1184C56.753 26.6512 56.6756 26.1278 56.7538 25.6161C56.8321 25.1043 57.0625 24.628 57.4151 24.249C57.7677 23.8699 58.2262 23.6057 58.7309 23.4907C59.2357 23.3757 59.7633 23.4152 60.2453 23.604C60.7274 23.7929 61.1414 24.1223 61.4337 24.5496C61.7259 24.9769 61.8829 25.4822 61.8842 25.9999C61.9003 26.3279 61.8505 26.6559 61.7379 26.9643C61.6252 27.2728 61.452 27.5556 61.2283 27.7961C61.0046 28.0366 60.7351 28.2298 60.4355 28.3644C60.136 28.499 59.8125 28.5723 59.4842 28.5799ZM48.4042 23.0599V24.8599H52.7242C52.6564 25.7077 52.304 26.5077 51.7242 27.1299C51.2908 27.5714 50.7696 27.9171 50.1943 28.1444C49.6189 28.3718 49.0023 28.4759 48.3842 28.4499C47.1111 28.4499 45.8902 27.9442 44.99 27.044C44.0899 26.1439 43.5842 24.923 43.5842 23.6499C43.5842 22.3769 44.0899 21.156 44.99 20.2558C45.8902 19.3556 47.1111 18.8499 48.3842 18.8499C49.6046 18.8318 50.7831 19.2952 51.6642 20.1399L52.9342 18.8699C52.3381 18.2804 51.6305 17.8158 50.8526 17.5033C50.0748 17.1908 49.2424 17.0366 48.4042 17.0499C47.5152 17.0153 46.6283 17.1605 45.7968 17.4769C44.9652 17.7932 44.2061 18.2742 43.5649 18.8909C42.9237 19.5077 42.4136 20.2475 42.0652 21.0661C41.7167 21.8847 41.5371 22.7652 41.5371 23.6549C41.5371 24.5446 41.7167 25.4251 42.0652 26.2437C42.4136 27.0623 42.9237 27.8022 43.5649 28.4189C44.2061 29.0357 44.9652 29.5166 45.7968 29.833C46.6283 30.1493 47.5152 30.2945 48.4042 30.2599C49.2596 30.2941 50.1126 30.1469 50.9071 29.8281C51.7016 29.5092 52.4197 29.0259 53.0142 28.4099C54.0643 27.2563 54.6238 25.7391 54.5742 24.1799C54.5777 23.8046 54.5476 23.4298 54.4842 23.0599H48.4042ZM93.7142 24.4599C93.4534 23.6927 92.9657 23.0227 92.3157 22.5388C91.6657 22.0548 90.884 21.7797 90.0742 21.7499C89.5272 21.7489 88.9857 21.86 88.4834 22.0765C87.981 22.2929 87.5284 22.6101 87.1535 23.0085C86.7786 23.4068 86.4894 23.8778 86.3038 24.3923C86.1181 24.9068 86.04 25.454 86.0742 25.9999C86.0656 26.9128 86.3526 27.8039 86.8923 28.5402C87.432 29.2765 88.1953 29.8184 89.0684 30.0851C89.9415 30.3517 90.8774 30.3288 91.7364 30.0196C92.5953 29.7105 93.3312 29.1318 93.8342 28.3699L92.3842 27.3699C92.168 27.7302 91.8614 28.0277 91.4948 28.2329C91.1282 28.4382 90.7143 28.544 90.2942 28.5399C89.8607 28.5578 89.432 28.4442 89.0644 28.214C88.6967 27.9837 88.4073 27.6477 88.2342 27.2499L93.9242 24.8999L93.7142 24.4599ZM87.9142 25.8799C87.8939 25.5693 87.9358 25.2578 88.0374 24.9635C88.1391 24.6693 88.2984 24.3983 88.5061 24.1664C88.7137 23.9346 88.9656 23.7464 89.2469 23.6131C89.5281 23.4798 89.8332 23.4039 90.1442 23.3899C90.4664 23.3703 90.7872 23.4461 91.0665 23.608C91.3458 23.7699 91.5711 24.0106 91.7142 24.2999L87.9142 25.8799ZM83.2942 29.9999H85.1642V17.4999H83.2942V29.9999ZM80.2342 22.6999H80.1642C79.8848 22.3818 79.54 22.1277 79.1534 21.9551C78.7668 21.7825 78.3475 21.6955 77.9242 21.6999C76.8313 21.7529 75.8008 22.2243 75.0461 23.0165C74.2915 23.8087 73.8705 24.8608 73.8705 25.9549C73.8705 27.049 74.2915 28.1012 75.0461 28.8933C75.8008 29.6855 76.8313 30.1569 77.9242 30.2099C78.3481 30.2184 78.7687 30.1332 79.156 29.9603C79.5432 29.7875 79.8874 29.5312 80.1642 29.2099H80.2342V29.8199C80.2342 31.4499 79.3642 32.3199 77.9642 32.3199C77.4965 32.3096 77.0424 32.1606 76.6596 31.8918C76.2768 31.6229 75.9825 31.2464 75.8142 30.8099L74.1942 31.4799C74.4937 32.2322 75.0144 32.8758 75.6876 33.3258C76.3607 33.7757 77.1546 34.0108 77.9642 33.9999C80.1542 33.9999 81.9642 32.7099 81.9642 29.5699V21.9999H80.2342V22.6999ZM78.0842 28.5799C77.429 28.5391 76.814 28.25 76.3645 27.7716C75.9149 27.2932 75.6647 26.6614 75.6647 26.0049C75.6647 25.3485 75.9149 24.7167 76.3645 24.2383C76.814 23.7598 77.429 23.4708 78.0842 23.4299C78.4044 23.4437 78.7186 23.5218 79.008 23.6596C79.2975 23.7973 79.5562 23.9918 79.769 24.2316C79.9817 24.4714 80.144 24.7515 80.2462 25.0553C80.3485 25.3591 80.3886 25.6803 80.3642 25.9999C80.3914 26.3206 80.3534 26.6435 80.2523 26.9491C80.1513 27.2546 79.9893 27.5365 79.7761 27.7777C79.563 28.0189 79.3032 28.2143 79.0124 28.3522C78.7215 28.4901 78.4058 28.5676 78.0842 28.5799ZM102.474 17.4999H97.9942V29.9999H99.8642V25.2599H102.474C103.007 25.2982 103.542 25.2263 104.046 25.0487C104.55 24.871 105.012 24.5915 105.403 24.2274C105.794 23.8634 106.106 23.4227 106.32 22.9328C106.533 22.4428 106.643 21.9142 106.643 21.3799C106.643 20.8456 106.533 20.317 106.32 19.8271C106.106 19.3372 105.794 18.8965 105.403 18.5324C105.012 18.1684 104.55 17.8888 104.046 17.7112C103.542 17.5336 103.007 17.4616 102.474 17.4999ZM102.474 23.4999H99.8642V19.2399H102.514C102.795 19.2399 103.073 19.2953 103.333 19.4028C103.593 19.5104 103.829 19.668 104.027 19.8667C104.226 20.0654 104.384 20.3013 104.491 20.561C104.599 20.8206 104.654 21.0989 104.654 21.3799C104.654 21.661 104.599 21.9392 104.491 22.1989C104.384 22.4585 104.226 22.6944 104.027 22.8931C103.829 23.0918 103.593 23.2495 103.333 23.357C103.073 23.4646 102.795 23.5199 102.514 23.5199L102.474 23.4999ZM114.014 21.7099C113.333 21.6679 112.655 21.8265 112.063 22.1659C111.471 22.5054 110.992 23.0109 110.684 23.6199L112.334 24.3099C112.501 24.0093 112.751 23.7634 113.055 23.602C113.358 23.4405 113.702 23.3703 114.044 23.3999C114.282 23.3722 114.522 23.392 114.752 23.4582C114.981 23.5245 115.196 23.6358 115.382 23.7856C115.568 23.9355 115.722 24.1209 115.836 24.3311C115.95 24.5413 116.021 24.7721 116.044 25.0099V25.1299C115.443 24.8138 114.774 24.6491 114.094 24.6499C112.314 24.6499 110.494 25.6499 110.494 27.4699C110.512 27.8568 110.607 28.2361 110.774 28.5855C110.941 28.9348 111.177 29.247 111.467 29.5035C111.757 29.7601 112.096 29.9557 112.463 30.0787C112.83 30.2018 113.218 30.2498 113.604 30.2199C114.073 30.2459 114.541 30.1466 114.959 29.9322C115.378 29.7178 115.731 29.3961 115.984 28.9999H116.044V29.9999H117.844V25.1899C117.844 22.9999 116.184 21.7299 114.054 21.7299L114.014 21.7099ZM113.784 28.5599C113.174 28.5599 112.324 28.2499 112.324 27.4999C112.324 26.4999 113.384 26.1599 114.324 26.1599C114.918 26.1453 115.505 26.2903 116.024 26.5799C115.961 27.123 115.704 27.6249 115.299 27.9926C114.895 28.3604 114.371 28.569 113.824 28.5799L113.784 28.5599ZM124.404 21.9999L122.264 27.4199H122.204L119.984 21.9999H117.984L121.314 29.5799L119.414 33.7899H121.364L126.484 21.9999H124.404ZM107.604 29.9999H109.464V17.4999H107.604V29.9999Z" fill="white"/>
<path d="M21.3841 19.4199L10.7341 30.7199C10.8505 31.1473 11.0635 31.5423 11.3568 31.8742C11.65 32.2062 12.0157 32.4663 12.4255 32.6345C12.8353 32.8026 13.2782 32.8744 13.7201 32.8441C14.1621 32.8138 14.5911 32.6824 14.9741 32.4599L26.9741 25.5399L21.3841 19.4199Z" fill="#EA4335"/>
<path d="M32.1541 17.5L26.9741 14.5L21.1541 19.69L26.9941 25.54L32.1441 22.54C32.6019 22.2948 32.9845 21.93 33.2513 21.4845C33.5182 21.0389 33.6591 20.5293 33.6591 20.01C33.6591 19.4907 33.5182 18.9811 33.2513 18.5355C32.9845 18.09 32.6019 17.7252 32.1441 17.48L32.1541 17.5Z" fill="#FBBC04"/>
<path d="M10.7341 9.28125C10.6812 9.51745 10.6577 9.75928 10.6641 10.0012V30.0012C10.6659 30.2512 10.6995 30.4998 10.7641 30.7413L21.7641 19.7412L10.7341 9.28125Z" fill="#4285F4"/>
<path d="M21.4641 20.0006L26.9741 14.4906L14.9741 7.55062C14.5233 7.28263 14.0086 7.141 13.4841 7.14062C12.8515 7.14244 12.2369 7.35179 11.7347 7.73656C11.2325 8.12133 10.8705 8.66025 10.7041 9.27063L21.4641 20.0006Z" fill="#34A853"/>
</g>
<defs>
<clipPath id="clip0_454_2109">
<rect width="135" height="40" fill="white" transform="translate(0.664062)"/>
</clipPath>
</defs>
</svg>
