<svg width="20" height="20" viewBox="0 0 20 20" fill="none" xmlns="http://www.w3.org/2000/svg">
<g clip-path="url(#clip0_493_5921)">
<path d="M4.43242 12.0865L3.73625 14.6854L1.19176 14.7393C0.431328 13.3288 0 11.7151 0 10.0003C0 8.34203 0.403281 6.77828 1.11813 5.40137H1.11867L3.38398 5.81668L4.37633 8.0684C4.16863 8.67391 4.05543 9.32391 4.05543 10.0003C4.05551 10.7343 4.18848 11.4377 4.43242 12.0865Z" fill="#FBBB00"/>
<path d="M19.8261 8.13184C19.941 8.73676 20.0009 9.36148 20.0009 9.99996C20.0009 10.7159 19.9256 11.4143 19.7822 12.0879C19.2954 14.3802 18.0234 16.3818 16.2613 17.7983L16.2608 17.7978L13.4075 17.6522L13.0037 15.1313C14.1729 14.4456 15.0866 13.3725 15.568 12.0879H10.2207V8.13184H19.8261Z" fill="#518EF8"/>
<path d="M16.2595 17.7975L16.2601 17.798C14.5464 19.1755 12.3694 19.9996 9.99965 19.9996C6.19141 19.9996 2.88043 17.8711 1.19141 14.7387L4.43207 12.0859C5.27656 14.3398 7.45074 15.9442 9.99965 15.9442C11.0952 15.9442 12.1216 15.648 13.0024 15.131L16.2595 17.7975Z" fill="#28B446"/>
<path d="M16.382 2.30219L13.1425 4.95438C12.2309 4.38461 11.1534 4.05547 9.99906 4.05547C7.39246 4.05547 5.17762 5.73348 4.37543 8.06813L1.11773 5.40109H1.11719C2.78148 2.19231 6.13422 0 9.99906 0C12.4254 0 14.6502 0.864297 16.382 2.30219Z" fill="#F14336"/>
</g>
<defs>
<clipPath id="clip0_493_5921">
<rect width="20" height="20" fill="white"/>
</clipPath>
</defs>
</svg>
