<svg width="178" height="112" viewBox="0 0 178 112" fill="none" xmlns="http://www.w3.org/2000/svg">
<g filter="url(#filter0_f_531_8047)">
<ellipse cx="89" cy="56" rx="69" ry="36" fill="#9EA4B4" fill-opacity="0.1"/>
</g>
<g filter="url(#filter1_i_531_8047)">
<rect x="53" y="14" width="78" height="78" rx="39" fill="url(#paint0_linear_531_8047)" fill-opacity="0.5"/>
<rect x="53.25" y="14.25" width="77.5" height="77.5" rx="38.75" stroke="url(#paint1_linear_531_8047)" stroke-width="0.5"/>
<path d="M109.156 37.4746H74.8438C74.3937 37.4746 74 37.8684 74 38.3184V41.9746H110V38.3184C110 37.8684 109.606 37.4746 109.156 37.4746ZM79.6813 40.2309H78.5563C78.275 40.2309 78.1063 40.0059 78.1063 39.7809C78.1063 39.4996 78.3313 39.3309 78.5563 39.3309H79.6813C79.9625 39.2746 80.1875 39.4996 80.1875 39.7246C80.1875 40.0059 79.9625 40.2309 79.6813 40.2309ZM83.675 40.2309H82.55C82.2688 40.2309 82.1 40.0059 82.1 39.7809C82.1 39.4996 82.325 39.3309 82.55 39.3309H83.675C83.9563 39.3309 84.125 39.5559 84.125 39.7809C84.1812 40.0059 83.9563 40.2309 83.675 40.2309ZM87.6687 40.2309H86.5437C86.2625 40.2309 86.0938 40.0059 86.0938 39.7809C86.0938 39.4996 86.3187 39.3309 86.5437 39.3309H87.6687C87.95 39.3309 88.1188 39.5559 88.1188 39.7809C88.1188 40.0059 87.95 40.2309 87.6687 40.2309ZM105.444 40.2309H92.9C92.6187 40.2309 92.45 40.0059 92.45 39.7809C92.45 39.4996 92.675 39.3309 92.9 39.3309H105.387C105.669 39.3309 105.837 39.5559 105.837 39.7809C105.894 40.0059 105.669 40.2309 105.444 40.2309ZM74 67.6809C74 68.1309 74.3937 68.5246 74.8438 68.5246H109.1C109.606 68.5246 110 68.1309 110 67.6246V42.9309H74V67.6809ZM87.5 55.1371H91.4375V51.1996C91.4375 50.8621 91.7188 50.6371 92 50.6371C92.3375 50.6371 92.5625 50.9184 92.5625 51.1996V55.1371H96.5C96.8375 55.1371 97.0625 55.4184 97.0625 55.6996C97.0625 56.0371 96.7812 56.2621 96.5 56.2621H92.5625V60.1996C92.5625 60.5371 92.2812 60.7621 92 60.7621C91.6625 60.7621 91.4375 60.4809 91.4375 60.1996V56.2621H87.5C87.1625 56.2621 86.9375 55.9809 86.9375 55.6996C86.9375 55.4184 87.1625 55.1371 87.5 55.1371Z" fill="#00E980"/>
</g>
<defs>
<filter id="filter0_f_531_8047" x="0.1" y="0.1" width="177.8" height="111.8" filterUnits="userSpaceOnUse" color-interpolation-filters="sRGB">
<feFlood flood-opacity="0" result="BackgroundImageFix"/>
<feBlend mode="normal" in="SourceGraphic" in2="BackgroundImageFix" result="shape"/>
<feGaussianBlur stdDeviation="9.95" result="effect1_foregroundBlur_531_8047"/>
</filter>
<filter id="filter1_i_531_8047" x="53" y="14" width="78" height="88" filterUnits="userSpaceOnUse" color-interpolation-filters="sRGB">
<feFlood flood-opacity="0" result="BackgroundImageFix"/>
<feBlend mode="normal" in="SourceGraphic" in2="BackgroundImageFix" result="shape"/>
<feColorMatrix in="SourceAlpha" type="matrix" values="0 0 0 0 0 0 0 0 0 0 0 0 0 0 0 0 0 0 127 0" result="hardAlpha"/>
<feOffset dy="10"/>
<feGaussianBlur stdDeviation="5"/>
<feComposite in2="hardAlpha" operator="arithmetic" k2="-1" k3="1"/>
<feColorMatrix type="matrix" values="0 0 0 0 0.905882 0 0 0 0 0.917647 0 0 0 0 0.933333 0 0 0 0.06 0"/>
<feBlend mode="normal" in2="shape" result="effect1_innerShadow_531_8047"/>
</filter>
<linearGradient id="paint0_linear_531_8047" x1="92" y1="14" x2="92" y2="92" gradientUnits="userSpaceOnUse">
<stop stop-color="#354B60"/>
<stop offset="1" stop-color="#202B37"/>
</linearGradient>
<linearGradient id="paint1_linear_531_8047" x1="110.474" y1="16.4124" x2="44.3685" y2="28.6278" gradientUnits="userSpaceOnUse">
<stop offset="0.0248008" stop-color="#526374"/>
<stop offset="0.924756" stop-color="#9ABADA" stop-opacity="0.4"/>
</linearGradient>
</defs>
</svg>
