<svg width="62" height="62" viewBox="0 0 62 62" fill="none" xmlns="http://www.w3.org/2000/svg">
<g filter="url(#filter0_i_234_6040)">
<rect width="62" height="62" rx="31" fill="url(#paint0_linear_234_6040)" fill-opacity="0.5"/>
<rect x="0.25" y="0.25" width="61.5" height="61.5" rx="30.75" stroke="url(#paint1_linear_234_6040)" stroke-width="0.5"/>
<path d="M23.7999 18.4004C22.3677 18.4004 20.9942 18.9693 19.9815 19.982C18.9688 20.9947 18.3999 22.3682 18.3999 23.8004V38.2004C18.3999 39.6326 18.9688 41.0061 19.9815 42.0188C20.9942 43.0315 22.3677 43.6004 23.7999 43.6004H38.1999C39.6321 43.6004 41.0056 43.0315 42.0183 42.0188C43.031 41.0061 43.5999 39.6326 43.5999 38.2004V23.8004C43.5999 22.3682 43.031 20.9947 42.0183 19.982C41.0056 18.9693 39.6321 18.4004 38.1999 18.4004H23.7999ZM28.9371 27.1376L25.0725 31.0004L28.9371 34.8632C29.1061 35.0322 29.201 35.2614 29.201 35.5004C29.201 35.7394 29.1061 35.9686 28.9371 36.1376C28.7681 36.3066 28.5389 36.4015 28.2999 36.4015C28.0609 36.4015 27.8317 36.3066 27.6627 36.1376L23.1627 31.6376C23.0789 31.554 23.0124 31.4547 22.967 31.3453C22.9216 31.236 22.8983 31.1188 22.8983 31.0004C22.8983 30.882 22.9216 30.7648 22.967 30.6555C23.0124 30.5461 23.0789 30.4468 23.1627 30.3632L27.6627 25.8632C27.8317 25.6942 28.0609 25.5993 28.2999 25.5993C28.5389 25.5993 28.7681 25.6942 28.9371 25.8632C29.1061 26.0322 29.201 26.2614 29.201 26.5004C29.201 26.7394 29.1061 26.9686 28.9371 27.1376ZM34.3371 25.8632L38.8371 30.3632C38.9209 30.4468 38.9874 30.5461 39.0328 30.6555C39.0782 30.7648 39.1015 30.882 39.1015 31.0004C39.1015 31.1188 39.0782 31.236 39.0328 31.3453C38.9874 31.4547 38.9209 31.554 38.8371 31.6376L34.3371 36.1376C34.1681 36.3066 33.9389 36.4015 33.6999 36.4015C33.4609 36.4015 33.2317 36.3066 33.0627 36.1376C32.8937 35.9686 32.7988 35.7394 32.7988 35.5004C32.7988 35.2614 32.8937 35.0322 33.0627 34.8632L36.9273 31.0004L33.0627 27.1376C32.979 27.0539 32.9126 26.9546 32.8674 26.8452C32.8221 26.7359 32.7988 26.6187 32.7988 26.5004C32.7988 26.3821 32.8221 26.2649 32.8674 26.1555C32.9126 26.0462 32.979 25.9469 33.0627 25.8632C33.2317 25.6942 33.4609 25.5993 33.6999 25.5993C33.8182 25.5993 33.9354 25.6226 34.0448 25.6678C34.1541 25.7131 34.2534 25.7795 34.3371 25.8632Z" fill="#9EA4B4"/>
</g>
<defs>
<filter id="filter0_i_234_6040" x="0" y="0" width="62" height="72" filterUnits="userSpaceOnUse" color-interpolation-filters="sRGB">
<feFlood flood-opacity="0" result="BackgroundImageFix"/>
<feBlend mode="normal" in="SourceGraphic" in2="BackgroundImageFix" result="shape"/>
<feColorMatrix in="SourceAlpha" type="matrix" values="0 0 0 0 0 0 0 0 0 0 0 0 0 0 0 0 0 0 127 0" result="hardAlpha"/>
<feOffset dy="10"/>
<feGaussianBlur stdDeviation="5"/>
<feComposite in2="hardAlpha" operator="arithmetic" k2="-1" k3="1"/>
<feColorMatrix type="matrix" values="0 0 0 0 0.905882 0 0 0 0 0.917647 0 0 0 0 0.933333 0 0 0 0.06 0"/>
<feBlend mode="normal" in2="shape" result="effect1_innerShadow_234_6040"/>
</filter>
<linearGradient id="paint0_linear_234_6040" x1="31" y1="0" x2="31" y2="62" gradientUnits="userSpaceOnUse">
<stop stop-color="#354B60"/>
<stop offset="1" stop-color="#202B37"/>
</linearGradient>
<linearGradient id="paint1_linear_234_6040" x1="45.6842" y1="1.91752" x2="-6.86092" y2="11.6272" gradientUnits="userSpaceOnUse">
<stop offset="0.0248008" stop-color="#526374"/>
<stop offset="0.924756" stop-color="#9ABADA" stop-opacity="0.4"/>
</linearGradient>
</defs>
</svg>
