<svg width="72" height="72" viewBox="0 0 72 72" fill="none" xmlns="http://www.w3.org/2000/svg">
<g filter="url(#filter0_i_262_5601)">
<rect width="72" height="72" rx="36" fill="url(#paint0_linear_262_5601)" fill-opacity="0.5"/>
<rect x="0.25" y="0.25" width="71.5" height="71.5" rx="35.75" stroke="url(#paint1_linear_262_5601)" stroke-width="0.5"/>
<g clip-path="url(#clip0_262_5601)">
<path d="M27.1288 53.8726C25.7364 53.857 24.357 53.6017 23.0513 53.1176C22.0978 52.7652 21.2351 52.2041 20.5264 51.4754C19.7957 50.768 19.2338 49.9052 18.8824 48.9508C18.3987 47.6452 18.1437 46.2659 18.1285 44.8736C18.0215 42.5591 18 41.8648 18 36C18 30.1352 18.0236 29.4434 18.1274 27.1271C18.1445 25.7353 18.3998 24.3568 18.8824 23.0513C19.2355 22.0976 19.7966 21.2346 20.5249 20.5249C21.2328 19.7949 22.0959 19.2335 23.0502 18.8824C24.356 18.3983 25.7353 18.143 27.1278 18.1274C29.4431 18.0215 30.1384 18 36 18C41.8616 18 42.5566 18.0236 44.8729 18.1274C46.265 18.1444 47.6439 18.3997 48.9498 18.8824C49.9037 19.234 50.7665 19.7952 51.4747 20.5246C52.2043 21.233 52.7657 22.0961 53.1176 23.0502C53.6018 24.3559 53.8573 25.7353 53.8729 27.1278C53.9788 29.4441 54.0004 30.1376 54.0004 36.0007C54.0004 41.8638 53.9788 42.5573 53.8729 44.8736C53.8561 46.2659 53.6007 47.6449 53.1176 48.9508C52.7523 49.8978 52.1927 50.7578 51.4748 51.4755C50.757 52.1931 49.8969 52.7525 48.9498 53.1176C47.6441 53.6018 46.2647 53.8573 44.8722 53.8729C42.558 53.9788 41.8624 54.0004 35.9993 54.0004C30.1362 54.0004 29.4427 53.9799 27.1285 53.8729" fill="url(#paint2_radial_262_5601)"/>
<path d="M27.1288 53.8726C25.7364 53.857 24.357 53.6017 23.0513 53.1176C22.0978 52.7652 21.2351 52.2041 20.5264 51.4754C19.7957 50.768 19.2338 49.9052 18.8824 48.9508C18.3987 47.6452 18.1437 46.2659 18.1285 44.8736C18.0215 42.5591 18 41.8648 18 36C18 30.1352 18.0236 29.4434 18.1274 27.1271C18.1445 25.7353 18.3998 24.3568 18.8824 23.0513C19.2355 22.0976 19.7966 21.2346 20.5249 20.5249C21.2328 19.7949 22.0959 19.2335 23.0502 18.8824C24.356 18.3983 25.7353 18.143 27.1278 18.1274C29.4431 18.0215 30.1384 18 36 18C41.8616 18 42.5566 18.0236 44.8729 18.1274C46.265 18.1444 47.6439 18.3997 48.9498 18.8824C49.9037 19.234 50.7665 19.7952 51.4747 20.5246C52.2043 21.233 52.7657 22.0961 53.1176 23.0502C53.6018 24.3559 53.8573 25.7353 53.8729 27.1278C53.9788 29.4441 54.0004 30.1376 54.0004 36.0007C54.0004 41.8638 53.9788 42.5573 53.8729 44.8736C53.8561 46.2659 53.6007 47.6449 53.1176 48.9508C52.7523 49.8978 52.1927 50.7578 51.4748 51.4755C50.757 52.1931 49.8969 52.7525 48.9498 53.1176C47.6441 53.6018 46.2647 53.8573 44.8722 53.8729C42.558 53.9788 41.8624 54.0004 35.9993 54.0004C30.1362 54.0004 29.4427 53.9799 27.1285 53.8729" fill="url(#paint3_radial_262_5601)"/>
<path d="M31.58 36.0764C31.5801 35.1947 31.8416 34.3328 32.3316 33.5997C32.8215 32.8666 33.5178 32.2953 34.3324 31.9579C35.1471 31.6206 36.0435 31.5324 36.9082 31.7045C37.773 31.8766 38.5673 32.3013 39.1907 32.9249C39.8141 33.5484 40.2386 34.3428 40.4105 35.2076C40.5824 36.0724 40.494 36.9688 40.1565 37.7833C39.8189 38.5979 39.2474 39.2941 38.5142 39.7838C37.781 40.2736 36.9191 40.5349 36.0373 40.5348C34.8551 40.5346 33.7213 40.0648 32.8854 39.2287C32.0495 38.3926 31.5799 37.2587 31.58 36.0764ZM29.1698 36.0764C29.1698 37.4347 29.5726 38.7625 30.3272 39.8918C31.0818 41.0212 32.1544 41.9014 33.4092 42.4212C34.6641 42.941 36.0449 43.077 37.3771 42.812C38.7093 42.547 39.933 41.8929 40.8934 40.9325C41.8538 39.9721 42.5079 38.7484 42.7729 37.4162C43.0379 36.084 42.9019 34.7032 42.3821 33.4483C41.8623 32.1934 40.9821 31.1209 39.8527 30.3663C38.7234 29.6117 37.3956 29.2089 36.0373 29.2089C35.1355 29.2088 34.2424 29.3864 33.4092 29.7316C32.576 30.0767 31.8189 30.5825 31.1811 31.2202C30.5434 31.858 30.0376 32.615 29.6925 33.4483C29.3474 34.2815 29.1698 35.1745 29.1698 36.0764ZM41.5718 28.9368C41.5717 29.2542 41.6656 29.5645 41.8419 29.8285C42.0181 30.0925 42.2686 30.2983 42.5618 30.4199C42.855 30.5415 43.1777 30.5734 43.489 30.5116C43.8003 30.4498 44.0864 30.2971 44.3109 30.0728C44.5354 29.8484 44.6884 29.5625 44.7505 29.2513C44.8125 28.94 44.7809 28.6173 44.6596 28.324C44.5382 28.0307 44.3326 27.78 44.0688 27.6035C43.805 27.4271 43.4947 27.3328 43.1773 27.3327C42.7519 27.3328 42.3439 27.5019 42.043 27.8027C41.7421 28.1034 41.5729 28.5113 41.5725 28.9368M30.6349 46.9629C29.7868 46.9536 28.9466 46.7984 28.1512 46.5041C27.5744 46.2817 27.0504 45.9411 26.6132 45.504C26.176 45.0669 25.8351 44.5432 25.6125 43.9664C25.3181 43.171 25.1629 42.3309 25.1537 41.4828C25.0887 40.0731 25.076 39.6496 25.076 36.0782C25.076 32.5068 25.0902 32.0843 25.1537 30.6732C25.164 29.8253 25.3191 28.9853 25.6125 28.1896C25.8348 27.6126 26.1756 27.0885 26.6129 26.6513C27.0501 26.214 27.5742 25.8732 28.1512 25.6509C28.9466 25.3565 29.7868 25.2013 30.6349 25.1921C32.0445 25.1271 32.468 25.1144 36.038 25.1144C39.608 25.1144 40.0319 25.1282 41.443 25.1924C42.291 25.2027 43.1309 25.3579 43.9266 25.6512C44.5036 25.8736 45.0277 26.2144 45.4649 26.6516C45.9022 27.0889 46.243 27.6129 46.4653 28.1899C46.7597 28.9853 46.9149 29.8255 46.9241 30.6736C46.9891 32.0854 47.0018 32.5068 47.0018 36.0785C47.0018 39.6503 46.9887 40.0724 46.9241 41.4835C46.9143 42.3315 46.7591 43.1715 46.4653 43.9671C46.2427 44.5439 45.9019 45.0677 45.4646 45.5047C45.0274 45.9418 44.5035 46.2824 43.9266 46.5048C43.1312 46.7992 42.2911 46.9544 41.443 46.9636C40.0333 47.0285 39.6098 47.0412 36.038 47.0412C32.4663 47.0412 32.0442 47.0282 30.6349 46.9636M30.524 22.7839C29.4143 22.8058 28.3164 23.0158 27.277 23.4051C26.3884 23.7487 25.5815 24.2741 24.9079 24.9477C24.2343 25.6213 23.7089 26.4282 23.3653 27.3168C22.9761 28.3562 22.766 29.4541 22.7442 30.5638C22.6782 31.9897 22.6633 32.4457 22.6633 36.0778C22.6633 39.7099 22.6785 40.1656 22.7442 41.5918C22.766 42.7015 22.9761 43.7995 23.3653 44.8389C23.7089 45.7274 24.2343 46.5343 24.9079 47.2079C25.5815 47.8815 26.3885 48.407 27.277 48.7505C28.3164 49.1397 29.4144 49.3497 30.524 49.3717C31.9506 49.4367 32.4059 49.4525 36.038 49.4525C39.6702 49.4525 40.1258 49.4374 41.552 49.3717C42.6617 49.3498 43.7597 49.1398 44.7991 48.7505C45.6876 48.407 46.4945 47.8815 47.1681 47.2079C47.8417 46.5343 48.3672 45.7274 48.7107 44.8389C49.1005 43.7996 49.3106 42.7016 49.3319 41.5918C49.3969 40.1649 49.4117 39.7099 49.4117 36.0778C49.4117 32.4457 49.3965 31.9901 49.3319 30.5638C49.3101 29.4541 49.1001 28.3562 48.7107 27.3168C48.3672 26.4284 47.8419 25.6216 47.1685 24.948C46.4951 24.2744 45.6884 23.7489 44.8002 23.4051C43.7608 23.0156 42.6628 22.8055 41.5531 22.7839C40.1269 22.7187 39.6712 22.7031 36.0398 22.7031C32.4084 22.7031 31.9517 22.7183 30.5247 22.7839" fill="white"/>
</g>
</g>
<defs>
<filter id="filter0_i_262_5601" x="0" y="0" width="72" height="82" filterUnits="userSpaceOnUse" color-interpolation-filters="sRGB">
<feFlood flood-opacity="0" result="BackgroundImageFix"/>
<feBlend mode="normal" in="SourceGraphic" in2="BackgroundImageFix" result="shape"/>
<feColorMatrix in="SourceAlpha" type="matrix" values="0 0 0 0 0 0 0 0 0 0 0 0 0 0 0 0 0 0 127 0" result="hardAlpha"/>
<feOffset dy="10"/>
<feGaussianBlur stdDeviation="5"/>
<feComposite in2="hardAlpha" operator="arithmetic" k2="-1" k3="1"/>
<feColorMatrix type="matrix" values="0 0 0 0 0.905882 0 0 0 0 0.917647 0 0 0 0 0.933333 0 0 0 0.06 0"/>
<feBlend mode="normal" in2="shape" result="effect1_innerShadow_262_5601"/>
</filter>
<linearGradient id="paint0_linear_262_5601" x1="36" y1="0" x2="36" y2="72" gradientUnits="userSpaceOnUse">
<stop stop-color="#354B60"/>
<stop offset="1" stop-color="#202B37"/>
</linearGradient>
<linearGradient id="paint1_linear_262_5601" x1="53.0526" y1="2.2268" x2="-7.96752" y2="13.5026" gradientUnits="userSpaceOnUse">
<stop offset="0.0248008" stop-color="#526374"/>
<stop offset="0.924756" stop-color="#9ABADA" stop-opacity="0.4"/>
</linearGradient>
<radialGradient id="paint2_radial_262_5601" cx="0" cy="0" r="1" gradientUnits="userSpaceOnUse" gradientTransform="translate(20.3298 53.2115) scale(45.7066)">
<stop offset="0.09" stop-color="#FA8F21"/>
<stop offset="0.78" stop-color="#D82D7E"/>
</radialGradient>
<radialGradient id="paint3_radial_262_5601" cx="0" cy="0" r="1" gradientUnits="userSpaceOnUse" gradientTransform="translate(42.936 52.0553) scale(40.2222)">
<stop offset="0.64" stop-color="#8C3AAA" stop-opacity="0"/>
<stop offset="1" stop-color="#8C3AAA"/>
</radialGradient>
<clipPath id="clip0_262_5601">
<rect width="36" height="36" fill="white" transform="translate(18 18)"/>
</clipPath>
</defs>
</svg>
