<svg width="68" height="68" viewBox="0 0 68 68" fill="none" xmlns="http://www.w3.org/2000/svg">
<g filter="url(#filter0_i_234_6046)">
<rect width="68" height="68" rx="34" fill="url(#paint0_linear_234_6046)" fill-opacity="0.5"/>
<rect x="0.25" y="0.25" width="67.5" height="67.5" rx="33.75" stroke="url(#paint1_linear_234_6046)" stroke-width="0.5"/>
<path d="M38.3419 40.8676L30.6819 33.2076C30.6102 33.1359 30.5124 33.1032 30.4145 33.113C30.3134 33.1228 30.2254 33.1815 30.1732 33.2663L23.0253 44.8426L21.4796 46.3884C21.1176 46.7503 20.9187 47.233 20.9187 47.7449C20.9187 48.2536 21.1176 48.7363 21.4796 49.0982L22.4514 50.07C22.8231 50.4417 23.3155 50.6309 23.8047 50.6309C24.2938 50.6309 24.7862 50.4417 25.158 50.07L26.7037 48.5243L28.2787 47.5525L30.1765 49.4504C30.5255 49.8026 30.9853 49.9754 31.4483 49.9754C31.9081 49.9754 32.3679 49.8026 32.7201 49.4504L35.7463 46.4242C36.4474 45.7231 36.4474 44.5818 35.7463 43.8807L35.1658 43.3002L38.2834 41.3731C38.3682 41.3209 38.4236 41.2329 38.4366 41.135C38.4463 41.0339 38.4136 40.9361 38.3419 40.8676ZM35.2864 44.3405C35.5017 44.5557 35.6223 44.8459 35.6223 45.1524C35.6223 45.4557 35.5017 45.7459 35.2864 45.9612L32.257 48.9906C31.8102 49.4373 31.0831 49.4373 30.6363 48.9906L28.846 47.2003L34.595 43.6491L35.2864 44.3405Z" fill="#00E980"/>
<path d="M24.4296 22.0065C24.803 22.0065 25.1068 21.7045 25.1068 21.3334C25.1068 20.9601 24.803 20.6562 24.4296 20.6562C24.0584 20.6562 23.7566 20.9601 23.7566 21.3334C23.7566 21.7045 24.0585 22.0065 24.4296 22.0065ZM28.2491 22.0065C28.6225 22.0065 28.9263 21.7045 28.9263 21.3334C28.9263 20.9601 28.6225 20.6562 28.2491 20.6562C27.878 20.6562 27.576 20.9601 27.576 21.3334C27.576 21.7045 27.878 22.0065 28.2491 22.0065Z" fill="#00E980"/>
<path d="M45.291 17.3691H22.709C20.9155 17.3691 19.4546 18.83 19.4546 20.6236V24.6411H48.5455V20.6236C48.5454 18.83 47.0845 17.3691 45.291 17.3691ZM24.4307 22.6584C23.7003 22.6584 23.1035 22.0649 23.1035 21.3345C23.1035 20.6008 23.7003 20.004 24.4307 20.004C25.1612 20.004 25.758 20.6008 25.758 21.3345C25.758 22.0649 25.1612 22.6584 24.4307 22.6584ZM28.2493 22.6584C27.5189 22.6584 26.9221 22.0649 26.9221 21.3345C26.9221 20.6008 27.5189 20.004 28.2493 20.004C28.9831 20.004 29.5798 20.6008 29.5798 21.3345C29.5798 22.0649 28.9831 22.6584 28.2493 22.6584ZM32.0679 22.6584C31.3374 22.6584 30.7439 22.0649 30.7439 21.3345C30.7439 20.6008 31.3374 20.004 32.0679 20.004C32.8016 20.004 33.3984 20.6008 33.3984 21.3345C33.3983 22.0649 32.8016 22.6584 32.0679 22.6584ZM44.5704 21.6573H38.4984C38.3158 21.6573 38.1723 21.5105 38.1723 21.3312C38.1723 21.1518 38.3158 21.0051 38.4984 21.0051H44.5704C44.7497 21.0051 44.8965 21.1518 44.8965 21.3312C44.8965 21.5105 44.7497 21.6573 44.5704 21.6573Z" fill="#00E980"/>
<path d="M32.0684 22.0065C32.4418 22.0065 32.7456 21.7045 32.7456 21.3334C32.7456 20.9601 32.4418 20.6562 32.0684 20.6562C31.6973 20.6562 31.3954 20.9601 31.3954 21.3334C31.3954 21.7045 31.6973 22.0065 32.0684 22.0065ZM19.4546 25.2929V43.1662C19.4546 44.3369 20.0774 45.3673 21.0068 45.9413C21.01 45.938 21.0166 45.9315 21.0198 45.9283L22.51 44.4347L29.6189 32.9236C29.7786 32.666 30.0527 32.4931 30.3526 32.4638C30.382 32.4606 30.4145 32.4573 30.4472 32.4573C30.7113 32.4573 30.9559 32.5616 31.1418 32.7442L38.8018 40.4075C39.0072 40.5998 39.1149 40.8933 39.0855 41.1966C39.0431 41.5161 38.8768 41.7738 38.6257 41.927L36.2093 43.4206C37.0213 44.2358 37.142 45.4847 36.5648 46.4239H45.2911C47.0846 46.4239 48.5455 44.963 48.5455 43.1662V25.2929H19.4546ZM34.5723 33.791C34.5462 33.9507 34.406 34.0649 34.2494 34.0649C34.2331 34.0649 34.2135 34.0649 34.1972 34.0617C34.0211 34.0323 33.8973 33.866 33.9265 33.6866L34.3961 30.7387C34.4255 30.5593 34.5918 30.4387 34.7712 30.4681C34.9473 30.4975 35.0679 30.6638 35.0418 30.8398L34.5723 33.791ZM40.8105 37.1497L37.8593 37.6193C37.843 37.6225 37.8267 37.6258 37.8071 37.6258C37.6506 37.6258 37.5136 37.5117 37.4875 37.3486C37.4582 37.1725 37.5788 37.0062 37.7581 36.9769L40.7061 36.5074C40.8854 36.478 41.0517 36.5987 41.0811 36.778C41.1072 36.9541 40.9866 37.1236 40.8105 37.1497ZM41.1268 30.8822L37.0963 34.9127C37.031 34.978 36.9495 35.0073 36.8647 35.0073C36.7832 35.0073 36.6985 34.9779 36.6365 34.9127C36.5061 34.7855 36.5061 34.5802 36.6365 34.453L40.6638 30.4224C40.7909 30.2952 40.9996 30.2952 41.1268 30.4224C41.254 30.5496 41.254 30.755 41.1268 30.8822ZM34.4972 44.4738L31.3407 46.4239H33.9038L34.8267 45.501C34.918 45.4065 34.9702 45.2825 34.9702 45.1521C34.9702 45.0184 34.918 44.8945 34.8267 44.7999L34.4972 44.4738Z" fill="#00E980"/>
</g>
<defs>
<filter id="filter0_i_234_6046" x="0" y="0" width="68" height="78" filterUnits="userSpaceOnUse" color-interpolation-filters="sRGB">
<feFlood flood-opacity="0" result="BackgroundImageFix"/>
<feBlend mode="normal" in="SourceGraphic" in2="BackgroundImageFix" result="shape"/>
<feColorMatrix in="SourceAlpha" type="matrix" values="0 0 0 0 0 0 0 0 0 0 0 0 0 0 0 0 0 0 127 0" result="hardAlpha"/>
<feOffset dy="10"/>
<feGaussianBlur stdDeviation="5"/>
<feComposite in2="hardAlpha" operator="arithmetic" k2="-1" k3="1"/>
<feColorMatrix type="matrix" values="0 0 0 0 0.905882 0 0 0 0 0.917647 0 0 0 0 0.933333 0 0 0 0.06 0"/>
<feBlend mode="normal" in2="shape" result="effect1_innerShadow_234_6046"/>
</filter>
<linearGradient id="paint0_linear_234_6046" x1="34" y1="0" x2="34" y2="68" gradientUnits="userSpaceOnUse">
<stop stop-color="#354B60"/>
<stop offset="1" stop-color="#202B37"/>
</linearGradient>
<linearGradient id="paint1_linear_234_6046" x1="50.1053" y1="2.10308" x2="-7.52488" y2="12.7525" gradientUnits="userSpaceOnUse">
<stop offset="0.0248008" stop-color="#526374"/>
<stop offset="0.924756" stop-color="#9ABADA" stop-opacity="0.4"/>
</linearGradient>
</defs>
</svg>
