<svg width="333" height="85" viewBox="0 0 333 85" fill="none" xmlns="http://www.w3.org/2000/svg">
<path d="M332.399 5.78456C332.672 5.8264 332.927 5.63905 332.969 5.36609C333.011 5.09314 332.823 4.83795 332.55 4.79611L332.399 5.78456ZM0.59552 80.2513C39.968 87.6201 67.9759 84.7328 90.9583 76.7079C113.921 68.6897 131.838 55.5483 150.996 42.5036C170.164 29.4516 190.608 16.4676 218.702 8.64378C246.796 0.82014 282.573 -1.85253 332.399 5.78456L332.55 4.79611C282.617 -2.85752 246.692 -0.189121 218.434 7.68044C190.177 15.5498 169.621 28.6112 150.433 41.677C131.234 54.7501 113.439 67.7989 90.6286 75.7638C67.8376 83.7219 40.0102 86.6106 0.77948 79.2684L0.59552 80.2513Z" fill="#00E980"/>
</svg>
