<svg width="68" height="68" viewBox="0 0 68 68" fill="none" xmlns="http://www.w3.org/2000/svg">
<g filter="url(#filter0_i_248_4479)">
<rect width="68" height="68" rx="34" fill="url(#paint0_linear_248_4479)" fill-opacity="0.5"/>
<rect x="0.25" y="0.25" width="67.5" height="67.5" rx="33.75" stroke="url(#paint1_linear_248_4479)" stroke-width="0.5"/>
<path d="M29.5 22.7207V42.6557L22.5 45.2807V25.3457L29.5 22.7207Z" fill="#00E980"/>
<path d="M37.4551 34.0013C37.47 33.9996 37.4851 33.9996 37.5001 34.0013H37.4551ZM37.4551 34.0013C37.47 33.9996 37.4851 33.9996 37.5001 34.0013H37.4551Z" fill="#00E980"/>
<path d="M37.5 25.3457V34.0007H37.455C37.1223 34.1384 36.8027 34.3057 36.5 34.5007L36.195 34.7157C36.0035 34.8497 35.8214 34.9968 35.65 35.1557C35.5451 35.2472 35.445 35.344 35.35 35.4457C34.9773 35.8296 34.6532 36.2578 34.385 36.7207C33.8931 37.5565 33.591 38.4902 33.5 39.4557C33.5 39.6357 33.5 39.8157 33.5 40.0007C33.4995 40.5488 33.5684 41.0948 33.705 41.6257C33.7417 41.7624 33.7817 41.8974 33.825 42.0307C33.865 42.1507 33.905 42.2757 33.955 42.3907C33.9898 42.4862 34.0299 42.5796 34.075 42.6707C34.0859 42.7073 34.101 42.7425 34.12 42.7757C34.175 42.8957 34.235 43.0157 34.305 43.1357C34.3345 43.1961 34.3679 43.2546 34.405 43.3107L34.5 43.5007C34.6318 43.7159 34.7789 43.9215 34.94 44.1157C34.986 44.1789 35.0361 44.239 35.09 44.2957C35.135 44.3507 35.185 44.4007 35.23 44.4507L30.5 42.6557V22.7207L37.5 25.3457ZM45.5 22.7207V36.5307C45.41 36.3907 45.315 36.2507 45.215 36.1207L45.08 35.9457C45.005 35.8457 44.92 35.7507 44.835 35.6557C44.2254 34.9774 43.4798 34.435 42.6468 34.0637C41.8138 33.6924 40.912 33.5006 40 33.5007C39.746 33.5006 39.4922 33.5156 39.24 33.5457L38.9 33.5957H38.84L38.535 33.6607H38.5V25.3457L45.5 22.7207Z" fill="#00E980"/>
<path d="M37.455 34.0013C37.4699 33.9996 37.4851 33.9996 37.5 34.0013H37.455ZM44.095 36.3263C43.5148 35.6781 42.789 35.1768 41.9774 34.8636C41.1658 34.5503 40.2915 34.434 39.4262 34.5243C38.5609 34.6146 37.7294 34.9089 37 35.3829C36.2705 35.857 35.6639 36.4973 35.23 37.2513C34.8187 37.9506 34.5692 38.7331 34.5 39.5413C34.5 39.6963 34.5 39.8463 34.5 40.0013C34.4989 41.1393 34.8509 42.2495 35.5073 43.1791C36.1637 44.1086 37.0923 44.8117 38.165 45.1913C38.31 45.2363 38.465 45.2863 38.62 45.3263C39.071 45.4416 39.5345 45.5004 40 45.5013C41.0629 45.5019 42.1033 45.1945 42.9952 44.6162C43.887 44.0379 44.5923 43.2136 45.0255 42.243C45.4587 41.2723 45.6014 40.1969 45.4362 39.1469C45.2711 38.0969 44.8052 37.1172 44.095 36.3263ZM40 43.0013C39.8022 43.0013 39.6089 42.9427 39.4444 42.8328C39.28 42.7229 39.1518 42.5667 39.0761 42.384C39.0004 42.2013 38.9806 42.0002 39.0192 41.8062C39.0578 41.6123 39.153 41.4341 39.2929 41.2942C39.4327 41.1544 39.6109 41.0591 39.8049 41.0206C39.9989 40.982 40.2 41.0018 40.3827 41.0775C40.5654 41.1531 40.7216 41.2813 40.8315 41.4458C40.9414 41.6102 41 41.8036 41 42.0013C41 42.2666 40.8946 42.5209 40.7071 42.7084C40.5196 42.896 40.2652 43.0013 40 43.0013ZM41.77 40.4413C41.7233 40.4877 41.6679 40.5243 41.607 40.5492C41.546 40.5741 41.4808 40.5867 41.415 40.5863C41.3492 40.5867 41.284 40.5741 41.223 40.5492C41.1621 40.5243 41.1067 40.4877 41.06 40.4413C40.7739 40.1698 40.3945 40.0185 40 40.0185C39.6056 40.0185 39.2261 40.1698 38.94 40.4413C38.8459 40.5355 38.7182 40.5884 38.585 40.5884C38.4519 40.5884 38.3242 40.5355 38.23 40.4413C38.1359 40.3472 38.083 40.2195 38.083 40.0863C38.083 39.9532 38.1359 39.8255 38.23 39.7313C38.4622 39.4985 38.7381 39.3138 39.0418 39.1878C39.3456 39.0617 39.6712 38.9969 40 38.9969C40.3288 38.9969 40.6544 39.0617 40.9582 39.1878C41.2619 39.3138 41.5378 39.4985 41.77 39.7313C41.8169 39.7778 41.8541 39.8331 41.8794 39.894C41.9048 39.955 41.9179 40.0203 41.9179 40.0863C41.9179 40.1523 41.9048 40.2177 41.8794 40.2786C41.8541 40.3396 41.8169 40.3949 41.77 40.4413ZM43.18 39.0263C43.0869 39.1187 42.9612 39.1708 42.83 39.1713C42.7642 39.1717 42.699 39.1591 42.638 39.1342C42.5771 39.1093 42.5217 39.0727 42.475 39.0263C42.15 38.7013 41.7641 38.4435 41.3395 38.2675C40.9148 38.0916 40.4597 38.0011 40 38.0011C39.5403 38.0011 39.0852 38.0916 38.6605 38.2675C38.2359 38.4435 37.85 38.7013 37.525 39.0263C37.4294 39.1083 37.3063 39.1511 37.1805 39.1462C37.0546 39.1413 36.9353 39.0892 36.8462 39.0001C36.7572 38.9111 36.705 38.7917 36.7001 38.6659C36.6953 38.54 36.7381 38.417 36.82 38.3213C37.6638 37.4786 38.8075 37.0053 40 37.0053C41.1925 37.0053 42.3363 37.4786 43.18 38.3213C43.2731 38.415 43.3254 38.5417 43.3254 38.6738C43.3254 38.8059 43.2731 38.9327 43.18 39.0263Z" fill="#00E980"/>
</g>
<defs>
<filter id="filter0_i_248_4479" x="0" y="0" width="68" height="78" filterUnits="userSpaceOnUse" color-interpolation-filters="sRGB">
<feFlood flood-opacity="0" result="BackgroundImageFix"/>
<feBlend mode="normal" in="SourceGraphic" in2="BackgroundImageFix" result="shape"/>
<feColorMatrix in="SourceAlpha" type="matrix" values="0 0 0 0 0 0 0 0 0 0 0 0 0 0 0 0 0 0 127 0" result="hardAlpha"/>
<feOffset dy="10"/>
<feGaussianBlur stdDeviation="5"/>
<feComposite in2="hardAlpha" operator="arithmetic" k2="-1" k3="1"/>
<feColorMatrix type="matrix" values="0 0 0 0 0.905882 0 0 0 0 0.917647 0 0 0 0 0.933333 0 0 0 0.06 0"/>
<feBlend mode="normal" in2="shape" result="effect1_innerShadow_248_4479"/>
</filter>
<linearGradient id="paint0_linear_248_4479" x1="34" y1="0" x2="34" y2="68" gradientUnits="userSpaceOnUse">
<stop stop-color="#354B60"/>
<stop offset="1" stop-color="#202B37"/>
</linearGradient>
<linearGradient id="paint1_linear_248_4479" x1="50.1053" y1="2.10308" x2="-7.52488" y2="12.7525" gradientUnits="userSpaceOnUse">
<stop offset="0.0248008" stop-color="#526374"/>
<stop offset="0.924756" stop-color="#9ABADA" stop-opacity="0.4"/>
</linearGradient>
</defs>
</svg>
