<svg width="174" height="40" viewBox="0 0 174 40" fill="none" xmlns="http://www.w3.org/2000/svg">
<rect opacity="0.2" width="53" height="40" rx="12" fill="#37E479"/>
<path d="M66.3781 31C65.2334 31 64.2049 30.8021 63.2927 30.4062C62.3805 30.0104 61.6025 29.4796 60.9586 28.8139C60.3325 28.1302 59.8496 27.3475 59.5098 26.4659C59.1699 25.5843 59 24.6577 59 23.6861C59 22.6965 59.1699 21.7609 59.5098 20.8793C59.8496 19.9976 60.3325 19.224 60.9586 18.5582C61.6025 17.8745 62.3805 17.3348 63.2927 16.9389C64.2049 16.5431 65.2334 16.3452 66.3781 16.3452C67.5229 16.3452 68.5424 16.5431 69.4367 16.9389C70.3489 17.3348 71.1181 17.8745 71.7441 18.5582C72.388 19.224 72.8799 19.9976 73.2197 20.8793C73.5596 21.7609 73.7295 22.6965 73.7295 23.6861C73.7295 24.6577 73.5596 25.5843 73.2197 26.4659C72.8799 27.3475 72.3969 28.1302 71.7709 28.8139C71.1449 29.4796 70.3758 30.0104 69.4636 30.4062C68.5514 30.8021 67.5229 31 66.3781 31ZM62.7025 23.6861C62.7025 24.3158 62.7919 24.8916 62.9708 25.4134C63.1675 25.9171 63.4269 26.358 63.7488 26.7358C64.0887 27.1136 64.4822 27.4105 64.9293 27.6264C65.3765 27.8243 65.8594 27.9233 66.3781 27.9233C66.8969 27.9233 67.3798 27.8243 67.827 27.6264C68.2741 27.4105 68.6587 27.1136 68.9806 26.7358C69.3205 26.358 69.5798 25.9081 69.7587 25.3864C69.9554 24.8646 70.0538 24.2888 70.0538 23.6591C70.0538 23.0473 69.9554 22.4806 69.7587 21.9588C69.5798 21.437 69.3205 20.9872 68.9806 20.6094C68.6587 20.2315 68.2741 19.9437 67.827 19.7457C67.3798 19.5298 66.8969 19.4219 66.3781 19.4219C65.8594 19.4219 65.3765 19.5298 64.9293 19.7457C64.4822 19.9616 64.0887 20.2585 63.7488 20.6364C63.4269 21.0142 63.1675 21.464 62.9708 21.9858C62.7919 22.5076 62.7025 23.0743 62.7025 23.6861Z" fill="#FCFEFD"/>
<path d="M89.2221 30.7301H85.6269V22.7955C85.6269 21.6619 85.4302 20.8343 85.0367 20.3125C84.6432 19.7907 84.0977 19.5298 83.4001 19.5298C83.0424 19.5298 82.6757 19.6018 82.3001 19.7457C81.9245 19.8897 81.5667 20.0966 81.2269 20.3665C80.9049 20.6184 80.6098 20.9242 80.3415 21.2841C80.0732 21.6439 79.8765 22.0398 79.7513 22.4716V30.7301H76.1561V16.5881H79.4025V19.206C79.9212 18.3063 80.6724 17.6046 81.6562 17.1009C82.6399 16.5971 83.7489 16.3452 84.983 16.3452C85.8595 16.3452 86.5749 16.5071 87.1294 16.831C87.6839 17.1548 88.1132 17.5777 88.4172 18.0994C88.7213 18.6212 88.927 19.215 89.0343 19.8807C89.1595 20.5464 89.2221 21.2211 89.2221 21.9048V30.7301Z" fill="#FCFEFD"/>
<path d="M98.8678 31C97.7409 31 96.7214 30.8111 95.8092 30.4332C94.897 30.0374 94.1189 29.5066 93.475 28.8409C92.8311 28.1752 92.3303 27.4015 91.9726 26.5199C91.6327 25.6383 91.4628 24.7116 91.4628 23.7401C91.4628 22.7325 91.6327 21.7879 91.9726 20.9062C92.3124 20.0066 92.8043 19.224 93.4482 18.5582C94.0921 17.8745 94.8702 17.3348 95.7824 16.9389C96.7125 16.5431 97.7499 16.3452 98.8946 16.3452C100.039 16.3452 101.059 16.5431 101.953 16.9389C102.865 17.3348 103.635 17.8655 104.261 18.5312C104.904 19.197 105.387 19.9706 105.709 20.8523C106.049 21.7339 106.219 22.6515 106.219 23.6051C106.219 23.839 106.21 24.0639 106.192 24.2798C106.192 24.4957 106.174 24.6757 106.139 24.8196H95.2726C95.3263 25.3774 95.4604 25.8722 95.6751 26.304C95.8897 26.7358 96.1669 27.1046 96.5068 27.4105C96.8466 27.7164 97.2312 27.9503 97.6605 28.1122C98.0897 28.2741 98.5369 28.3551 99.0019 28.3551C99.7174 28.3551 100.388 28.1842 101.014 27.8423C101.658 27.4825 102.096 27.0147 102.329 26.4389L105.414 27.3026C104.896 28.3821 104.064 29.2727 102.919 29.9744C101.792 30.6581 100.442 31 98.8678 31ZM102.517 22.4716C102.427 21.41 102.034 20.5644 101.336 19.9347C100.656 19.2869 99.8247 18.9631 98.841 18.9631C98.358 18.9631 97.9019 19.053 97.4726 19.233C97.0613 19.3949 96.6946 19.6288 96.3726 19.9347C96.0507 20.2405 95.7824 20.6094 95.5677 21.0412C95.371 21.473 95.2547 21.9498 95.219 22.4716H102.517Z" fill="#FCFEFD"/>
<path d="M116.729 30.0014C116.246 30.2173 115.656 30.4332 114.958 30.6491C114.261 30.8651 113.527 30.973 112.758 30.973C112.257 30.973 111.783 30.91 111.336 30.7841C110.907 30.6581 110.522 30.4602 110.183 30.1903C109.861 29.9025 109.601 29.5426 109.404 29.1108C109.208 28.661 109.109 28.1212 109.109 27.4915V19.3679H107.258V16.5881H109.109V12H112.705V16.5881H115.656V19.3679H112.705V26.277C112.705 26.7808 112.83 27.1406 113.08 27.3565C113.348 27.5545 113.67 27.6534 114.046 27.6534C114.422 27.6534 114.788 27.5904 115.146 27.4645C115.504 27.3385 115.79 27.2306 116.005 27.1406L116.729 30.0014Z" fill="#FCFEFD"/>
<path d="M122.894 31C121.445 31 120.345 30.5322 119.594 29.5966C118.843 28.661 118.467 27.2756 118.467 25.4403V16.5881H122.062V24.6577C122.062 26.8348 122.84 27.9233 124.397 27.9233C125.094 27.9233 125.765 27.7164 126.409 27.3026C127.071 26.8707 127.607 26.223 128.019 25.3594V16.5881H131.614V26.5739C131.614 26.9517 131.676 27.2216 131.802 27.3835C131.945 27.5455 132.168 27.6354 132.472 27.6534V30.7301C132.115 30.8021 131.811 30.8471 131.56 30.8651C131.328 30.8831 131.113 30.892 130.916 30.892C130.272 30.892 129.745 30.7481 129.333 30.4602C128.94 30.1544 128.707 29.7405 128.636 29.2188L128.555 28.0852C127.929 29.0568 127.124 29.7855 126.141 30.2713C125.157 30.7571 124.075 31 122.894 31Z" fill="#FCFEFD"/>
<path d="M157.026 30.7301H153.431V22.7955C153.431 21.6619 153.234 20.8343 152.84 20.3125C152.465 19.7907 151.937 19.5298 151.257 19.5298C150.542 19.5298 149.871 19.8087 149.245 20.3665C148.619 20.9062 148.172 21.617 147.904 22.4986V30.7301H144.309V22.7955C144.309 21.6619 144.112 20.8343 143.718 20.3125C143.343 19.7907 142.815 19.5298 142.135 19.5298C141.438 19.5298 140.767 19.7997 140.123 20.3395C139.497 20.8793 139.05 21.59 138.782 22.4716V30.7301H135.187V16.5881H138.433V19.206C138.952 18.2884 139.658 17.5866 140.552 17.1009C141.465 16.5971 142.502 16.3452 143.665 16.3452C144.845 16.3452 145.757 16.633 146.401 17.2088C147.045 17.7846 147.457 18.4953 147.635 19.3409C148.208 18.3693 148.932 17.6316 149.809 17.1278C150.685 16.6061 151.687 16.3452 152.814 16.3452C153.672 16.3452 154.379 16.5071 154.933 16.831C155.488 17.1548 155.917 17.5777 156.221 18.0994C156.525 18.6212 156.731 19.215 156.838 19.8807C156.963 20.5464 157.026 21.2211 157.026 21.9048V30.7301Z" fill="#FCFEFD"/>
<path d="M166.649 31C165.504 31 164.475 30.8021 163.563 30.4062C162.651 30.0104 161.873 29.4796 161.229 28.8139C160.603 28.1302 160.12 27.3475 159.78 26.4659C159.44 25.5843 159.271 24.6577 159.271 23.6861C159.271 22.6965 159.44 21.7609 159.78 20.8793C160.12 19.9976 160.603 19.224 161.229 18.5582C161.873 17.8745 162.651 17.3348 163.563 16.9389C164.475 16.5431 165.504 16.3452 166.649 16.3452C167.793 16.3452 168.813 16.5431 169.707 16.9389C170.619 17.3348 171.389 17.8745 172.015 18.5582C172.659 19.224 173.15 19.9976 173.49 20.8793C173.83 21.7609 174 22.6965 174 23.6861C174 24.6577 173.83 25.5843 173.49 26.4659C173.15 27.3475 172.667 28.1302 172.041 28.8139C171.415 29.4796 170.646 30.0104 169.734 30.4062C168.822 30.8021 167.793 31 166.649 31ZM162.973 23.6861C162.973 24.3158 163.062 24.8916 163.241 25.4134C163.438 25.9171 163.697 26.358 164.019 26.7358C164.359 27.1136 164.753 27.4105 165.2 27.6264C165.647 27.8243 166.13 27.9233 166.649 27.9233C167.167 27.9233 167.65 27.8243 168.097 27.6264C168.545 27.4105 168.929 27.1136 169.251 26.7358C169.591 26.358 169.85 25.9081 170.029 25.3864C170.226 24.8646 170.324 24.2888 170.324 23.6591C170.324 23.0473 170.226 22.4806 170.029 21.9588C169.85 21.437 169.591 20.9872 169.251 20.6094C168.929 20.2315 168.545 19.9437 168.097 19.7457C167.65 19.5298 167.167 19.4219 166.649 19.4219C166.13 19.4219 165.647 19.5298 165.2 19.7457C164.753 19.9616 164.359 20.2585 164.019 20.6364C163.697 21.0142 163.438 21.464 163.241 21.9858C163.062 22.5076 162.973 23.0743 162.973 23.6861Z" fill="#FCFEFD"/>
<path d="M28.3768 31.8525H26.4702V22.3195C27.6954 18.8329 28.3838 16.8785 29.5684 13.3823C33.511 12.5751 34.4828 13.5995 34.6329 17.3147L31.1771 28.0393C30.3836 30.3704 29.9814 31.7972 28.3768 31.8525Z" fill="#67EE9A"/>
<path d="M24.5497 31.8521H26.4702V22.3292L23.3494 13.4016C19.378 12.5952 18.3992 13.6185 18.248 17.3297L21.7289 28.043C22.5283 30.3716 22.9334 31.7968 24.5497 31.8521Z" fill="#67EE9A"/>
<path d="M23.4911 13.6946C24.362 16.1858 26.4702 22.2743 26.4702 22.2743V28.5303H24.504L19.6779 14.5287C20.3559 13.1352 21.2415 12.903 23.4911 13.6946Z" fill="url(#paint0_linear_542_6182)"/>
<path d="M29.4493 13.6946C28.6331 16.2097 26.4949 22.2854 26.4702 22.2743V28.5303H28.4364L33.2625 14.5287C32.5845 13.1352 31.699 12.903 29.4493 13.6946Z" fill="url(#paint1_linear_542_6182)"/>
<path d="M12.409 32.5934H8L14.6135 10.7271C16.0789 7.05613 21.1905 7.12598 22.657 10.7271L24.087 15.434C22.3948 12.9758 19.6693 13.573 18.6651 17.2215L15.9839 26.397C14.9679 30.2416 14.4179 32.47 12.409 32.5934Z" fill="#37E479"/>
<path d="M40.5314 32.6071L44.9404 32.6071L38.3269 10.7352C36.8615 7.05332 31.7499 7.12338 30.2834 10.7352L28.8535 15.4698C30.5456 13.0044 33.2712 13.5896 34.2754 17.2489L36.9565 26.4518L36.9915 26.5843C37.9854 30.3576 38.5457 32.4848 40.5314 32.6071Z" fill="#37E479"/>
<path d="M17.8309 15.4338L18.5459 17.6979L15.8647 26.8734C14.7587 31.2877 13.9671 32.6291 12.1707 32.5932H9.42993L14.5539 15.4338C15.2242 13.4661 17.1458 13.1667 17.8309 15.4338Z" fill="#6DF2A0"/>
<path d="M35.05 15.4289L34.335 17.693L37.0161 26.8685C38.1222 31.2828 38.9138 32.6242 40.7102 32.5883H43.4509L38.3269 15.4289C37.6567 13.4612 35.7351 13.1618 35.05 15.4289Z" fill="#6DF2A0"/>
<defs>
<linearGradient id="paint0_linear_542_6182" x1="23.0741" y1="13.2432" x2="23.0741" y2="28.5303" gradientUnits="userSpaceOnUse">
<stop stop-color="#22BC5D"/>
<stop offset="1" stop-color="#67EE9A" stop-opacity="0.5"/>
</linearGradient>
<linearGradient id="paint1_linear_542_6182" x1="29.8664" y1="13.2432" x2="29.8664" y2="28.5303" gradientUnits="userSpaceOnUse">
<stop stop-color="#22BC5D"/>
<stop offset="1" stop-color="#67EE9A" stop-opacity="0.5"/>
</linearGradient>
</defs>
</svg>
