<svg width="20" height="20" viewBox="0 0 20 20" fill="none" xmlns="http://www.w3.org/2000/svg">
<path d="M10.625 9.375H20V0.625C20 0.45924 19.9342 0.300269 19.8169 0.183058C19.6997 0.065848 19.5408 0 19.375 0L10.625 0V9.375Z" fill="#4CAF50"/>
<path d="M9.375 9.375V0H0.625C0.45924 0 0.300269 0.065848 0.183058 0.183058C0.065848 0.300269 0 0.45924 0 0.625L0 9.375H9.375Z" fill="#F44336"/>
<path d="M9.375 10.625H0V19.375C0 19.5408 0.065848 19.6997 0.183058 19.8169C0.300269 19.9342 0.45924 20 0.625 20H9.375V10.625Z" fill="#2196F3"/>
<path d="M10.625 10.625V20H19.375C19.5408 20 19.6997 19.9342 19.8169 19.8169C19.9342 19.6997 20 19.5408 20 19.375V10.625H10.625Z" fill="#FFC107"/>
</svg>
