<svg width="68" height="68" viewBox="0 0 68 68" fill="none" xmlns="http://www.w3.org/2000/svg">
<g filter="url(#filter0_i_234_6054)">
<rect width="68" height="68" rx="34" fill="url(#paint0_linear_234_6054)" fill-opacity="0.5"/>
<rect x="0.25" y="0.25" width="67.5" height="67.5" rx="33.75" stroke="url(#paint1_linear_234_6054)" stroke-width="0.5"/>
<path d="M43.4625 48.9638C43.4397 48.9409 43.4136 48.9214 43.3908 48.8953C43.3191 48.8301 43.2538 48.7583 43.1887 48.6866C43.1757 48.6703 43.1626 48.6573 43.1496 48.641C43.0713 48.5497 42.9996 48.4551 42.9343 48.354C42.9278 48.3475 42.9246 48.341 42.9213 48.3345C42.8626 48.2432 42.8072 48.1486 42.755 48.054C42.742 48.0247 42.7257 47.9921 42.7126 47.9627C42.6767 47.8877 42.6409 47.8095 42.6115 47.7312C42.5952 47.6954 42.5821 47.6562 42.5691 47.6203C42.543 47.5421 42.5201 47.467 42.4974 47.3856C42.4876 47.3464 42.4778 47.3105 42.468 47.2681C42.4485 47.1866 42.4322 47.1018 42.4224 47.0138C42.4159 46.978 42.4093 46.9453 42.4061 46.9095C42.3898 46.7888 42.3832 46.6649 42.3832 46.541V37.4559H37.6483C35.7798 37.4559 34.2569 35.9331 34.2569 34.0645V24.0143C34.2569 22.1425 35.7798 20.6197 37.6483 20.6197H42.243C41.8941 19.5827 40.9126 18.8359 39.7582 18.8359H22.1458C22.1621 18.8489 22.1784 18.8653 22.1946 18.8783C22.2533 18.924 22.3087 18.9697 22.3642 19.0185C22.3968 19.0512 22.4295 19.0805 22.462 19.1099C22.5174 19.162 22.5697 19.2175 22.6185 19.2729C22.6446 19.3056 22.674 19.3349 22.7 19.3642C22.7717 19.4522 22.8402 19.5403 22.9022 19.6316C22.9283 19.6675 22.9479 19.7099 22.974 19.749C23.0098 19.8077 23.0457 19.8664 23.0783 19.9284C23.1044 19.9773 23.1272 20.0263 23.15 20.0784C23.1761 20.1305 23.2022 20.186 23.225 20.2446C23.2446 20.2968 23.2642 20.3523 23.2838 20.4077C23.3033 20.4631 23.3196 20.5186 23.3359 20.5773C23.3522 20.6327 23.3686 20.6914 23.3816 20.7501C23.3946 20.8088 23.4044 20.8675 23.4142 20.9263C23.424 20.985 23.4337 21.0437 23.4403 21.1056C23.4468 21.1741 23.45 21.2458 23.4534 21.3175C23.4566 21.3665 23.4599 21.4121 23.4599 21.4578V46.5377C23.4599 47.9856 24.6404 49.1628 26.0849 49.1628H43.7005C43.6842 49.1498 43.6712 49.1367 43.6581 49.1269C43.5897 49.0747 43.5278 49.0193 43.4625 48.9638ZM27.2002 23.9393H31.8177C31.9971 23.9393 32.1438 24.086 32.1438 24.2654C32.1438 24.4448 31.9971 24.5915 31.8177 24.5915H27.2002C27.0209 24.5915 26.8741 24.4448 26.8741 24.2654C26.8741 24.086 27.0209 23.9393 27.2002 23.9393ZM27.2002 27.8329H31.8177C31.9971 27.8329 32.1438 27.9797 32.1438 28.159C32.1438 28.3384 31.9971 28.4851 31.8177 28.4851H27.2002C27.0209 28.4851 26.8741 28.3384 26.8741 28.159C26.8741 27.9796 27.0209 27.8329 27.2002 27.8329ZM27.2002 31.7265H31.8177C31.9971 31.7265 32.1438 31.8732 32.1438 32.0526C32.1438 32.2319 31.9971 32.3787 31.8177 32.3787H27.2002C27.0209 32.3787 26.8741 32.2319 26.8741 32.0526C26.8741 31.8732 27.0209 31.7265 27.2002 31.7265ZM27.2002 35.62H31.8177C31.9971 35.62 32.1438 35.7668 32.1438 35.9461C32.1438 36.1255 31.9971 36.2722 31.8177 36.2722H27.2002C27.0209 36.2722 26.8741 36.1255 26.8741 35.9461C26.8741 35.7668 27.0209 35.62 27.2002 35.62ZM33.7515 44.0594H27.2002C27.0209 44.0594 26.8741 43.9126 26.8741 43.7332C26.8741 43.5539 27.0209 43.4071 27.2002 43.4071H33.7515C33.9308 43.4071 34.0776 43.5539 34.0776 43.7332C34.0776 43.9126 33.9308 44.0594 33.7515 44.0594ZM38.6429 40.1658H27.2002C27.0209 40.1658 26.8741 40.0191 26.8741 39.8397C26.8741 39.6603 27.0209 39.5136 27.2002 39.5136H38.6429C38.8223 39.5136 38.969 39.6603 38.969 39.8397C38.969 40.0191 38.8222 40.1658 38.6429 40.1658Z" fill="#00E980"/>
<path d="M21.7753 19.3777C21.3335 19.0399 20.7831 18.8367 20.185 18.8367C20.1836 18.8367 20.1826 18.836 20.1813 18.8359C18.7368 18.8381 17.5623 20.0137 17.5623 21.4588V21.9928H22.8081V21.4588C22.8081 20.6107 22.4017 19.8575 21.7753 19.3777ZM43.0345 46.5382C43.0345 47.985 44.2114 49.1621 45.6581 49.1626C47.1041 49.1621 48.2802 47.9857 48.2802 46.5398V46.0055H43.0345V46.5382Z" fill="#00E980"/>
<path d="M39.3385 27.6633C39.6236 27.6633 39.8547 27.4322 39.8547 27.1471C39.8547 26.862 39.6236 26.6309 39.3385 26.6309C39.0534 26.6309 38.8223 26.862 38.8223 27.1471C38.8223 27.4322 39.0534 27.6633 39.3385 27.6633Z" fill="#00E980"/>
<path d="M47.6954 21.2725H37.6484C36.1386 21.2725 34.9092 22.5018 34.9092 24.0149V34.0652C34.9092 35.575 36.1386 36.8044 37.6484 36.8044H47.6954C49.2084 36.8044 50.4378 35.575 50.4378 34.0652V24.0149C50.4378 22.5019 49.2084 21.2725 47.6954 21.2725ZM39.3384 25.9792C39.9826 25.9792 40.5068 26.5034 40.5068 27.1476C40.5068 27.7918 39.9826 28.316 39.3384 28.316C38.6942 28.316 38.1701 27.7918 38.1701 27.1476C38.1701 26.5034 38.6942 25.9792 39.3384 25.9792ZM45.9826 32.6276C46.11 32.755 46.11 32.9613 45.9826 33.0887C45.9189 33.1524 45.8355 33.1842 45.7521 33.1842C45.6686 33.1842 45.5852 33.1524 45.5215 33.0887L44.9873 32.5545L44.453 33.0887C44.3893 33.1524 44.306 33.1842 44.2225 33.1842C44.139 33.1842 44.0556 33.1524 43.9919 33.0887C43.8645 32.9613 43.8645 32.755 43.9919 32.6276L44.5262 32.0933L43.9919 31.5591C43.8645 31.4317 43.8645 31.2254 43.9919 31.098C44.1193 30.9706 44.3256 30.9706 44.453 31.098L44.9873 31.6322L45.5215 31.098C45.6489 30.9706 45.8552 30.9706 45.9826 31.098C46.11 31.2254 46.11 31.4317 45.9826 31.5591L45.4484 32.0933L45.9826 32.6276ZM47.1755 27.6189C47.1755 27.7991 47.0295 27.945 46.8494 27.945C46.6694 27.945 46.5233 27.7992 46.5233 27.6189V25.7789L38.9858 33.3167C38.9221 33.3804 38.8387 33.4123 38.7552 33.4123C38.6717 33.4123 38.5884 33.3804 38.5246 33.3167C38.3972 33.1893 38.3972 32.983 38.5246 32.8556L46.0623 25.3178H44.2226C44.0425 25.3178 43.8965 25.172 43.8965 24.9917C43.8965 24.8115 44.0425 24.6656 44.2226 24.6656H46.8494C46.8918 24.6656 46.9342 24.6742 46.974 24.6907C47.0538 24.7237 47.1173 24.7872 47.1504 24.8671C47.1668 24.907 47.1755 24.9492 47.1755 24.9917V27.6189Z" fill="#00E980"/>
<path d="M44.987 31.6316L44.5259 32.0928L44.987 32.5539L45.4482 32.0928L44.987 31.6316Z" fill="#00E980"/>
</g>
<defs>
<filter id="filter0_i_234_6054" x="0" y="0" width="68" height="78" filterUnits="userSpaceOnUse" color-interpolation-filters="sRGB">
<feFlood flood-opacity="0" result="BackgroundImageFix"/>
<feBlend mode="normal" in="SourceGraphic" in2="BackgroundImageFix" result="shape"/>
<feColorMatrix in="SourceAlpha" type="matrix" values="0 0 0 0 0 0 0 0 0 0 0 0 0 0 0 0 0 0 127 0" result="hardAlpha"/>
<feOffset dy="10"/>
<feGaussianBlur stdDeviation="5"/>
<feComposite in2="hardAlpha" operator="arithmetic" k2="-1" k3="1"/>
<feColorMatrix type="matrix" values="0 0 0 0 0.905882 0 0 0 0 0.917647 0 0 0 0 0.933333 0 0 0 0.06 0"/>
<feBlend mode="normal" in2="shape" result="effect1_innerShadow_234_6054"/>
</filter>
<linearGradient id="paint0_linear_234_6054" x1="34" y1="0" x2="34" y2="68" gradientUnits="userSpaceOnUse">
<stop stop-color="#354B60"/>
<stop offset="1" stop-color="#202B37"/>
</linearGradient>
<linearGradient id="paint1_linear_234_6054" x1="50.1053" y1="2.10308" x2="-7.52488" y2="12.7525" gradientUnits="userSpaceOnUse">
<stop offset="0.0248008" stop-color="#526374"/>
<stop offset="0.924756" stop-color="#9ABADA" stop-opacity="0.4"/>
</linearGradient>
</defs>
</svg>
