<svg width="28" height="29" viewBox="0 0 28 29" fill="none" xmlns="http://www.w3.org/2000/svg">
<path d="M13.9999 27.1004C20.9587 27.1004 26.5999 21.4592 26.5999 14.5004C26.5999 7.5416 20.9587 1.90039 13.9999 1.90039C7.04111 1.90039 1.3999 7.5416 1.3999 14.5004C1.3999 21.4592 7.04111 27.1004 13.9999 27.1004Z" fill="#00E980"/>
<path fill-rule="evenodd" clip-rule="evenodd" d="M19.1239 14.0186C19.2073 14.0682 19.2764 14.1387 19.3243 14.223C19.3723 14.3074 19.3975 14.4027 19.3975 14.4998C19.3975 14.5968 19.3723 14.6922 19.3243 14.7766C19.2764 14.8609 19.2073 14.9314 19.1239 14.981L11.4648 19.54C11.3798 19.5905 11.2829 19.6177 11.184 19.6187C11.0851 19.6197 10.9876 19.5944 10.9017 19.5456C10.8157 19.4967 10.7441 19.4259 10.6944 19.3404C10.6446 19.2549 10.6184 19.1577 10.6184 19.0588V9.94077C10.6184 9.84185 10.6447 9.7447 10.6944 9.6592C10.7442 9.5737 10.8157 9.50291 10.9017 9.45403C10.9877 9.40514 11.0851 9.3799 11.184 9.38089C11.2829 9.38187 11.3798 9.40903 11.4648 9.45962L19.1239 14.0186Z" fill="#2A6B67"/>
</svg>
