<svg width="101" height="100" viewBox="0 0 101 100" fill="none" xmlns="http://www.w3.org/2000/svg">
<rect x="0.5" width="100" height="100" rx="8" fill="#0DB368" fill-opacity="0.1"/>
<rect x="1" y="0.5" width="99" height="99" rx="7.5" stroke="#9EA4B4" stroke-opacity="0.2"/>
<path fill-rule="evenodd" clip-rule="evenodd" d="M39.3568 27.5H62.6433C63.4178 27.5 64.0495 28.1317 64.0495 28.9062V43.9249C64.0495 51.7484 58.417 58.2975 51.0001 59.7271C43.5831 58.2974 37.9506 51.7484 37.9506 43.9249V28.9062C37.9506 28.1317 38.5822 27.5 39.3568 27.5ZM66.2994 33.0826H71.6695C72.2908 33.0826 72.7945 33.5863 72.7945 34.2076C72.7945 34.2279 72.794 34.2479 72.7929 34.2679C72.9411 39.0861 72.9917 42.823 71.6195 45.7612C70.4757 48.2101 68.4318 49.985 64.8021 51.1646C65.1876 50.2723 65.5039 49.3454 65.7449 48.3913C67.7059 47.4835 68.8934 46.3018 69.5892 44.812C70.6567 42.5263 70.6919 39.3681 70.5812 35.3326H66.2995V33.0826H66.2994ZM35.7006 35.3326H31.4189C31.3083 39.3681 31.3434 42.5263 32.411 44.812C33.1069 46.3018 34.2943 47.4835 36.2553 48.3913C36.4961 49.3456 36.8126 50.2723 37.198 51.1646C33.5684 49.985 31.5244 48.2101 30.3806 45.7612C29.0083 42.823 29.0589 39.0861 29.2072 34.268C29.2061 34.248 29.2056 34.2279 29.2056 34.2077C29.2056 33.5864 29.7093 33.0827 30.3306 33.0827H35.7006L35.7006 35.3326ZM61.4643 69.3953C61.4886 69.3978 61.5132 69.4004 61.5377 69.4029C61.7779 69.4274 61.9588 69.6277 61.9588 69.8692V72.0312C61.9588 72.2894 61.7482 72.5 61.4901 72.5H40.5099C40.2517 72.5 40.0412 72.2894 40.0412 72.0312V69.8692C40.0412 69.6278 40.2221 69.4274 40.4623 69.4029C40.4868 69.4003 40.5112 69.3978 40.5356 69.3953C44.812 68.947 48.105 65.6095 48.5707 61.4313C49.2226 61.6354 49.8909 61.8047 50.5741 61.9364L50.9999 62.0186L51.4258 61.9364C52.109 61.8047 52.7773 61.6354 53.4291 61.4313C53.8949 65.6095 57.1879 68.9469 61.4643 69.3953ZM51.7135 34.9649C51.6032 34.6584 51.3258 34.4635 51 34.4635C50.6742 34.4635 50.3968 34.6585 50.2865 34.9649L48.9182 38.7652C48.8761 38.8821 48.7724 38.9575 48.6482 38.9613L44.6111 39.0883C44.2855 39.0986 44.0144 39.3022 43.9137 39.612C43.813 39.9219 43.9127 40.246 44.1701 40.4457L47.3616 42.9213C47.4597 42.9974 47.4994 43.1193 47.4647 43.2387L46.3379 47.1174C46.2471 47.4303 46.3568 47.751 46.6205 47.9426C46.884 48.1341 47.2231 48.1393 47.4925 47.9562L50.8332 45.686C50.936 45.6162 51.0641 45.6162 51.167 45.686L54.5077 47.9562C54.7771 48.1393 55.1162 48.134 55.3797 47.9426C55.6432 47.751 55.7531 47.4303 55.6623 47.1174L54.5355 43.2387C54.5008 43.1193 54.5405 42.9974 54.6386 42.9213L57.8301 40.4457C58.0875 40.246 58.1871 39.9219 58.0865 39.612C57.9858 39.3022 57.7146 39.0986 57.389 39.0883L53.3519 38.9613C53.2277 38.9574 53.124 38.8821 53.0819 38.7652L51.7135 34.9649Z" fill="#0DB368"/>
</svg>
