<svg width="100" height="100" viewBox="0 0 100 100" fill="none" xmlns="http://www.w3.org/2000/svg">
<rect width="100" height="100" rx="8" fill="#0DB368" fill-opacity="0.1"/>
<rect x="0.5" y="0.5" width="99" height="99" rx="7.5" stroke="#9EA4B4" stroke-opacity="0.2"/>
<path d="M32 56V59H38.879L29 68.879L31.121 71L41 61.121V68H44V56H32Z" fill="#0DB368"/>
<path d="M60.5 50C58.145 50 55.982 50.774 54.2285 52.088L47.9 45.7625C49.2632 43.9593 50.0006 41.7605 50 39.5C50 33.71 45.29 29 39.5 29C33.71 29 29 33.71 29 39.5C29 45.29 33.71 50 39.5 50C41.855 50 44.027 49.1975 45.7805 47.8835L52.1075 54.209C50.7435 56.0231 50.0041 58.2303 50 60.5C50 66.29 54.71 71 60.5 71C66.29 71 71 66.29 71 60.5C71 54.71 66.29 50 60.5 50ZM32 39.5C32 35.3645 35.3645 32 39.5 32C43.6355 32 47 35.3645 47 39.5C47 43.6355 43.6355 47 39.5 47C35.3645 47 32 43.6355 32 39.5Z" fill="#0DB368"/>
</svg>
