<svg width="101" height="100" viewBox="0 0 101 100" fill="none" xmlns="http://www.w3.org/2000/svg">
<rect x="0.5" width="100" height="100" rx="8" fill="#0DB368" fill-opacity="0.1"/>
<rect x="1" y="0.5" width="99" height="99" rx="7.5" stroke="#9EA4B4" stroke-opacity="0.2"/>
<path d="M63.1 41H38.9C38.704 41.9609 38.2298 42.8429 37.5364 43.5364C36.8429 44.2298 35.9609 44.704 35 44.9V55.1C35.9609 55.296 36.8429 55.7702 37.5364 56.4636C38.2298 57.1571 38.704 58.0391 38.9 59H63.1C63.296 58.0391 63.7702 57.1571 64.4636 56.4636C65.1571 55.7702 66.0391 55.296 67 55.1V44.9C66.0391 44.704 65.1571 44.2298 64.4636 43.5364C63.7702 42.8429 63.296 41.9609 63.1 41ZM43 51H39V49H43V51ZM55 47H49V49H54C54.2652 49 54.5196 49.1054 54.7071 49.2929C54.8946 49.4804 55 49.7348 55 50V54C55 54.2652 54.8946 54.5196 54.7071 54.7071C54.5196 54.8946 54.2652 55 54 55H52V57H50V55H47V53H53V51H48C47.7348 51 47.4804 50.8946 47.2929 50.7071C47.1054 50.5196 47 50.2652 47 50V46C47 45.7348 47.1054 45.4804 47.2929 45.2929C47.4804 45.1054 47.7348 45 48 45H50V43H52V45H55V47ZM63 51H59V49H63V51ZM70 35H32C31.2044 35 30.4413 35.3161 29.8787 35.8787C29.3161 36.4413 29 37.2044 29 38V62C29 62.7956 29.3161 63.5587 29.8787 64.1213C30.4413 64.6839 31.2044 65 32 65H70C70.7957 65 71.5587 64.6839 72.1213 64.1213C72.6839 63.5587 73 62.7956 73 62V38C73 37.2044 72.6839 36.4413 72.1213 35.8787C71.5587 35.3161 70.7957 35 70 35ZM69 56C69 56.2652 68.8946 56.5196 68.7071 56.7071C68.5196 56.8946 68.2652 57 68 57C67.2043 57 66.4413 57.3161 65.8787 57.8787C65.3161 58.4413 65 59.2044 65 60C65 60.2652 64.8946 60.5196 64.7071 60.7071C64.5196 60.8946 64.2652 61 64 61H38C37.7348 61 37.4804 60.8946 37.2929 60.7071C37.1054 60.5196 37 60.2652 37 60C37 59.2044 36.6839 58.4413 36.1213 57.8787C35.5587 57.3161 34.7956 57 34 57C33.7348 57 33.4804 56.8946 33.2929 56.7071C33.1054 56.5196 33 56.2652 33 56V44C33 43.7348 33.1054 43.4804 33.2929 43.2929C33.4804 43.1054 33.7348 43 34 43C34.7956 43 35.5587 42.6839 36.1213 42.1213C36.6839 41.5587 37 40.7956 37 40C37 39.7348 37.1054 39.4804 37.2929 39.2929C37.4804 39.1054 37.7348 39 38 39H64C64.2652 39 64.5196 39.1054 64.7071 39.2929C64.8946 39.4804 65 39.7348 65 40C65 40.7956 65.3161 41.5587 65.8787 42.1213C66.4413 42.6839 67.2043 43 68 43C68.2652 43 68.5196 43.1054 68.7071 43.2929C68.8946 43.4804 69 43.7348 69 44V56Z" fill="#0DB368"/>
</svg>
