<svg width="60" height="60" viewBox="0 0 60 60" fill="none" xmlns="http://www.w3.org/2000/svg">
<g filter="url(#filter0_i_260_5191)">
<rect width="60" height="60" rx="30" fill="url(#paint0_linear_260_5191)" fill-opacity="0.5"/>
<rect x="0.25" y="0.25" width="59.5" height="59.5" rx="29.75" stroke="url(#paint1_linear_260_5191)" stroke-width="0.5"/>
<path d="M46.2825 42.5325L44.0325 44.7825L42.9675 43.7175L43.9425 42.75H16.5C16.3011 42.75 16.1104 42.671 15.9697 42.5303C15.829 42.3897 15.75 42.1989 15.75 42V20.5575L14.7825 21.5325L13.7175 20.4675L15.9675 18.2175C16.0373 18.1472 16.1202 18.0914 16.2116 18.0533C16.303 18.0153 16.401 17.9957 16.5 17.9957C16.599 17.9957 16.6971 18.0153 16.7885 18.0533C16.8799 18.0914 16.9628 18.1472 17.0325 18.2175L19.2825 20.4675L18.2175 21.5325L17.25 20.5575V41.25H18.75V36C18.75 35.8011 18.829 35.6103 18.9697 35.4697C19.1104 35.329 19.3011 35.25 19.5 35.25H22.5C22.6989 35.25 22.8897 35.329 23.0304 35.4697C23.171 35.6103 23.25 35.8011 23.25 36V41.25H24.75V31.5C24.75 31.3011 24.829 31.1103 24.9697 30.9697C25.1104 30.829 25.3011 30.75 25.5 30.75H28.5C28.6989 30.75 28.8897 30.829 29.0304 30.9697C29.171 31.1103 29.25 31.3011 29.25 31.5V41.25H30.75V27.75C30.75 27.5511 30.829 27.3603 30.9697 27.2197C31.1104 27.079 31.3011 27 31.5 27H34.5C34.6989 27 34.8897 27.079 35.0304 27.2197C35.171 27.3603 35.25 27.5511 35.25 27.75V41.25H36.75V24.75C36.75 24.5511 36.829 24.3603 36.9697 24.2197C37.1104 24.079 37.3011 24 37.5 24H40.5C40.6989 24 40.8897 24.079 41.0304 24.2197C41.171 24.3603 41.25 24.5511 41.25 24.75V41.25H43.9425L42.9675 40.2825L44.0325 39.2175L46.2825 41.4675C46.3528 41.5372 46.4086 41.6202 46.4467 41.7116C46.4848 41.803 46.5044 41.901 46.5044 42C46.5044 42.099 46.4848 42.197 46.4467 42.2884C46.4086 42.3798 46.3528 42.4628 46.2825 42.5325ZM38.25 22.5H39.75V21.75H40.5C40.6989 21.75 40.8897 21.671 41.0304 21.5303C41.171 21.3897 41.25 21.1989 41.25 21V18.75C41.25 18.5511 41.171 18.3603 41.0304 18.2197C40.8897 18.079 40.6989 18 40.5 18H38.25V17.25H41.25V15.75H39.75V15H38.25V15.75H37.5C37.3011 15.75 37.1104 15.829 36.9697 15.9697C36.829 16.1103 36.75 16.3011 36.75 16.5V18.75C36.75 18.9489 36.829 19.1397 36.9697 19.2803C37.1104 19.421 37.3011 19.5 37.5 19.5H39.75V20.25H36.75V21.75H38.25V22.5Z" fill="#0DB368"/>
</g>
<defs>
<filter id="filter0_i_260_5191" x="0" y="0" width="60" height="70" filterUnits="userSpaceOnUse" color-interpolation-filters="sRGB">
<feFlood flood-opacity="0" result="BackgroundImageFix"/>
<feBlend mode="normal" in="SourceGraphic" in2="BackgroundImageFix" result="shape"/>
<feColorMatrix in="SourceAlpha" type="matrix" values="0 0 0 0 0 0 0 0 0 0 0 0 0 0 0 0 0 0 127 0" result="hardAlpha"/>
<feOffset dy="10"/>
<feGaussianBlur stdDeviation="5"/>
<feComposite in2="hardAlpha" operator="arithmetic" k2="-1" k3="1"/>
<feColorMatrix type="matrix" values="0 0 0 0 1 0 0 0 0 1 0 0 0 0 1 0 0 0 0.4 0"/>
<feBlend mode="normal" in2="shape" result="effect1_innerShadow_260_5191"/>
</filter>
<linearGradient id="paint0_linear_260_5191" x1="30" y1="0" x2="30" y2="60" gradientUnits="userSpaceOnUse">
<stop stop-color="#E7EAEE"/>
<stop offset="1" stop-color="#9EA4B4" stop-opacity="0.2"/>
</linearGradient>
<linearGradient id="paint1_linear_260_5191" x1="44.2105" y1="1.85566" x2="-6.6396" y2="11.2522" gradientUnits="userSpaceOnUse">
<stop offset="0.0248008" stop-color="#E7EAEE"/>
<stop offset="0.924756" stop-color="#9EA4B4" stop-opacity="0.2"/>
</linearGradient>
</defs>
</svg>
