<svg width="28" height="29" viewBox="0 0 28 29" fill="none" xmlns="http://www.w3.org/2000/svg">
<g clip-path="url(#clip0_404_3889)">
<path d="M6.78782 18.8269C6.61812 18.6572 6.49085 18.4026 6.44842 18.1481C5.55751 18.8269 5.006 19.5905 2.92721 19.7602C2.79994 19.7602 2.75751 19.7602 2.75751 19.7602C2.54539 19.8026 2.3757 20.0147 2.3757 20.2269C2.3757 20.439 2.58782 20.6511 2.84236 20.6087H3.01206C3.05448 20.6087 3.09691 20.6087 3.13933 20.6087C3.64842 20.6087 3.94539 20.736 3.98782 20.8632C4.03024 20.9056 4.15751 21.4147 2.67267 22.8996C0.975696 24.4693 0.848423 27.0147 0.848423 27.0996C0.848423 27.2269 0.890847 27.3117 0.975696 27.3966C1.06054 27.4814 1.18782 27.5238 1.27267 27.5238C5.47267 27.3541 6.36357 24.5117 7.59388 24.5117C8.01812 24.5117 7.89085 25.5723 7.89085 25.6572C7.84842 26.2087 8.69691 26.2935 8.73933 25.742C8.73933 25.742 8.73933 25.6572 8.73933 25.5723C8.8666 24.045 9.41812 23.3238 9.96963 22.5602C10.0969 22.3905 10.2242 22.2208 10.309 22.0511C10.0545 22.0087 9.79994 21.8814 9.63024 21.7117L6.78782 18.8269ZM6.70297 16.5784C7.38176 14.1602 8.44236 11.2753 10.0545 8.64504C8.69691 9.36625 6.83024 9.70565 5.72721 8.60262C5.64236 8.51777 5.51509 8.47534 5.34539 8.47534C5.1757 8.47534 5.09085 8.56019 5.04842 8.68746L0.466605 17.4693C0.381756 17.5966 0.381756 17.8087 0.509029 17.9359C0.636302 18.0632 0.805999 18.1056 0.933272 18.0632L6.70297 16.5784ZM19.8121 18.445C17.1818 20.0572 14.3393 21.1178 11.8787 21.7966L10.3939 27.5663C10.3515 27.736 10.3939 27.9056 10.5211 27.9905C10.606 28.0753 10.6908 28.0753 10.7757 28.0753C10.8605 28.0753 10.903 28.0753 10.9878 28.0329L19.7272 23.4511C19.8545 23.4087 19.9393 23.2814 19.9393 23.1541C19.9393 23.0269 19.8969 22.8996 19.8121 22.8147C18.7939 21.7117 19.0908 19.8026 19.8121 18.445ZM16.0363 7.28746C15.1454 8.17837 14.8908 9.32383 15.3999 9.87534C16.0363 10.5117 17.309 9.91777 17.9878 9.23898C18.6242 8.60262 19.2605 7.28746 18.6242 6.6511C17.9878 6.01474 16.7151 6.60868 16.0363 7.28746ZM26.8969 1.64504C26.4727 1.17837 25.8787 0.923828 25.2424 0.923828H25.1999C23.8848 0.966252 21.9333 1.13595 19.8545 1.81474C20.4484 3.55413 24.9454 8.0511 26.7272 8.64504C27.406 6.56625 27.5757 4.61474 27.6181 3.29959C27.5757 2.66322 27.3636 2.06928 26.8969 1.64504ZM7.38176 18.2329L10.309 21.1602C10.3939 21.245 10.4787 21.2875 10.606 21.2875C10.6484 21.2875 10.6908 21.2875 10.7333 21.2875C12.9393 20.736 15.6121 19.845 18.1575 18.4875C16.1636 18.1481 13.7878 16.4935 12.1757 14.839C10.903 13.5238 10.0969 12.2087 9.75751 11.0208C8.56963 13.3966 7.76357 15.8572 7.25448 17.8511C7.21206 17.936 7.25448 18.1056 7.38176 18.2329Z" fill="#00E980"/>
<path d="M19.0486 2.07031C15.188 3.51274 12.5577 6.05819 10.4789 9.62183C10.3092 10.7673 11.1577 12.4643 12.7698 14.1612C15.0183 16.537 17.8183 17.937 19.4304 17.5552C19.4728 17.5552 19.5152 17.5552 19.5577 17.5552C22.7395 15.5612 25.0304 13.0158 26.388 9.40971C24.394 8.81577 19.6849 4.10668 19.0486 2.07031ZM18.5819 9.83395C17.5213 10.8946 15.7819 11.4461 14.8062 10.4703C13.9152 9.5794 14.2122 7.92486 15.4425 6.69456C16.5031 5.63395 18.2425 5.04001 19.2183 6.05819C20.2365 7.07637 19.6001 8.81577 18.5819 9.83395Z" fill="#00E980"/>
</g>
<defs>
<clipPath id="clip0_404_3889">
<rect width="28" height="28" fill="white" transform="translate(0 0.5)"/>
</clipPath>
</defs>
</svg>
