<svg width="40" height="40" viewBox="0 0 40 40" fill="none" xmlns="http://www.w3.org/2000/svg">
<circle cx="20" cy="20" r="20" fill="#F1F5F8"/>
<rect width="40" height="40" rx="20" fill="#9EA4B4" fill-opacity="0.2"/>
<path fill-rule="evenodd" clip-rule="evenodd" d="M23.3505 9.36517C23.4066 9.43778 23.4555 9.51567 23.4966 9.59774L23.6621 9.92854C24.0186 10.641 24.8114 11.0228 25.5907 10.8573L25.9525 10.7805C26.718 10.6179 27.4704 11.1066 27.6329 11.8721C27.652 11.9619 27.6623 12.0533 27.6637 12.1451L27.6693 12.5149C27.6813 13.3115 28.23 13.9995 29.0039 14.1885L29.3633 14.2762C30.1235 14.4619 30.5892 15.2287 30.4036 15.9889C30.3818 16.078 30.3514 16.1649 30.3129 16.2481L30.1574 16.5838C29.8227 17.3068 30.0185 18.1646 30.6338 18.6707L30.9194 18.9057C31.5238 19.4028 31.6108 20.2957 31.1137 20.9001C31.0554 20.971 30.9903 21.036 30.9194 21.0943L30.6338 21.3293C30.0185 21.8354 29.8227 22.6932 30.1574 23.4162L30.3129 23.7519C30.6417 24.462 30.3326 25.3042 29.6225 25.633C29.5392 25.6716 29.4524 25.702 29.3633 25.7238L29.0039 25.8115C28.23 26.0005 27.6813 26.6885 27.6693 27.4851L27.6637 27.8549C27.6519 28.6374 27.008 29.2621 26.2255 29.2503C26.1337 29.2489 26.0423 29.2386 25.9525 29.2195L25.5907 29.1427C24.8114 28.9772 24.0186 29.359 23.6621 30.0715L23.4966 30.4023C23.1465 31.1021 22.2953 31.3856 21.5954 31.0354C21.5133 30.9943 21.4355 30.9454 21.3628 30.8893L21.0702 30.6631C20.4399 30.1758 19.5599 30.1758 18.9296 30.6631L18.637 30.8893C18.0178 31.3679 17.1279 31.254 16.6493 30.6348C16.5932 30.5622 16.5443 30.4843 16.5032 30.4023L16.3377 30.0715C15.9812 29.359 15.1884 28.9772 14.4091 29.1427L14.0473 29.2195C13.2818 29.3821 12.5294 28.8934 12.3669 28.1279C12.3478 28.0381 12.3375 27.9467 12.3361 27.8549L12.3305 27.4851C12.3185 26.6885 11.7698 26.0005 10.9959 25.8115L10.6365 25.7238C9.87633 25.5381 9.41055 24.7713 9.59621 24.0111C9.61798 23.922 9.64836 23.8351 9.68693 23.7519L9.84236 23.4162C10.1771 22.6932 9.98135 21.8354 9.36603 21.3293L9.08036 21.0943C8.47598 20.5972 8.38902 19.7043 8.88613 19.0999C8.94443 19.029 9.00948 18.964 9.08036 18.9057L9.36603 18.6707C9.98135 18.1646 10.1771 17.3068 9.84236 16.5838L9.68693 16.2481C9.35809 15.538 9.66717 14.6958 10.3773 14.367C10.4606 14.3284 10.5474 14.298 10.6365 14.2762L10.9959 14.1885C11.7698 13.9995 12.3185 13.3115 12.3305 12.5149L12.3361 12.1451C12.3479 11.3626 12.9918 10.7379 13.7743 10.7497C13.8661 10.7511 13.9575 10.7614 14.0473 10.7805L14.4091 10.8573C15.1884 11.0228 15.9812 10.641 16.3377 9.92854L16.5032 9.59774C16.8533 8.8979 17.7045 8.61443 18.4044 8.96459C18.4865 9.00565 18.5644 9.05459 18.637 9.11072L18.9296 9.33695C19.5599 9.82422 20.4399 9.82422 21.0702 9.33695L21.3628 9.11072C21.982 8.63212 22.8719 8.74604 23.3505 9.36517ZM24.6323 17.0525C24.2834 16.7403 23.7534 16.7482 23.4139 17.0706L19.7345 20.5645C19.3332 20.9456 18.705 20.9497 18.2987 20.574L16.758 19.1494C16.3729 18.7933 15.7742 18.8088 15.4079 19.1844C15.3906 19.2021 15.3741 19.2206 15.3584 19.2398C15.0555 19.6091 15.1094 20.154 15.4788 20.4569L17.9809 22.5086C18.6696 23.0732 19.6725 23.0307 20.3108 22.4097L24.656 18.1827C24.6688 18.1703 24.6812 18.1574 24.6931 18.144C24.9777 17.8258 24.9505 17.3371 24.6323 17.0525Z" fill="#ABB7C2"/>
</svg>
