<svg width="824" height="708" viewBox="0 0 824 708" fill="none" xmlns="http://www.w3.org/2000/svg">
<g opacity="0.4">
<g opacity="0.8">
<path d="M276.137 144.853C137.68 222.756 88.572 398.186 166.452 536.686C244.332 675.185 419.708 724.307 558.166 646.404C696.623 568.5 745.73 393.071 667.85 254.571C589.97 116.071 414.594 66.949 276.137 144.853Z" stroke="#00E980" stroke-opacity="0.8"/>
<path d="M310.113 204.093C204.241 263.662 166.691 397.804 226.242 503.708C285.794 609.612 419.895 647.174 525.767 587.605C631.638 528.035 669.188 393.893 609.637 287.989C550.086 182.085 415.984 144.523 310.113 204.093Z" stroke="#00E980" stroke-opacity="0.6"/>
<path d="M339.108 256.838C262.48 299.953 235.302 397.043 278.404 473.695C321.506 550.346 418.567 577.533 495.195 534.417C571.823 491.302 599.001 394.212 555.899 317.561C512.797 240.909 415.736 213.723 339.108 256.838Z" stroke="#00E980" stroke-opacity="0.4"/>
</g>
<ellipse cx="19.8707" cy="19.8675" rx="19.8707" ry="19.8675" transform="matrix(-0.490137 -0.871645 -0.871517 0.490364 601.904 646.27)" fill="#00E980"/>
<ellipse cx="14.8477" cy="14.8453" rx="14.8477" ry="14.8453" transform="matrix(-0.490137 -0.871645 -0.871517 0.490364 501.067 121.838)" fill="#00E980"/>
<ellipse cx="18.5191" cy="18.5162" rx="18.5191" ry="18.5162" transform="matrix(-0.490137 -0.871645 -0.871517 0.490364 644.519 500.109)" fill="#00E980"/>
<ellipse cx="11.2371" cy="11.2353" rx="11.2371" ry="11.2353" transform="matrix(-0.490137 -0.871645 -0.871517 0.490364 214.454 422.396)" fill="#00E980"/>
<ellipse cx="23.1382" cy="23.1345" rx="23.1382" ry="23.1345" transform="matrix(-0.490137 -0.871645 -0.871517 0.490364 217.387 590.887)" fill="#00E980"/>
<ellipse cx="22.0574" cy="22.0539" rx="22.0574" ry="22.0539" transform="matrix(-0.490137 -0.871645 -0.871517 0.490364 736.938 366.479)" fill="#00E980"/>
<ellipse cx="22.0574" cy="22.0539" rx="22.0574" ry="22.0539" transform="matrix(-0.490137 -0.871645 -0.871517 0.490364 199.401 237.115)" fill="#00E980"/>
</g>
</svg>
