<svg width="58" height="58" viewBox="0 0 58 58" fill="none" xmlns="http://www.w3.org/2000/svg">
<g filter="url(#filter0_i_234_6068)">
<rect width="58" height="58" rx="29" fill="url(#paint0_linear_234_6068)" fill-opacity="0.5"/>
<rect x="0.25" y="0.25" width="57.5" height="57.5" rx="28.75" stroke="url(#paint1_linear_234_6068)" stroke-width="0.5"/>
<path d="M18.3099 35.597C16.0519 35.597 14.217 37.4319 14.217 39.6899C14.217 41.945 16.0519 43.7828 18.3099 43.7828C20.565 43.7828 22.4028 41.9451 22.4028 39.6899C22.4028 37.4319 20.565 35.597 18.3099 35.597ZM18.307 37.4261C18.881 37.4261 19.3477 37.8899 19.3477 38.4638C19.3477 39.0377 18.881 39.5044 18.307 39.5044C17.736 39.5044 17.2693 39.0377 17.2693 38.4638C17.2693 37.8899 17.736 37.4261 18.307 37.4261ZM19.6868 41.6697C19.2288 41.858 18.7679 41.9537 18.31 41.9537C17.8491 41.9537 17.3882 41.858 16.9332 41.6697C16.8259 41.6233 16.7535 41.5189 16.7535 41.4001C16.7535 40.545 17.452 39.8464 18.3071 39.8464C19.1651 39.8464 19.8637 40.545 19.8637 41.4001C19.8636 41.5189 19.794 41.6233 19.6868 41.6697ZM18.3099 22.4025C20.565 22.4025 22.4028 20.5677 22.4028 18.3097C22.4028 16.0517 20.5651 14.2168 18.3099 14.2168C16.0519 14.2168 14.217 16.0516 14.217 18.3097C14.2171 20.5677 16.0519 22.4025 18.3099 22.4025ZM18.307 16.0459C18.881 16.0459 19.3477 16.5125 19.3477 17.0835C19.3477 17.6575 18.881 18.1242 18.307 18.1242C17.736 18.1242 17.2693 17.6575 17.2693 17.0835C17.2693 16.5125 17.736 16.0459 18.307 16.0459ZM18.307 18.4691C19.165 18.4691 19.8636 19.1648 19.8636 20.0228C19.8636 20.1387 19.794 20.243 19.6868 20.2895C19.2288 20.4779 18.7679 20.5735 18.31 20.5735C17.8491 20.5735 17.3882 20.4779 16.9332 20.2895C16.8259 20.2431 16.7535 20.1387 16.7535 20.0228C16.7534 19.1648 17.452 18.4691 18.307 18.4691ZM32.49 24.8026V33.9188H31.3856V26.649C31.3856 26.4867 31.2552 26.3592 31.0957 26.3592H29C28.8377 26.3592 28.7102 26.4867 28.7102 26.649V33.9188H27.6029V28.1302C27.6029 27.9708 27.4725 27.8404 27.313 27.8404H25.2173C25.0579 27.8404 24.9274 27.9708 24.9274 28.1302V33.9188H23.823V29.3245C23.823 29.1622 23.6926 29.0346 23.5332 29.0346H21.4375C21.2781 29.0346 21.1477 29.1622 21.1477 29.3245V33.9188H19.9332C19.7709 33.9188 19.6433 34.0464 19.6433 34.2087C19.6433 34.3681 19.7709 34.4985 19.9332 34.4985H36.3799C36.5393 34.4985 36.6698 34.3681 36.6698 34.2087C36.6698 34.0464 36.5394 33.9188 36.3799 33.9188H35.1654V24.8026C35.1654 24.6432 35.0349 24.5127 34.8755 24.5127H32.7798C32.6204 24.5127 32.49 24.6432 32.49 24.8026ZM33.0146 21.3214L33.3566 21.446C30.8435 22.6257 21.7216 26.9099 21.5767 26.9765C21.4317 27.0432 21.3709 27.2171 21.4375 27.362C21.4868 27.4664 21.5912 27.5273 21.7013 27.5273C21.7419 27.5273 21.7825 27.5186 21.823 27.5012C21.968 27.4345 31.0899 23.1504 33.603 21.9707L33.4813 22.3127C33.4262 22.4635 33.5045 22.6287 33.6552 22.6838C33.6872 22.6954 33.719 22.7012 33.7538 22.7012C33.8726 22.7012 33.9827 22.6258 34.0262 22.5099L34.3857 21.5099C34.3885 21.504 34.3885 21.5012 34.3885 21.4954C34.403 21.449 34.406 21.4055 34.3972 21.362C34.3972 21.3475 34.3944 21.3359 34.3885 21.3244C34.3769 21.2809 34.3537 21.2432 34.3248 21.2113C34.3074 21.1939 34.29 21.1765 34.2669 21.1649C34.2494 21.1533 34.232 21.1446 34.2118 21.1388L34.1944 21.133L33.2117 20.7765C33.061 20.7214 32.8958 20.7997 32.8407 20.9504C32.7856 21.101 32.8639 21.2663 33.0146 21.3214ZM39.6872 35.597C37.4321 35.597 35.5944 37.4319 35.5944 39.6899C35.5944 41.945 37.432 43.7828 39.6872 43.7828C41.9453 43.7828 43.783 41.9451 43.783 39.6899C43.783 37.4319 41.9453 35.597 39.6872 35.597ZM39.6872 37.4261C40.2612 37.4261 40.7279 37.8899 40.7279 38.4638C40.7279 39.0377 40.2612 39.5044 39.6872 39.5044C39.1133 39.5044 38.6495 39.0377 38.6495 38.4638C38.6495 37.8899 39.1134 37.4261 39.6872 37.4261ZM41.0641 41.6697C40.609 41.858 40.1481 41.9537 39.6872 41.9537C39.2292 41.9537 38.7684 41.858 38.3104 41.6697C38.2032 41.6233 38.1335 41.5189 38.1335 41.4001C38.1335 40.545 38.8292 39.8464 39.6872 39.8464C40.5452 39.8464 41.2438 40.545 41.2438 41.4001C41.2438 41.5189 41.1714 41.6233 41.0641 41.6697ZM39.6872 22.4025C41.9453 22.4025 43.783 20.5677 43.783 18.3097C43.783 16.0517 41.9453 14.2168 39.6872 14.2168C37.4321 14.2168 35.5944 16.0516 35.5944 18.3097C35.5944 20.5677 37.4321 22.4025 39.6872 22.4025ZM39.6872 16.0459C40.2612 16.0459 40.7279 16.5125 40.7279 17.0835C40.7279 17.6575 40.2612 18.1242 39.6872 18.1242C39.1133 18.1242 38.6495 17.6575 38.6495 17.0835C38.6495 16.5125 39.1134 16.0459 39.6872 16.0459ZM39.6872 18.4691C40.5452 18.4691 41.2438 19.1648 41.2438 20.0228C41.2438 20.1387 41.1714 20.243 41.0641 20.2895C40.609 20.4779 40.1481 20.5735 39.6872 20.5735C39.2292 20.5735 38.7684 20.4779 38.3104 20.2895C38.2032 20.2431 38.1335 20.1387 38.1335 20.0228C38.1335 19.1648 38.8293 18.4691 39.6872 18.4691Z" fill="#9EA4B4"/>
</g>
<defs>
<filter id="filter0_i_234_6068" x="0" y="0" width="58" height="68" filterUnits="userSpaceOnUse" color-interpolation-filters="sRGB">
<feFlood flood-opacity="0" result="BackgroundImageFix"/>
<feBlend mode="normal" in="SourceGraphic" in2="BackgroundImageFix" result="shape"/>
<feColorMatrix in="SourceAlpha" type="matrix" values="0 0 0 0 0 0 0 0 0 0 0 0 0 0 0 0 0 0 127 0" result="hardAlpha"/>
<feOffset dy="10"/>
<feGaussianBlur stdDeviation="5"/>
<feComposite in2="hardAlpha" operator="arithmetic" k2="-1" k3="1"/>
<feColorMatrix type="matrix" values="0 0 0 0 0.905882 0 0 0 0 0.917647 0 0 0 0 0.933333 0 0 0 0.06 0"/>
<feBlend mode="normal" in2="shape" result="effect1_innerShadow_234_6068"/>
</filter>
<linearGradient id="paint0_linear_234_6068" x1="29" y1="0" x2="29" y2="58" gradientUnits="userSpaceOnUse">
<stop stop-color="#354B60"/>
<stop offset="1" stop-color="#202B37"/>
</linearGradient>
<linearGradient id="paint1_linear_234_6068" x1="42.7368" y1="1.79381" x2="-6.41828" y2="10.8771" gradientUnits="userSpaceOnUse">
<stop offset="0.0248008" stop-color="#526374"/>
<stop offset="0.924756" stop-color="#9ABADA" stop-opacity="0.4"/>
</linearGradient>
</defs>
</svg>
