<svg width="70" height="70" viewBox="0 0 70 70" fill="none" xmlns="http://www.w3.org/2000/svg">
<g filter="url(#filter0_i_234_6066)">
<rect width="70" height="70" rx="35" fill="url(#paint0_linear_234_6066)" fill-opacity="0.5"/>
<rect x="0.25" y="0.25" width="69.5" height="69.5" rx="34.75" stroke="url(#paint1_linear_234_6066)" stroke-width="0.5"/>
<g clip-path="url(#clip0_234_6066)">
<path fill-rule="evenodd" clip-rule="evenodd" d="M24.64 21C24.1617 20.999 23.6879 21.0924 23.2458 21.275C22.8037 21.4575 22.402 21.7256 22.0638 22.0638C21.7256 22.402 21.4575 22.8037 21.275 23.2458C21.0924 23.6879 20.999 24.1617 21 24.64V45.36C20.999 45.8383 21.0924 46.3121 21.275 46.7542C21.4575 47.1963 21.7256 47.598 22.0638 47.9362C22.402 48.2744 22.8037 48.5425 23.2458 48.725C23.6879 48.9076 24.1617 49.001 24.64 49H45.36C45.8383 49.001 46.3121 48.9076 46.7542 48.725C47.1963 48.5425 47.598 48.2744 47.9362 47.9362C48.2744 47.598 48.5425 47.1963 48.725 46.7542C48.9076 46.3121 49.001 45.8383 49 45.36V24.64C49.001 24.1617 48.9076 23.6879 48.725 23.2458C48.5425 22.8037 48.2744 22.402 47.9362 22.0638C47.598 21.7256 47.1963 21.4575 46.7542 21.275C46.3121 21.0924 45.8383 20.999 45.36 21H24.64ZM26.474 28.007C26.507 27.9983 26.5417 27.9983 26.5746 28.007H43.4263C43.596 28.007 43.7509 28.1601 43.7509 28.3299V29.6686C43.7509 29.8375 43.596 29.9906 43.4263 29.9906H26.5738C26.489 29.9876 26.4085 29.9526 26.3485 29.8928C26.2884 29.8329 26.2533 29.7525 26.25 29.6678V28.3299C26.248 28.2591 26.2687 28.1895 26.3089 28.1313C26.3492 28.0731 26.4071 28.0292 26.474 28.0061V28.007ZM28.1951 30.6198H41.8049V38.052C41.8021 38.1369 41.7672 38.2176 41.7073 38.2778C41.6474 38.3381 41.5669 38.3734 41.482 38.3766H39.2123V41.9423C39.2123 42.1111 39.0591 42.2651 38.8894 42.2651H36.9451C36.8601 42.2623 36.7793 42.2273 36.719 42.1672C36.6588 42.1071 36.6236 42.0264 36.6205 41.9414V38.3775H33.3795V41.9431C33.3795 42.112 33.2246 42.266 33.0558 42.266H31.1124C31.0273 42.2632 30.9465 42.2282 30.8863 42.1681C30.826 42.108 30.7908 42.0273 30.7878 41.9423V38.3775H28.5198C28.4348 38.3743 28.3543 38.3392 28.2941 38.2792C28.2339 38.2191 28.1986 38.1387 28.1951 38.0538V30.6198ZM36.8629 32.5238C36.6126 32.5238 36.4219 32.585 36.2968 32.725C36.1716 32.8659 36.1139 33.0706 36.1139 33.334C36.1139 33.4889 36.1454 33.6245 36.1944 33.7391C36.2443 33.8529 36.3029 33.9535 36.3781 34.0428C36.4516 34.1329 36.5356 34.23 36.6205 34.3061C36.7054 34.3823 36.7693 34.4523 36.8436 34.5284C36.918 34.6045 36.9959 34.6859 37.0449 34.7708C37.0948 34.8565 37.107 34.9431 37.107 35.0551C37.107 35.1724 37.0939 35.2713 37.0458 35.3176C36.9976 35.3649 36.9241 35.3789 36.8445 35.3789C36.7631 35.3789 36.7089 35.364 36.6608 35.3176C36.6135 35.2713 36.5811 35.1724 36.5811 35.0551V34.8329H36.0938V35.0341C36.0938 35.2966 36.169 35.5014 36.2968 35.6423C36.4254 35.784 36.6118 35.8435 36.8629 35.8435C37.114 35.8435 37.3013 35.7831 37.4299 35.6423C37.5585 35.5023 37.6338 35.2975 37.6338 35.0341C37.6338 34.8793 37.6014 34.7436 37.5515 34.629C37.506 34.5199 37.445 34.4179 37.3704 34.3263C37.296 34.2325 37.215 34.1442 37.128 34.062C37.0423 33.9859 36.9574 33.9159 36.883 33.8398C36.8127 33.7665 36.7519 33.6848 36.7019 33.5965C36.649 33.5114 36.6208 33.4132 36.6205 33.313C36.616 33.2187 36.6448 33.1258 36.7019 33.0505C36.7474 33.0015 36.8025 32.9893 36.883 32.9893C36.9635 32.9893 37.0213 33.0015 37.0668 33.0505C37.1105 33.0978 37.128 33.1958 37.128 33.313V33.4346H37.6128V33.334C37.6128 33.0706 37.5559 32.8659 37.4299 32.725C37.3048 32.585 37.1149 32.5238 36.8646 32.5238H36.8629ZM32.7714 32.5631L32.2656 35.805H32.732L32.8125 35.217H33.4416L33.5423 35.805H34.048L33.5221 32.5631H32.7714ZM34.2904 32.5631V35.805H35.1006C35.3579 35.805 35.5425 35.7376 35.6685 35.6011C35.7936 35.4655 35.8514 35.2774 35.8514 35.014V33.3541C35.8514 33.0916 35.7936 32.9026 35.6676 32.7661C35.5425 32.6305 35.3579 32.5631 35.1006 32.5631H34.2904ZM34.7979 33.0278H35.0823C35.1628 33.0278 35.217 33.0426 35.2634 33.089C35.3098 33.1363 35.3456 33.2141 35.3456 33.3323V35.0341C35.3456 35.1514 35.3098 35.2301 35.2634 35.2765C35.217 35.3238 35.1628 35.3378 35.0823 35.3378H34.7988V33.0286L34.7979 33.0278ZM33.1371 33.1301L33.3795 34.7708H32.8948L33.1371 33.1301Z" fill="#9EA4B4"/>
</g>
</g>
<defs>
<filter id="filter0_i_234_6066" x="0" y="0" width="70" height="80" filterUnits="userSpaceOnUse" color-interpolation-filters="sRGB">
<feFlood flood-opacity="0" result="BackgroundImageFix"/>
<feBlend mode="normal" in="SourceGraphic" in2="BackgroundImageFix" result="shape"/>
<feColorMatrix in="SourceAlpha" type="matrix" values="0 0 0 0 0 0 0 0 0 0 0 0 0 0 0 0 0 0 127 0" result="hardAlpha"/>
<feOffset dy="10"/>
<feGaussianBlur stdDeviation="5"/>
<feComposite in2="hardAlpha" operator="arithmetic" k2="-1" k3="1"/>
<feColorMatrix type="matrix" values="0 0 0 0 0.905882 0 0 0 0 0.917647 0 0 0 0 0.933333 0 0 0 0.06 0"/>
<feBlend mode="normal" in2="shape" result="effect1_innerShadow_234_6066"/>
</filter>
<linearGradient id="paint0_linear_234_6066" x1="35" y1="0" x2="35" y2="70" gradientUnits="userSpaceOnUse">
<stop stop-color="#354B60"/>
<stop offset="1" stop-color="#202B37"/>
</linearGradient>
<linearGradient id="paint1_linear_234_6066" x1="51.5789" y1="2.16494" x2="-7.7462" y2="13.1275" gradientUnits="userSpaceOnUse">
<stop offset="0.0248008" stop-color="#526374"/>
<stop offset="0.924756" stop-color="#9ABADA" stop-opacity="0.4"/>
</linearGradient>
<clipPath id="clip0_234_6066">
<rect width="28" height="28" fill="white" transform="translate(21 21)"/>
</clipPath>
</defs>
</svg>
