<svg width="18" height="11" viewBox="0 0 18 11" fill="none" xmlns="http://www.w3.org/2000/svg">
<path d="M0 5.25029C0 5.4492 0.0790178 5.63997 0.21967 5.78062C0.360322 5.92127 0.551088 6.00029 0.75 6.00029H15.4395L12.2205 9.21929C12.0839 9.36074 12.0083 9.55019 12.01 9.74684C12.0117 9.94349 12.0906 10.1316 12.2296 10.2707C12.3687 10.4097 12.5568 10.4886 12.7534 10.4903C12.9501 10.492 13.1395 10.4164 13.281 10.2798L17.781 5.77979C17.8504 5.71079 17.9055 5.62876 17.9431 5.5384C17.9806 5.44804 18 5.35115 18 5.25329V5.25029C18 5.15279 17.9805 5.05529 17.9415 4.96379C17.9041 4.87286 17.8491 4.79026 17.7795 4.72079L13.2795 0.220788C13.138 0.0841692 12.9486 0.00857344 12.7519 0.0102823C12.5553 0.0119911 12.3672 0.0908676 12.2281 0.229924C12.0891 0.36898 12.0102 0.557089 12.0085 0.753737C12.0068 0.950384 12.0824 1.13984 12.219 1.28129L15.4395 4.50029H0.75C0.551088 4.50029 0.360322 4.57931 0.21967 4.71996C0.0790178 4.86061 0 5.05138 0 5.25029Z" fill="#132D46"/>
</svg>
