<svg width="32" height="32" viewBox="0 0 32 32" fill="none" xmlns="http://www.w3.org/2000/svg">
<g clip-path="url(#clip0_3493_625)">
<path d="M32 16C32 7.16344 24.8366 0 16 0C7.16344 0 0 7.16344 0 16C0 24.8366 7.16344 32 16 32C24.8366 32 32 24.8366 32 16Z" fill="#1C354D"/>
<path d="M17.2758 25.031V16.4665H20.1507L20.5818 13.1287H17.2758V10.9976C17.2758 10.0313 17.5442 9.37276 18.93 9.37276H20.6975V6.38831C19.842 6.2978 18.9822 6.25395 18.1219 6.25698C15.5735 6.25698 13.8289 7.81239 13.8289 10.669V13.1287H10.9468V16.4665H13.8289V25.031H17.2758Z" fill="#FCFEFD"/>
</g>
<defs>
<clipPath id="clip0_3493_625">
<rect width="32" height="32" fill="white"/>
</clipPath>
</defs>
</svg>
