<svg width="32" height="32" viewBox="0 0 32 32" fill="none" xmlns="http://www.w3.org/2000/svg">
<g clip-path="url(#clip0_3493_632)">
<path d="M16 0C7.16337 0 0 7.16337 0 16C0 24.8366 7.16337 31.9999 16 31.9999C24.8366 31.9999 32 24.8366 32 16C31.9999 7.16337 24.8364 0 16 0ZM11.7311 23.7352H8.21819V12.3859H11.7311V23.7352ZM9.95793 10.8996C8.81063 10.8996 7.88055 9.96191 7.88055 8.80543C7.88055 7.64882 8.81076 6.71121 9.95793 6.71121C11.1051 6.71121 12.0352 7.64882 12.0352 8.80543C12.0352 9.96198 11.1052 10.8996 9.95793 10.8996ZM24.8959 23.7352H21.4V17.7777C21.4 16.1438 20.7794 15.2317 19.4873 15.2317C18.0812 15.2317 17.3466 16.1816 17.3466 17.7777V23.7352H13.9773V12.3859H17.3466V13.9144C17.3466 13.9144 18.3601 12.0397 20.7666 12.0397C23.1732 12.0397 24.896 13.5091 24.896 16.549L24.8959 23.7352Z" fill="#1C354D"/>
</g>
<defs>
<clipPath id="clip0_3493_632">
<rect width="32" height="32" fill="white"/>
</clipPath>
</defs>
</svg>
