<svg width="38" height="28" viewBox="0 0 38 28" fill="none" xmlns="http://www.w3.org/2000/svg">
<rect opacity="0.2" width="37.7701" height="28" rx="6" fill="#37E479"/>
<path d="M20.222 22.2968H18.8633V15.6237C19.7364 13.183 20.227 11.815 21.0712 9.36762C23.8808 8.80255 24.5734 9.51965 24.6803 12.1203L22.2176 19.6275C21.6521 21.2593 21.3655 22.2581 20.222 22.2968Z" fill="#67EE9A"/>
<path d="M17.4946 22.2965H18.8633V15.6305L16.6392 9.3811C13.8091 8.81663 13.1115 9.53297 13.0038 12.1308L15.4844 19.6301C16.0541 21.2601 16.3428 22.2578 17.4946 22.2965Z" fill="#67EE9A"/>
<path d="M16.7403 9.58625C17.3608 11.3301 18.8633 15.592 18.8633 15.592V19.9713H17.4621L14.0228 10.1701C14.506 9.19466 15.137 9.03212 16.7403 9.58625Z" fill="url(#paint0_linear_1591_8978)"/>
<path d="M20.9863 9.58625C20.4047 11.3468 18.8809 15.5998 18.8633 15.592V19.9713H20.2645L23.7038 10.1701C23.2206 9.19466 22.5895 9.03212 20.9863 9.58625Z" fill="url(#paint1_linear_1591_8978)"/>
<path d="M8.84128 22.8154H5.69922L10.4123 7.50897C11.4566 4.93929 15.0994 4.9882 16.1444 7.50897L17.1635 10.8038C15.9576 9.0831 14.0152 9.5011 13.2996 12.055L11.3889 18.4779C10.6648 21.1691 10.2729 22.729 8.84128 22.8154Z" fill="#37E479"/>
<path d="M28.8814 22.825H32.0234L27.3103 7.51465C26.266 4.93733 22.6233 4.98637 21.5782 7.51465L20.5592 10.8289C21.7651 9.10306 23.7074 9.51272 24.423 12.0742L26.3338 18.5162L26.3587 18.609C27.067 21.2503 27.4663 22.7393 28.8814 22.825Z" fill="#37E479"/>
<path d="M12.7056 10.8036L13.2152 12.3885L11.3045 18.8114C10.5163 21.9014 9.95211 22.8404 8.67192 22.8152H6.71875L10.3703 10.8036C10.848 9.42625 12.2174 9.21669 12.7056 10.8036Z" fill="#6DF2A0"/>
<path d="M24.9779 10.8003L24.4684 12.3852L26.3791 18.8081C27.1673 21.8981 27.7315 22.837 29.0117 22.8119H30.9648L27.3133 10.8003C26.8356 9.42292 25.4662 9.21336 24.9779 10.8003Z" fill="#6DF2A0"/>
<defs>
<linearGradient id="paint0_linear_1591_8978" x1="16.443" y1="9.27026" x2="16.443" y2="19.9713" gradientUnits="userSpaceOnUse">
<stop stop-color="#22BC5D"/>
<stop offset="1" stop-color="#67EE9A" stop-opacity="0.5"/>
</linearGradient>
<linearGradient id="paint1_linear_1591_8978" x1="21.2835" y1="9.27026" x2="21.2835" y2="19.9713" gradientUnits="userSpaceOnUse">
<stop stop-color="#22BC5D"/>
<stop offset="1" stop-color="#67EE9A" stop-opacity="0.5"/>
</linearGradient>
</defs>
</svg>
