<svg width="32" height="32" viewBox="0 0 32 32" fill="none" xmlns="http://www.w3.org/2000/svg">
<g clip-path="url(#clip0_3493_629)">
<path d="M16 32C24.8366 32 32 24.8366 32 16C32 7.16344 24.8366 0 16 0C7.16344 0 0 7.16344 0 16C0 24.8366 7.16344 32 16 32Z" fill="#1C354D"/>
<path d="M26.259 9.63584C25.5043 9.97073 24.6937 10.1971 23.8415 10.2989C24.7113 9.77802 25.3776 8.95265 25.6922 7.97032C24.866 8.46106 23.9617 8.80655 23.0188 8.99177C22.2513 8.17378 21.157 7.66309 19.9464 7.66309C17.6225 7.66309 15.7379 9.54696 15.7379 11.8721C15.7379 12.2016 15.775 12.523 15.8463 12.8316C12.3481 12.6558 9.24674 10.9801 7.17082 8.43391C6.80833 9.05577 6.60085 9.77878 6.60085 10.5502C6.60085 12.0103 7.34402 13.2986 8.47326 14.0532C7.80477 14.0325 7.15095 13.852 6.56646 13.527V13.5802C6.56646 15.6197 8.01711 17.3203 9.94276 17.7071C9.58902 17.804 9.21779 17.8546 8.83373 17.8546C8.5622 17.8546 8.29875 17.8289 8.04139 17.7805C8.57703 19.4522 10.1315 20.669 11.9728 20.7034C10.5323 21.8326 8.71714 22.5058 6.74569 22.5058C6.40613 22.5058 6.07054 22.4855 5.74109 22.4458C7.6041 23.6404 9.81612 24.3377 12.1932 24.3377C19.9349 24.3377 24.1689 17.9241 24.1689 12.362C24.1689 12.1794 24.1649 11.9982 24.1561 11.8176C24.981 11.2209 25.6931 10.4821 26.259 9.63584Z" fill="#FCFEFD"/>
</g>
<defs>
<clipPath id="clip0_3493_629">
<rect width="32" height="32" fill="white"/>
</clipPath>
</defs>
</svg>
