<svg width="33" height="32" viewBox="0 0 33 32" fill="none" xmlns="http://www.w3.org/2000/svg">
<path d="M16.5 21.3333V28M21.8333 18.6667V28M27.1666 13.3333V28M29.8333 4L18.3053 15.528C18.2434 15.5901 18.1698 15.6393 18.0888 15.6729C18.0078 15.7066 17.921 15.7239 17.8333 15.7239C17.7456 15.7239 17.6588 15.7066 17.5778 15.6729C17.4968 15.6393 17.4232 15.5901 17.3613 15.528L12.972 11.1387C12.8469 11.0137 12.6774 10.9435 12.5006 10.9435C12.3238 10.9435 12.1543 11.0137 12.0293 11.1387L3.16663 20M5.83329 24V28M11.1666 18.6667V28" stroke="#FCFEFD" stroke-width="2" stroke-linecap="round" stroke-linejoin="round"/>
</svg>
