<svg width="32" height="32" viewBox="0 0 32 32" fill="none" xmlns="http://www.w3.org/2000/svg">
<g clip-path="url(#clip0_3493_634)">
<path d="M16.4005 30.4172C24.1314 30.4172 30.3986 24.15 30.3986 16.419C30.3986 8.68807 24.1314 2.4209 16.4005 2.4209C8.66952 2.4209 2.40234 8.68807 2.40234 16.419C2.40234 24.15 8.66952 30.4172 16.4005 30.4172Z" fill="#FCFEFD"/>
<path d="M16.0397 32.0586C24.8762 32.0586 32.0397 24.8952 32.0397 16.0586C32.0397 7.22204 24.8762 0.0585938 16.0397 0.0585938C7.20312 0.0585938 0.0396729 7.22204 0.0396729 16.0586C0.0396729 24.8952 7.20312 32.0586 16.0397 32.0586Z" fill="#1C354D"/>
<path d="M14.3275 18.062V13.3638L18.6604 15.7275L14.3275 18.062ZM23.8343 12.5423C23.8343 12.5423 23.678 11.3864 23.2091 10.8799C22.9999 10.6577 22.7506 10.4805 22.4754 10.3585C22.2002 10.2365 21.9045 10.172 21.6053 10.1688C19.3607 10 15.9969 10 15.9969 10C15.9969 10 12.6331 10 10.3884 10.1688C10.0892 10.172 9.79358 10.2365 9.51838 10.3585C9.24319 10.4805 8.99387 10.6577 8.78468 10.8799C8.30324 11.3864 8.15944 12.5423 8.15944 12.5423C8.06018 13.4436 8.00696 14.3496 8 15.2567V16.5263C8.00696 17.4333 8.06018 18.3394 8.15944 19.2407C8.15944 19.2407 8.31575 20.3966 8.78468 20.9031C9.39429 21.5719 10.1946 21.5525 10.551 21.6206C11.8327 21.7505 16 21.7895 16 21.7895C16 21.7895 19.3669 21.7895 21.6116 21.6141C21.9108 21.6109 22.2064 21.5465 22.4816 21.4245C22.7568 21.3024 23.0061 21.1253 23.2153 20.9031C23.6968 20.3966 23.8406 19.2407 23.8406 19.2407C23.9398 18.3394 23.993 17.4333 24 16.5263V15.2502C23.993 14.3431 23.9398 13.4371 23.8406 12.5358L23.8343 12.5423Z" fill="#FCFEFD"/>
</g>
<defs>
<clipPath id="clip0_3493_634">
<rect width="32" height="32" fill="white"/>
</clipPath>
</defs>
</svg>
