<svg width="70" height="64" viewBox="0 0 70 64" fill="none" xmlns="http://www.w3.org/2000/svg">
<path d="M47.7811 52.1068C46.468 53.5204 44.9711 54.7969 43.3266 55.9068C38.7847 58.9839 33.1008 60.8103 26.9294 60.8103C22.6204 60.8103 18.5489 59.9207 14.9413 58.3361C9.82632 63.5474 1.65522 63.0728 1.65522 63.0728L8.07912 54.0315C3.09225 49.729 0 43.7352 0 37.1017C0 31.2018 2.44629 25.8064 6.49446 21.6579C7.92708 20.191 9.56109 18.8779 11.3572 17.7552C10.2665 20.501 9.67218 23.4519 9.67218 26.5248C9.67218 41.1753 23.1613 53.0499 39.7984 53.0499C42.5632 53.0499 45.2384 52.7228 47.7811 52.1068Z" fill="#0DB368" fill-opacity="0.2"/>
<path d="M53.858 37.1018C53.858 42.7963 51.5805 48.0207 47.7808 52.1071C45.2381 52.723 42.5629 53.0502 39.7981 53.0502C23.161 53.0502 9.67188 41.1756 9.67188 26.5251C9.67188 23.4524 10.2662 20.5013 11.3569 17.7555C15.7535 15.0098 21.1253 13.3932 26.9288 13.3932C41.8015 13.393 53.858 24.006 53.858 37.1018Z" fill="url(#paint0_linear_3661_1091)"/>
<path d="M60.889 45.465L68.0764 55.5817C68.0764 55.5817 58.9324 56.112 53.2122 50.2828C51.4589 51.0493 49.6414 51.6597 47.7808 52.1069C45.2381 52.7228 42.5629 53.05 39.7981 53.05C23.161 53.05 9.67188 41.1753 9.67188 26.5249C9.67188 23.4522 10.2662 20.501 11.3569 17.7553C15.4689 7.41384 26.6508 0 39.7978 0C56.4366 0 69.9259 11.8726 69.9259 26.5249C69.9259 33.9454 66.4681 40.6516 60.889 45.465Z" fill="#0DB368"/>
<path d="M28.5496 32.4471C30.9306 32.4471 32.8609 30.5168 32.8609 28.1358C32.8609 25.7547 30.9306 23.8245 28.5496 23.8245C26.1685 23.8245 24.2383 25.7547 24.2383 28.1358C24.2383 30.5168 26.1685 32.4471 28.5496 32.4471Z" fill="#194E52"/>
<path d="M40.2273 32.4471C42.6084 32.4471 44.5386 30.5168 44.5386 28.1358C44.5386 25.7547 42.6084 23.8245 40.2273 23.8245C37.8462 23.8245 35.916 25.7547 35.916 28.1358C35.916 30.5168 37.8462 32.4471 40.2273 32.4471Z" fill="#194E52"/>
<path d="M51.9031 32.4471C54.2842 32.4471 56.2144 30.5168 56.2144 28.1358C56.2144 25.7547 54.2842 23.8245 51.9031 23.8245C49.522 23.8245 47.5918 25.7547 47.5918 28.1358C47.5918 30.5168 49.522 32.4471 51.9031 32.4471Z" fill="#194E52"/>
<defs>
<linearGradient id="paint0_linear_3661_1091" x1="31.7649" y1="13.393" x2="31.7649" y2="53.05" gradientUnits="userSpaceOnUse">
<stop offset="0.394" stop-color="#80E8BE"/>
<stop offset="1" stop-color="#00C278"/>
</linearGradient>
</defs>
</svg>
