<svg width="32" height="32" viewBox="0 0 32 32" fill="none" xmlns="http://www.w3.org/2000/svg">
<path d="M16.0013 21.3333V28M21.3346 18.6667V28M26.668 13.3333V28M29.3346 4L17.8066 15.528C17.7447 15.5901 17.6711 15.6393 17.5901 15.6729C17.5092 15.7066 17.4223 15.7239 17.3346 15.7239C17.2469 15.7239 17.1601 15.7066 17.0791 15.6729C16.9981 15.6393 16.9246 15.5901 16.8626 15.528L12.4733 11.1387C12.3483 11.0137 12.1787 10.9435 12.002 10.9435C11.8252 10.9435 11.6557 11.0137 11.5306 11.1387L2.66797 20M5.33464 24V28M10.668 18.6667V28" stroke="#0DB368" stroke-width="2" stroke-linecap="round" stroke-linejoin="round"/>
</svg>
